<?xml version="1.0" encoding="utf-8" standalone="no"?>
<!DOCTYPE svg PUBLIC "-//W3C//DTD SVG 1.1//EN"
  "http://www.w3.org/Graphics/SVG/1.1/DTD/svg11.dtd">
<svg xmlns:xlink="http://www.w3.org/1999/xlink" width="864pt" height="288pt" viewBox="0 0 864 288" xmlns="http://www.w3.org/2000/svg" version="1.1">
 <metadata>
  <rdf:RDF xmlns:dc="http://purl.org/dc/elements/1.1/" xmlns:cc="http://creativecommons.org/ns#" xmlns:rdf="http://www.w3.org/1999/02/22-rdf-syntax-ns#">
   <cc:Work>
    <dc:type rdf:resource="http://purl.org/dc/dcmitype/StillImage"/>
    <dc:date>2025-12-03T00:29:36.108632</dc:date>
    <dc:format>image/svg+xml</dc:format>
    <dc:creator>
     <cc:Agent>
      <dc:title>Matplotlib v3.10.0, https://matplotlib.org/</dc:title>
     </cc:Agent>
    </dc:creator>
   </cc:Work>
  </rdf:RDF>
 </metadata>
 <defs>
  <style type="text/css">*{stroke-linejoin: round; stroke-linecap: butt}</style>
 </defs>
 <g id="figure_1">
  <g id="patch_1">
   <path d="M 0 288 
L 864 288 
L 864 0 
L 0 0 
z
" style="fill: #ffffff"/>
  </g>
  <g id="axes_1">
   <g id="patch_2">
    <path d="M 44.66 246.04 
L 853.2 246.04 
L 853.2 13.12618 
L 44.66 13.12618 
z
" style="fill: #ffffff"/>
   </g>
   <g id="PathCollection_1">
    <defs>
     <path id="m832a8ab91c" d="M 0 3 
C 0.795609 3 1.55874 2.683901 2.12132 2.12132 
C 2.683901 1.55874 3 0.795609 3 0 
C 3 -0.795609 2.683901 -1.55874 2.12132 -2.12132 
C 1.55874 -2.683901 0.795609 -3 0 -3 
C -0.795609 -3 -1.55874 -2.683901 -2.12132 -2.12132 
C -2.683901 -1.55874 -3 -0.795609 -3 0 
C -3 0.795609 -2.683901 1.55874 -2.12132 2.12132 
C -1.55874 2.683901 -0.795609 3 0 3 
z
" style="stroke: #ed2136"/>
    </defs>
    <g clip-path="url(#p97f501a173)">
     <use xlink:href="#m832a8ab91c" x="81.411818" y="94.962122" style="fill: #ed2136; stroke: #ed2136"/>
     <use xlink:href="#m832a8ab91c" x="91.344742" y="138.112894" style="fill: #ed2136; stroke: #ed2136"/>
     <use xlink:href="#m832a8ab91c" x="101.277666" y="209.361823" style="fill: #ed2136; stroke: #ed2136"/>
     <use xlink:href="#m832a8ab91c" x="111.21059" y="98.976147" style="fill: #ed2136; stroke: #ed2136"/>
     <use xlink:href="#m832a8ab91c" x="121.143514" y="200.330287" style="fill: #ed2136; stroke: #ed2136"/>
     <use xlink:href="#m832a8ab91c" x="131.076437" y="182.267173" style="fill: #ed2136; stroke: #ed2136"/>
     <use xlink:href="#m832a8ab91c" x="141.009361" y="125.067312" style="fill: #ed2136; stroke: #ed2136"/>
     <use xlink:href="#m832a8ab91c" x="150.942285" y="224.414418" style="fill: #ed2136; stroke: #ed2136"/>
     <use xlink:href="#m832a8ab91c" x="160.875209" y="151.158476" style="fill: #ed2136; stroke: #ed2136"/>
     <use xlink:href="#m832a8ab91c" x="170.808133" y="182.267173" style="fill: #ed2136; stroke: #ed2136"/>
     <use xlink:href="#m832a8ab91c" x="180.741057" y="171.228603" style="fill: #ed2136; stroke: #ed2136"/>
     <use xlink:href="#m832a8ab91c" x="190.67398" y="130.084843" style="fill: #ed2136; stroke: #ed2136"/>
     <use xlink:href="#m832a8ab91c" x="200.606904" y="23.713172" style="fill: #ed2136; stroke: #ed2136"/>
     <use xlink:href="#m832a8ab91c" x="210.539828" y="200.330287" style="fill: #ed2136; stroke: #ed2136"/>
     <use xlink:href="#m832a8ab91c" x="220.472752" y="165.207565" style="fill: #ed2136; stroke: #ed2136"/>
     <use xlink:href="#m832a8ab91c" x="230.405676" y="106.000691" style="fill: #ed2136; stroke: #ed2136"/>
     <use xlink:href="#m832a8ab91c" x="240.3386" y="169.22157" style="fill: #ed2136; stroke: #ed2136"/>
     <use xlink:href="#m832a8ab91c" x="250.271523" y="134.098869" style="fill: #ed2136; stroke: #ed2136"/>
     <use xlink:href="#m832a8ab91c" x="260.204447" y="89.94459" style="fill: #ed2136; stroke: #ed2136"/>
     <use xlink:href="#m832a8ab91c" x="270.137371" y="176.246135" style="fill: #ed2136; stroke: #ed2136"/>
     <use xlink:href="#m832a8ab91c" x="280.070295" y="112.021729" style="fill: #ed2136; stroke: #ed2136"/>
     <use xlink:href="#m832a8ab91c" x="290.003219" y="200.330287" style="fill: #ed2136; stroke: #ed2136"/>
     <use xlink:href="#m832a8ab91c" x="299.936143" y="170.225097" style="fill: #ed2136; stroke: #ed2136"/>
     <use xlink:href="#m832a8ab91c" x="309.869066" y="176.246135" style="fill: #ed2136; stroke: #ed2136"/>
     <use xlink:href="#m832a8ab91c" x="319.80199" y="183.270679" style="fill: #ed2136; stroke: #ed2136"/>
     <use xlink:href="#m832a8ab91c" x="329.734914" y="206.351325" style="fill: #ed2136; stroke: #ed2136"/>
     <use xlink:href="#m832a8ab91c" x="339.667838" y="84.927058" style="fill: #ed2136; stroke: #ed2136"/>
     <use xlink:href="#m832a8ab91c" x="349.600762" y="231.438983" style="fill: #ed2136; stroke: #ed2136"/>
     <use xlink:href="#m832a8ab91c" x="359.533686" y="89.94459" style="fill: #ed2136; stroke: #ed2136"/>
     <use xlink:href="#m832a8ab91c" x="369.466609" y="144.133912" style="fill: #ed2136; stroke: #ed2136"/>
     <use xlink:href="#m832a8ab91c" x="379.399533" y="198.323274" style="fill: #ed2136; stroke: #ed2136"/>
     <use xlink:href="#m832a8ab91c" x="389.332457" y="163.200552" style="fill: #ed2136; stroke: #ed2136"/>
     <use xlink:href="#m832a8ab91c" x="399.265381" y="114.028742" style="fill: #ed2136; stroke: #ed2136"/>
     <use xlink:href="#m832a8ab91c" x="409.198305" y="165.207565" style="fill: #ed2136; stroke: #ed2136"/>
     <use xlink:href="#m832a8ab91c" x="419.131229" y="221.40392" style="fill: #ed2136; stroke: #ed2136"/>
     <use xlink:href="#m832a8ab91c" x="429.064152" y="123.060299" style="fill: #ed2136; stroke: #ed2136"/>
     <use xlink:href="#m832a8ab91c" x="438.997076" y="212.372363" style="fill: #ed2136; stroke: #ed2136"/>
     <use xlink:href="#m832a8ab91c" x="448.93" y="104.997185" style="fill: #ed2136; stroke: #ed2136"/>
     <use xlink:href="#m832a8ab91c" x="458.862924" y="235.453008" style="fill: #ed2136; stroke: #ed2136"/>
     <use xlink:href="#m832a8ab91c" x="468.795848" y="185.277692" style="fill: #ed2136; stroke: #ed2136"/>
     <use xlink:href="#m832a8ab91c" x="478.728771" y="235.453008" style="fill: #ed2136; stroke: #ed2136"/>
     <use xlink:href="#m832a8ab91c" x="488.661695" y="211.368856" style="fill: #ed2136; stroke: #ed2136"/>
     <use xlink:href="#m832a8ab91c" x="498.594619" y="165.207565" style="fill: #ed2136; stroke: #ed2136"/>
     <use xlink:href="#m832a8ab91c" x="508.527543" y="175.242628" style="fill: #ed2136; stroke: #ed2136"/>
     <use xlink:href="#m832a8ab91c" x="518.460467" y="220.400413" style="fill: #ed2136; stroke: #ed2136"/>
     <use xlink:href="#m832a8ab91c" x="528.393391" y="198.323274" style="fill: #ed2136; stroke: #ed2136"/>
     <use xlink:href="#m832a8ab91c" x="538.326314" y="168.218084" style="fill: #ed2136; stroke: #ed2136"/>
     <use xlink:href="#m832a8ab91c" x="548.259238" y="178.253147" style="fill: #ed2136; stroke: #ed2136"/>
     <use xlink:href="#m832a8ab91c" x="558.192162" y="214.379355" style="fill: #ed2136; stroke: #ed2136"/>
     <use xlink:href="#m832a8ab91c" x="568.125086" y="215.382882" style="fill: #ed2136; stroke: #ed2136"/>
     <use xlink:href="#m832a8ab91c" x="578.05801" y="179.256633" style="fill: #ed2136; stroke: #ed2136"/>
     <use xlink:href="#m832a8ab91c" x="587.990934" y="174.239102" style="fill: #ed2136; stroke: #ed2136"/>
     <use xlink:href="#m832a8ab91c" x="597.923857" y="169.22157" style="fill: #ed2136; stroke: #ed2136"/>
     <use xlink:href="#m832a8ab91c" x="607.856781" y="159.186507" style="fill: #ed2136; stroke: #ed2136"/>
     <use xlink:href="#m832a8ab91c" x="617.789705" y="166.211071" style="fill: #ed2136; stroke: #ed2136"/>
     <use xlink:href="#m832a8ab91c" x="627.722629" y="195.312755" style="fill: #ed2136; stroke: #ed2136"/>
     <use xlink:href="#m832a8ab91c" x="637.655553" y="174.239102" style="fill: #ed2136; stroke: #ed2136"/>
     <use xlink:href="#m832a8ab91c" x="647.588477" y="117.039261" style="fill: #ed2136; stroke: #ed2136"/>
     <use xlink:href="#m832a8ab91c" x="657.5214" y="43.783299" style="fill: #ed2136; stroke: #ed2136"/>
     <use xlink:href="#m832a8ab91c" x="667.454324" y="175.242628" style="fill: #ed2136; stroke: #ed2136"/>
     <use xlink:href="#m832a8ab91c" x="677.387248" y="33.748235" style="fill: #ed2136; stroke: #ed2136"/>
     <use xlink:href="#m832a8ab91c" x="687.320172" y="188.288211" style="fill: #ed2136; stroke: #ed2136"/>
     <use xlink:href="#m832a8ab91c" x="697.253096" y="143.130426" style="fill: #ed2136; stroke: #ed2136"/>
     <use xlink:href="#m832a8ab91c" x="707.18602" y="179.256633" style="fill: #ed2136; stroke: #ed2136"/>
     <use xlink:href="#m832a8ab91c" x="717.118943" y="125.067312" style="fill: #ed2136; stroke: #ed2136"/>
     <use xlink:href="#m832a8ab91c" x="727.051867" y="102.990172" style="fill: #ed2136; stroke: #ed2136"/>
     <use xlink:href="#m832a8ab91c" x="736.984791" y="42.779792" style="fill: #ed2136; stroke: #ed2136"/>
     <use xlink:href="#m832a8ab91c" x="746.917715" y="117.290137" style="fill: #ed2136; stroke: #ed2136"/>
     <use xlink:href="#m832a8ab91c" x="756.850639" y="60.090276" style="fill: #ed2136; stroke: #ed2136"/>
     <use xlink:href="#m832a8ab91c" x="766.783563" y="162.447922" style="fill: #ed2136; stroke: #ed2136"/>
     <use xlink:href="#m832a8ab91c" x="776.716486" y="220.65129" style="fill: #ed2136; stroke: #ed2136"/>
     <use xlink:href="#m832a8ab91c" x="786.64941" y="190.5461" style="fill: #ed2136; stroke: #ed2136"/>
     <use xlink:href="#m832a8ab91c" x="796.582334" y="97.220011" style="fill: #ed2136; stroke: #ed2136"/>
     <use xlink:href="#m832a8ab91c" x="806.515258" y="99.227023" style="fill: #ed2136; stroke: #ed2136"/>
     <use xlink:href="#m832a8ab91c" x="816.448182" y="117.290137" style="fill: #ed2136; stroke: #ed2136"/>
    </g>
   </g>
   <g id="matplotlib.axis_1">
    <g id="xtick_1">
     <g id="line2d_1">
      <path d="M 81.411818 246.04 
L 81.411818 13.12618 
" clip-path="url(#p97f501a173)" style="fill: none; stroke: #b0b0b0; stroke-width: 0.8; stroke-linecap: square"/>
     </g>
     <g id="line2d_2">
      <defs>
       <path id="mb058ce4746" d="M 0 0 
L 0 3.5 
" style="stroke: #000000; stroke-width: 0.8"/>
      </defs>
      <g>
       <use xlink:href="#mb058ce4746" x="81.411818" y="246.04" style="stroke: #000000; stroke-width: 0.8"/>
      </g>
     </g>
     <g id="text_1">
      <!-- 1950 -->
      <g transform="translate(68.686818 260.638438) scale(0.1 -0.1)">
       <defs>
        <path id="DejaVuSans-31" d="M 794 531 
L 1825 531 
L 1825 4091 
L 703 3866 
L 703 4441 
L 1819 4666 
L 2450 4666 
L 2450 531 
L 3481 531 
L 3481 0 
L 794 0 
L 794 531 
z
" transform="scale(0.015625)"/>
        <path id="DejaVuSans-39" d="M 703 97 
L 703 672 
Q 941 559 1184 500 
Q 1428 441 1663 441 
Q 2288 441 2617 861 
Q 2947 1281 2994 2138 
Q 2813 1869 2534 1725 
Q 2256 1581 1919 1581 
Q 1219 1581 811 2004 
Q 403 2428 403 3163 
Q 403 3881 828 4315 
Q 1253 4750 1959 4750 
Q 2769 4750 3195 4129 
Q 3622 3509 3622 2328 
Q 3622 1225 3098 567 
Q 2575 -91 1691 -91 
Q 1453 -91 1209 -44 
Q 966 3 703 97 
z
M 1959 2075 
Q 2384 2075 2632 2365 
Q 2881 2656 2881 3163 
Q 2881 3666 2632 3958 
Q 2384 4250 1959 4250 
Q 1534 4250 1286 3958 
Q 1038 3666 1038 3163 
Q 1038 2656 1286 2365 
Q 1534 2075 1959 2075 
z
" transform="scale(0.015625)"/>
        <path id="DejaVuSans-35" d="M 691 4666 
L 3169 4666 
L 3169 4134 
L 1269 4134 
L 1269 2991 
Q 1406 3038 1543 3061 
Q 1681 3084 1819 3084 
Q 2600 3084 3056 2656 
Q 3513 2228 3513 1497 
Q 3513 744 3044 326 
Q 2575 -91 1722 -91 
Q 1428 -91 1123 -41 
Q 819 9 494 109 
L 494 744 
Q 775 591 1075 516 
Q 1375 441 1709 441 
Q 2250 441 2565 725 
Q 2881 1009 2881 1497 
Q 2881 1984 2565 2268 
Q 2250 2553 1709 2553 
Q 1456 2553 1204 2497 
Q 953 2441 691 2322 
L 691 4666 
z
" transform="scale(0.015625)"/>
        <path id="DejaVuSans-30" d="M 2034 4250 
Q 1547 4250 1301 3770 
Q 1056 3291 1056 2328 
Q 1056 1369 1301 889 
Q 1547 409 2034 409 
Q 2525 409 2770 889 
Q 3016 1369 3016 2328 
Q 3016 3291 2770 3770 
Q 2525 4250 2034 4250 
z
M 2034 4750 
Q 2819 4750 3233 4129 
Q 3647 3509 3647 2328 
Q 3647 1150 3233 529 
Q 2819 -91 2034 -91 
Q 1250 -91 836 529 
Q 422 1150 422 2328 
Q 422 3509 836 4129 
Q 1250 4750 2034 4750 
z
" transform="scale(0.015625)"/>
       </defs>
       <use xlink:href="#DejaVuSans-31"/>
       <use xlink:href="#DejaVuSans-39" transform="translate(63.623047 0)"/>
       <use xlink:href="#DejaVuSans-35" transform="translate(127.246094 0)"/>
       <use xlink:href="#DejaVuSans-30" transform="translate(190.869141 0)"/>
      </g>
     </g>
    </g>
    <g id="xtick_2">
     <g id="line2d_3">
      <path d="M 131.076437 246.04 
L 131.076437 13.12618 
" clip-path="url(#p97f501a173)" style="fill: none; stroke: #b0b0b0; stroke-width: 0.8; stroke-linecap: square"/>
     </g>
     <g id="line2d_4">
      <g>
       <use xlink:href="#mb058ce4746" x="131.076437" y="246.04" style="stroke: #000000; stroke-width: 0.8"/>
      </g>
     </g>
     <g id="text_2">
      <!-- 1955 -->
      <g transform="translate(118.351437 260.638438) scale(0.1 -0.1)">
       <use xlink:href="#DejaVuSans-31"/>
       <use xlink:href="#DejaVuSans-39" transform="translate(63.623047 0)"/>
       <use xlink:href="#DejaVuSans-35" transform="translate(127.246094 0)"/>
       <use xlink:href="#DejaVuSans-35" transform="translate(190.869141 0)"/>
      </g>
     </g>
    </g>
    <g id="xtick_3">
     <g id="line2d_5">
      <path d="M 180.741057 246.04 
L 180.741057 13.12618 
" clip-path="url(#p97f501a173)" style="fill: none; stroke: #b0b0b0; stroke-width: 0.8; stroke-linecap: square"/>
     </g>
     <g id="line2d_6">
      <g>
       <use xlink:href="#mb058ce4746" x="180.741057" y="246.04" style="stroke: #000000; stroke-width: 0.8"/>
      </g>
     </g>
     <g id="text_3">
      <!-- 1960 -->
      <g transform="translate(168.016057 260.638438) scale(0.1 -0.1)">
       <defs>
        <path id="DejaVuSans-36" d="M 2113 2584 
Q 1688 2584 1439 2293 
Q 1191 2003 1191 1497 
Q 1191 994 1439 701 
Q 1688 409 2113 409 
Q 2538 409 2786 701 
Q 3034 994 3034 1497 
Q 3034 2003 2786 2293 
Q 2538 2584 2113 2584 
z
M 3366 4563 
L 3366 3988 
Q 3128 4100 2886 4159 
Q 2644 4219 2406 4219 
Q 1781 4219 1451 3797 
Q 1122 3375 1075 2522 
Q 1259 2794 1537 2939 
Q 1816 3084 2150 3084 
Q 2853 3084 3261 2657 
Q 3669 2231 3669 1497 
Q 3669 778 3244 343 
Q 2819 -91 2113 -91 
Q 1303 -91 875 529 
Q 447 1150 447 2328 
Q 447 3434 972 4092 
Q 1497 4750 2381 4750 
Q 2619 4750 2861 4703 
Q 3103 4656 3366 4563 
z
" transform="scale(0.015625)"/>
       </defs>
       <use xlink:href="#DejaVuSans-31"/>
       <use xlink:href="#DejaVuSans-39" transform="translate(63.623047 0)"/>
       <use xlink:href="#DejaVuSans-36" transform="translate(127.246094 0)"/>
       <use xlink:href="#DejaVuSans-30" transform="translate(190.869141 0)"/>
      </g>
     </g>
    </g>
    <g id="xtick_4">
     <g id="line2d_7">
      <path d="M 230.405676 246.04 
L 230.405676 13.12618 
" clip-path="url(#p97f501a173)" style="fill: none; stroke: #b0b0b0; stroke-width: 0.8; stroke-linecap: square"/>
     </g>
     <g id="line2d_8">
      <g>
       <use xlink:href="#mb058ce4746" x="230.405676" y="246.04" style="stroke: #000000; stroke-width: 0.8"/>
      </g>
     </g>
     <g id="text_4">
      <!-- 1965 -->
      <g transform="translate(217.680676 260.638438) scale(0.1 -0.1)">
       <use xlink:href="#DejaVuSans-31"/>
       <use xlink:href="#DejaVuSans-39" transform="translate(63.623047 0)"/>
       <use xlink:href="#DejaVuSans-36" transform="translate(127.246094 0)"/>
       <use xlink:href="#DejaVuSans-35" transform="translate(190.869141 0)"/>
      </g>
     </g>
    </g>
    <g id="xtick_5">
     <g id="line2d_9">
      <path d="M 280.070295 246.04 
L 280.070295 13.12618 
" clip-path="url(#p97f501a173)" style="fill: none; stroke: #b0b0b0; stroke-width: 0.8; stroke-linecap: square"/>
     </g>
     <g id="line2d_10">
      <g>
       <use xlink:href="#mb058ce4746" x="280.070295" y="246.04" style="stroke: #000000; stroke-width: 0.8"/>
      </g>
     </g>
     <g id="text_5">
      <!-- 1970 -->
      <g transform="translate(267.345295 260.638438) scale(0.1 -0.1)">
       <defs>
        <path id="DejaVuSans-37" d="M 525 4666 
L 3525 4666 
L 3525 4397 
L 1831 0 
L 1172 0 
L 2766 4134 
L 525 4134 
L 525 4666 
z
" transform="scale(0.015625)"/>
       </defs>
       <use xlink:href="#DejaVuSans-31"/>
       <use xlink:href="#DejaVuSans-39" transform="translate(63.623047 0)"/>
       <use xlink:href="#DejaVuSans-37" transform="translate(127.246094 0)"/>
       <use xlink:href="#DejaVuSans-30" transform="translate(190.869141 0)"/>
      </g>
     </g>
    </g>
    <g id="xtick_6">
     <g id="line2d_11">
      <path d="M 329.734914 246.04 
L 329.734914 13.12618 
" clip-path="url(#p97f501a173)" style="fill: none; stroke: #b0b0b0; stroke-width: 0.8; stroke-linecap: square"/>
     </g>
     <g id="line2d_12">
      <g>
       <use xlink:href="#mb058ce4746" x="329.734914" y="246.04" style="stroke: #000000; stroke-width: 0.8"/>
      </g>
     </g>
     <g id="text_6">
      <!-- 1975 -->
      <g transform="translate(317.009914 260.638438) scale(0.1 -0.1)">
       <use xlink:href="#DejaVuSans-31"/>
       <use xlink:href="#DejaVuSans-39" transform="translate(63.623047 0)"/>
       <use xlink:href="#DejaVuSans-37" transform="translate(127.246094 0)"/>
       <use xlink:href="#DejaVuSans-35" transform="translate(190.869141 0)"/>
      </g>
     </g>
    </g>
    <g id="xtick_7">
     <g id="line2d_13">
      <path d="M 379.399533 246.04 
L 379.399533 13.12618 
" clip-path="url(#p97f501a173)" style="fill: none; stroke: #b0b0b0; stroke-width: 0.8; stroke-linecap: square"/>
     </g>
     <g id="line2d_14">
      <g>
       <use xlink:href="#mb058ce4746" x="379.399533" y="246.04" style="stroke: #000000; stroke-width: 0.8"/>
      </g>
     </g>
     <g id="text_7">
      <!-- 1980 -->
      <g transform="translate(366.674533 260.638438) scale(0.1 -0.1)">
       <defs>
        <path id="DejaVuSans-38" d="M 2034 2216 
Q 1584 2216 1326 1975 
Q 1069 1734 1069 1313 
Q 1069 891 1326 650 
Q 1584 409 2034 409 
Q 2484 409 2743 651 
Q 3003 894 3003 1313 
Q 3003 1734 2745 1975 
Q 2488 2216 2034 2216 
z
M 1403 2484 
Q 997 2584 770 2862 
Q 544 3141 544 3541 
Q 544 4100 942 4425 
Q 1341 4750 2034 4750 
Q 2731 4750 3128 4425 
Q 3525 4100 3525 3541 
Q 3525 3141 3298 2862 
Q 3072 2584 2669 2484 
Q 3125 2378 3379 2068 
Q 3634 1759 3634 1313 
Q 3634 634 3220 271 
Q 2806 -91 2034 -91 
Q 1263 -91 848 271 
Q 434 634 434 1313 
Q 434 1759 690 2068 
Q 947 2378 1403 2484 
z
M 1172 3481 
Q 1172 3119 1398 2916 
Q 1625 2713 2034 2713 
Q 2441 2713 2670 2916 
Q 2900 3119 2900 3481 
Q 2900 3844 2670 4047 
Q 2441 4250 2034 4250 
Q 1625 4250 1398 4047 
Q 1172 3844 1172 3481 
z
" transform="scale(0.015625)"/>
       </defs>
       <use xlink:href="#DejaVuSans-31"/>
       <use xlink:href="#DejaVuSans-39" transform="translate(63.623047 0)"/>
       <use xlink:href="#DejaVuSans-38" transform="translate(127.246094 0)"/>
       <use xlink:href="#DejaVuSans-30" transform="translate(190.869141 0)"/>
      </g>
     </g>
    </g>
    <g id="xtick_8">
     <g id="line2d_15">
      <path d="M 429.064152 246.04 
L 429.064152 13.12618 
" clip-path="url(#p97f501a173)" style="fill: none; stroke: #b0b0b0; stroke-width: 0.8; stroke-linecap: square"/>
     </g>
     <g id="line2d_16">
      <g>
       <use xlink:href="#mb058ce4746" x="429.064152" y="246.04" style="stroke: #000000; stroke-width: 0.8"/>
      </g>
     </g>
     <g id="text_8">
      <!-- 1985 -->
      <g transform="translate(416.339152 260.638438) scale(0.1 -0.1)">
       <use xlink:href="#DejaVuSans-31"/>
       <use xlink:href="#DejaVuSans-39" transform="translate(63.623047 0)"/>
       <use xlink:href="#DejaVuSans-38" transform="translate(127.246094 0)"/>
       <use xlink:href="#DejaVuSans-35" transform="translate(190.869141 0)"/>
      </g>
     </g>
    </g>
    <g id="xtick_9">
     <g id="line2d_17">
      <path d="M 478.728771 246.04 
L 478.728771 13.12618 
" clip-path="url(#p97f501a173)" style="fill: none; stroke: #b0b0b0; stroke-width: 0.8; stroke-linecap: square"/>
     </g>
     <g id="line2d_18">
      <g>
       <use xlink:href="#mb058ce4746" x="478.728771" y="246.04" style="stroke: #000000; stroke-width: 0.8"/>
      </g>
     </g>
     <g id="text_9">
      <!-- 1990 -->
      <g transform="translate(466.003771 260.638438) scale(0.1 -0.1)">
       <use xlink:href="#DejaVuSans-31"/>
       <use xlink:href="#DejaVuSans-39" transform="translate(63.623047 0)"/>
       <use xlink:href="#DejaVuSans-39" transform="translate(127.246094 0)"/>
       <use xlink:href="#DejaVuSans-30" transform="translate(190.869141 0)"/>
      </g>
     </g>
    </g>
    <g id="xtick_10">
     <g id="line2d_19">
      <path d="M 528.393391 246.04 
L 528.393391 13.12618 
" clip-path="url(#p97f501a173)" style="fill: none; stroke: #b0b0b0; stroke-width: 0.8; stroke-linecap: square"/>
     </g>
     <g id="line2d_20">
      <g>
       <use xlink:href="#mb058ce4746" x="528.393391" y="246.04" style="stroke: #000000; stroke-width: 0.8"/>
      </g>
     </g>
     <g id="text_10">
      <!-- 1995 -->
      <g transform="translate(515.668391 260.638438) scale(0.1 -0.1)">
       <use xlink:href="#DejaVuSans-31"/>
       <use xlink:href="#DejaVuSans-39" transform="translate(63.623047 0)"/>
       <use xlink:href="#DejaVuSans-39" transform="translate(127.246094 0)"/>
       <use xlink:href="#DejaVuSans-35" transform="translate(190.869141 0)"/>
      </g>
     </g>
    </g>
    <g id="xtick_11">
     <g id="line2d_21">
      <path d="M 578.05801 246.04 
L 578.05801 13.12618 
" clip-path="url(#p97f501a173)" style="fill: none; stroke: #b0b0b0; stroke-width: 0.8; stroke-linecap: square"/>
     </g>
     <g id="line2d_22">
      <g>
       <use xlink:href="#mb058ce4746" x="578.05801" y="246.04" style="stroke: #000000; stroke-width: 0.8"/>
      </g>
     </g>
     <g id="text_11">
      <!-- 2000 -->
      <g transform="translate(565.33301 260.638438) scale(0.1 -0.1)">
       <defs>
        <path id="DejaVuSans-32" d="M 1228 531 
L 3431 531 
L 3431 0 
L 469 0 
L 469 531 
Q 828 903 1448 1529 
Q 2069 2156 2228 2338 
Q 2531 2678 2651 2914 
Q 2772 3150 2772 3378 
Q 2772 3750 2511 3984 
Q 2250 4219 1831 4219 
Q 1534 4219 1204 4116 
Q 875 4013 500 3803 
L 500 4441 
Q 881 4594 1212 4672 
Q 1544 4750 1819 4750 
Q 2544 4750 2975 4387 
Q 3406 4025 3406 3419 
Q 3406 3131 3298 2873 
Q 3191 2616 2906 2266 
Q 2828 2175 2409 1742 
Q 1991 1309 1228 531 
z
" transform="scale(0.015625)"/>
       </defs>
       <use xlink:href="#DejaVuSans-32"/>
       <use xlink:href="#DejaVuSans-30" transform="translate(63.623047 0)"/>
       <use xlink:href="#DejaVuSans-30" transform="translate(127.246094 0)"/>
       <use xlink:href="#DejaVuSans-30" transform="translate(190.869141 0)"/>
      </g>
     </g>
    </g>
    <g id="xtick_12">
     <g id="line2d_23">
      <path d="M 627.722629 246.04 
L 627.722629 13.12618 
" clip-path="url(#p97f501a173)" style="fill: none; stroke: #b0b0b0; stroke-width: 0.8; stroke-linecap: square"/>
     </g>
     <g id="line2d_24">
      <g>
       <use xlink:href="#mb058ce4746" x="627.722629" y="246.04" style="stroke: #000000; stroke-width: 0.8"/>
      </g>
     </g>
     <g id="text_12">
      <!-- 2005 -->
      <g transform="translate(614.997629 260.638438) scale(0.1 -0.1)">
       <use xlink:href="#DejaVuSans-32"/>
       <use xlink:href="#DejaVuSans-30" transform="translate(63.623047 0)"/>
       <use xlink:href="#DejaVuSans-30" transform="translate(127.246094 0)"/>
       <use xlink:href="#DejaVuSans-35" transform="translate(190.869141 0)"/>
      </g>
     </g>
    </g>
    <g id="xtick_13">
     <g id="line2d_25">
      <path d="M 677.387248 246.04 
L 677.387248 13.12618 
" clip-path="url(#p97f501a173)" style="fill: none; stroke: #b0b0b0; stroke-width: 0.8; stroke-linecap: square"/>
     </g>
     <g id="line2d_26">
      <g>
       <use xlink:href="#mb058ce4746" x="677.387248" y="246.04" style="stroke: #000000; stroke-width: 0.8"/>
      </g>
     </g>
     <g id="text_13">
      <!-- 2010 -->
      <g transform="translate(664.662248 260.638438) scale(0.1 -0.1)">
       <use xlink:href="#DejaVuSans-32"/>
       <use xlink:href="#DejaVuSans-30" transform="translate(63.623047 0)"/>
       <use xlink:href="#DejaVuSans-31" transform="translate(127.246094 0)"/>
       <use xlink:href="#DejaVuSans-30" transform="translate(190.869141 0)"/>
      </g>
     </g>
    </g>
    <g id="xtick_14">
     <g id="line2d_27">
      <path d="M 727.051867 246.04 
L 727.051867 13.12618 
" clip-path="url(#p97f501a173)" style="fill: none; stroke: #b0b0b0; stroke-width: 0.8; stroke-linecap: square"/>
     </g>
     <g id="line2d_28">
      <g>
       <use xlink:href="#mb058ce4746" x="727.051867" y="246.04" style="stroke: #000000; stroke-width: 0.8"/>
      </g>
     </g>
     <g id="text_14">
      <!-- 2015 -->
      <g transform="translate(714.326867 260.638438) scale(0.1 -0.1)">
       <use xlink:href="#DejaVuSans-32"/>
       <use xlink:href="#DejaVuSans-30" transform="translate(63.623047 0)"/>
       <use xlink:href="#DejaVuSans-31" transform="translate(127.246094 0)"/>
       <use xlink:href="#DejaVuSans-35" transform="translate(190.869141 0)"/>
      </g>
     </g>
    </g>
    <g id="xtick_15">
     <g id="line2d_29">
      <path d="M 776.716486 246.04 
L 776.716486 13.12618 
" clip-path="url(#p97f501a173)" style="fill: none; stroke: #b0b0b0; stroke-width: 0.8; stroke-linecap: square"/>
     </g>
     <g id="line2d_30">
      <g>
       <use xlink:href="#mb058ce4746" x="776.716486" y="246.04" style="stroke: #000000; stroke-width: 0.8"/>
      </g>
     </g>
     <g id="text_15">
      <!-- 2020 -->
      <g transform="translate(763.991486 260.638438) scale(0.1 -0.1)">
       <use xlink:href="#DejaVuSans-32"/>
       <use xlink:href="#DejaVuSans-30" transform="translate(63.623047 0)"/>
       <use xlink:href="#DejaVuSans-32" transform="translate(127.246094 0)"/>
       <use xlink:href="#DejaVuSans-30" transform="translate(190.869141 0)"/>
      </g>
     </g>
    </g>
    <g id="text_16">
     <!-- Year -->
     <g transform="translate(438.3425 274.316562) scale(0.1 -0.1)">
      <defs>
       <path id="DejaVuSans-59" d="M -13 4666 
L 666 4666 
L 1959 2747 
L 3244 4666 
L 3922 4666 
L 2272 2222 
L 2272 0 
L 1638 0 
L 1638 2222 
L -13 4666 
z
" transform="scale(0.015625)"/>
       <path id="DejaVuSans-65" d="M 3597 1894 
L 3597 1613 
L 953 1613 
Q 991 1019 1311 708 
Q 1631 397 2203 397 
Q 2534 397 2845 478 
Q 3156 559 3463 722 
L 3463 178 
Q 3153 47 2828 -22 
Q 2503 -91 2169 -91 
Q 1331 -91 842 396 
Q 353 884 353 1716 
Q 353 2575 817 3079 
Q 1281 3584 2069 3584 
Q 2775 3584 3186 3129 
Q 3597 2675 3597 1894 
z
M 3022 2063 
Q 3016 2534 2758 2815 
Q 2500 3097 2075 3097 
Q 1594 3097 1305 2825 
Q 1016 2553 972 2059 
L 3022 2063 
z
" transform="scale(0.015625)"/>
       <path id="DejaVuSans-61" d="M 2194 1759 
Q 1497 1759 1228 1600 
Q 959 1441 959 1056 
Q 959 750 1161 570 
Q 1363 391 1709 391 
Q 2188 391 2477 730 
Q 2766 1069 2766 1631 
L 2766 1759 
L 2194 1759 
z
M 3341 1997 
L 3341 0 
L 2766 0 
L 2766 531 
Q 2569 213 2275 61 
Q 1981 -91 1556 -91 
Q 1019 -91 701 211 
Q 384 513 384 1019 
Q 384 1609 779 1909 
Q 1175 2209 1959 2209 
L 2766 2209 
L 2766 2266 
Q 2766 2663 2505 2880 
Q 2244 3097 1772 3097 
Q 1472 3097 1187 3025 
Q 903 2953 641 2809 
L 641 3341 
Q 956 3463 1253 3523 
Q 1550 3584 1831 3584 
Q 2591 3584 2966 3190 
Q 3341 2797 3341 1997 
z
" transform="scale(0.015625)"/>
       <path id="DejaVuSans-72" d="M 2631 2963 
Q 2534 3019 2420 3045 
Q 2306 3072 2169 3072 
Q 1681 3072 1420 2755 
Q 1159 2438 1159 1844 
L 1159 0 
L 581 0 
L 581 3500 
L 1159 3500 
L 1159 2956 
Q 1341 3275 1631 3429 
Q 1922 3584 2338 3584 
Q 2397 3584 2469 3576 
Q 2541 3569 2628 3553 
L 2631 2963 
z
" transform="scale(0.015625)"/>
      </defs>
      <use xlink:href="#DejaVuSans-59"/>
      <use xlink:href="#DejaVuSans-65" transform="translate(47.833984 0)"/>
      <use xlink:href="#DejaVuSans-61" transform="translate(109.357422 0)"/>
      <use xlink:href="#DejaVuSans-72" transform="translate(170.636719 0)"/>
     </g>
    </g>
   </g>
   <g id="matplotlib.axis_2">
    <g id="ytick_1">
     <g id="line2d_31">
      <defs>
       <path id="maa19e3efc3" d="M 0 0 
L -3.5 0 
" style="stroke: #000000; stroke-width: 0.8"/>
      </defs>
      <g>
       <use xlink:href="#maa19e3efc3" x="44.66" y="215.543443" style="stroke: #000000; stroke-width: 0.8"/>
      </g>
     </g>
     <g id="text_17">
      <!-- 12 -->
      <g transform="translate(24.935 219.342661) scale(0.1 -0.1)">
       <use xlink:href="#DejaVuSans-31"/>
       <use xlink:href="#DejaVuSans-32" transform="translate(63.623047 0)"/>
      </g>
     </g>
    </g>
    <g id="ytick_2">
     <g id="line2d_32">
      <g>
       <use xlink:href="#maa19e3efc3" x="44.66" y="175.403189" style="stroke: #000000; stroke-width: 0.8"/>
      </g>
     </g>
     <g id="text_18">
      <!-- 14 -->
      <g transform="translate(24.935 179.202408) scale(0.1 -0.1)">
       <defs>
        <path id="DejaVuSans-34" d="M 2419 4116 
L 825 1625 
L 2419 1625 
L 2419 4116 
z
M 2253 4666 
L 3047 4666 
L 3047 1625 
L 3713 1625 
L 3713 1100 
L 3047 1100 
L 3047 0 
L 2419 0 
L 2419 1100 
L 313 1100 
L 313 1709 
L 2253 4666 
z
" transform="scale(0.015625)"/>
       </defs>
       <use xlink:href="#DejaVuSans-31"/>
       <use xlink:href="#DejaVuSans-34" transform="translate(63.623047 0)"/>
      </g>
     </g>
    </g>
    <g id="ytick_3">
     <g id="line2d_33">
      <g>
       <use xlink:href="#maa19e3efc3" x="44.66" y="135.262936" style="stroke: #000000; stroke-width: 0.8"/>
      </g>
     </g>
     <g id="text_19">
      <!-- 16 -->
      <g transform="translate(24.935 139.062155) scale(0.1 -0.1)">
       <use xlink:href="#DejaVuSans-31"/>
       <use xlink:href="#DejaVuSans-36" transform="translate(63.623047 0)"/>
      </g>
     </g>
    </g>
    <g id="ytick_4">
     <g id="line2d_34">
      <g>
       <use xlink:href="#maa19e3efc3" x="44.66" y="95.122683" style="stroke: #000000; stroke-width: 0.8"/>
      </g>
     </g>
     <g id="text_20">
      <!-- 18 -->
      <g transform="translate(24.935 98.921901) scale(0.1 -0.1)">
       <use xlink:href="#DejaVuSans-31"/>
       <use xlink:href="#DejaVuSans-38" transform="translate(63.623047 0)"/>
      </g>
     </g>
    </g>
    <g id="ytick_5">
     <g id="line2d_35">
      <g>
       <use xlink:href="#maa19e3efc3" x="44.66" y="54.982429" style="stroke: #000000; stroke-width: 0.8"/>
      </g>
     </g>
     <g id="text_21">
      <!-- 20 -->
      <g transform="translate(24.935 58.781648) scale(0.1 -0.1)">
       <use xlink:href="#DejaVuSans-32"/>
       <use xlink:href="#DejaVuSans-30" transform="translate(63.623047 0)"/>
      </g>
     </g>
    </g>
    <g id="ytick_6">
     <g id="line2d_36">
      <g>
       <use xlink:href="#maa19e3efc3" x="44.66" y="14.842176" style="stroke: #000000; stroke-width: 0.8"/>
      </g>
     </g>
     <g id="text_22">
      <!-- 22 -->
      <g transform="translate(24.935 18.641395) scale(0.1 -0.1)">
       <use xlink:href="#DejaVuSans-32"/>
       <use xlink:href="#DejaVuSans-32" transform="translate(63.623047 0)"/>
      </g>
     </g>
    </g>
    <g id="text_23">
     <!-- Temperature 2m -->
     <g transform="translate(18.855313 170.893246) rotate(-90) scale(0.1 -0.1)">
      <defs>
       <path id="DejaVuSans-54" d="M -19 4666 
L 3928 4666 
L 3928 4134 
L 2272 4134 
L 2272 0 
L 1638 0 
L 1638 4134 
L -19 4134 
L -19 4666 
z
" transform="scale(0.015625)"/>
       <path id="DejaVuSans-6d" d="M 3328 2828 
Q 3544 3216 3844 3400 
Q 4144 3584 4550 3584 
Q 5097 3584 5394 3201 
Q 5691 2819 5691 2113 
L 5691 0 
L 5113 0 
L 5113 2094 
Q 5113 2597 4934 2840 
Q 4756 3084 4391 3084 
Q 3944 3084 3684 2787 
Q 3425 2491 3425 1978 
L 3425 0 
L 2847 0 
L 2847 2094 
Q 2847 2600 2669 2842 
Q 2491 3084 2119 3084 
Q 1678 3084 1418 2786 
Q 1159 2488 1159 1978 
L 1159 0 
L 581 0 
L 581 3500 
L 1159 3500 
L 1159 2956 
Q 1356 3278 1631 3431 
Q 1906 3584 2284 3584 
Q 2666 3584 2933 3390 
Q 3200 3197 3328 2828 
z
" transform="scale(0.015625)"/>
       <path id="DejaVuSans-70" d="M 1159 525 
L 1159 -1331 
L 581 -1331 
L 581 3500 
L 1159 3500 
L 1159 2969 
Q 1341 3281 1617 3432 
Q 1894 3584 2278 3584 
Q 2916 3584 3314 3078 
Q 3713 2572 3713 1747 
Q 3713 922 3314 415 
Q 2916 -91 2278 -91 
Q 1894 -91 1617 61 
Q 1341 213 1159 525 
z
M 3116 1747 
Q 3116 2381 2855 2742 
Q 2594 3103 2138 3103 
Q 1681 3103 1420 2742 
Q 1159 2381 1159 1747 
Q 1159 1113 1420 752 
Q 1681 391 2138 391 
Q 2594 391 2855 752 
Q 3116 1113 3116 1747 
z
" transform="scale(0.015625)"/>
       <path id="DejaVuSans-74" d="M 1172 4494 
L 1172 3500 
L 2356 3500 
L 2356 3053 
L 1172 3053 
L 1172 1153 
Q 1172 725 1289 603 
Q 1406 481 1766 481 
L 2356 481 
L 2356 0 
L 1766 0 
Q 1100 0 847 248 
Q 594 497 594 1153 
L 594 3053 
L 172 3053 
L 172 3500 
L 594 3500 
L 594 4494 
L 1172 4494 
z
" transform="scale(0.015625)"/>
       <path id="DejaVuSans-75" d="M 544 1381 
L 544 3500 
L 1119 3500 
L 1119 1403 
Q 1119 906 1312 657 
Q 1506 409 1894 409 
Q 2359 409 2629 706 
Q 2900 1003 2900 1516 
L 2900 3500 
L 3475 3500 
L 3475 0 
L 2900 0 
L 2900 538 
Q 2691 219 2414 64 
Q 2138 -91 1772 -91 
Q 1169 -91 856 284 
Q 544 659 544 1381 
z
M 1991 3584 
L 1991 3584 
z
" transform="scale(0.015625)"/>
       <path id="DejaVuSans-20" transform="scale(0.015625)"/>
      </defs>
      <use xlink:href="#DejaVuSans-54"/>
      <use xlink:href="#DejaVuSans-65" transform="translate(44.083984 0)"/>
      <use xlink:href="#DejaVuSans-6d" transform="translate(105.607422 0)"/>
      <use xlink:href="#DejaVuSans-70" transform="translate(203.019531 0)"/>
      <use xlink:href="#DejaVuSans-65" transform="translate(266.496094 0)"/>
      <use xlink:href="#DejaVuSans-72" transform="translate(328.019531 0)"/>
      <use xlink:href="#DejaVuSans-61" transform="translate(369.132812 0)"/>
      <use xlink:href="#DejaVuSans-74" transform="translate(430.412109 0)"/>
      <use xlink:href="#DejaVuSans-75" transform="translate(469.621094 0)"/>
      <use xlink:href="#DejaVuSans-72" transform="translate(533 0)"/>
      <use xlink:href="#DejaVuSans-65" transform="translate(571.863281 0)"/>
      <use xlink:href="#DejaVuSans-20" transform="translate(633.386719 0)"/>
      <use xlink:href="#DejaVuSans-32" transform="translate(665.173828 0)"/>
      <use xlink:href="#DejaVuSans-6d" transform="translate(728.796875 0)"/>
     </g>
    </g>
   </g>
   <g id="line2d_37">
    <path d="M 81.411818 165.179746 
L 91.344742 164.935678 
L 101.277666 164.691611 
L 111.21059 164.447543 
L 121.143514 164.203475 
L 131.076437 163.959408 
L 141.009361 163.71534 
L 150.942285 163.471273 
L 160.875209 163.227205 
L 170.808133 162.983137 
L 180.741057 162.73907 
L 190.67398 162.495002 
L 200.606904 162.250935 
L 210.539828 162.006867 
L 220.472752 161.762799 
L 230.405676 161.518732 
L 240.3386 161.274664 
L 250.271523 161.030597 
L 260.204447 160.786529 
L 270.137371 160.542462 
L 280.070295 160.298394 
L 290.003219 160.054326 
L 299.936143 159.810259 
L 309.869066 159.566191 
L 319.80199 159.322124 
L 329.734914 159.078056 
L 339.667838 158.833988 
L 349.600762 158.589921 
L 359.533686 158.345853 
L 369.466609 158.101786 
L 379.399533 157.857718 
L 389.332457 157.61365 
L 399.265381 157.369583 
L 409.198305 157.125515 
L 419.131229 156.881448 
L 429.064152 156.63738 
L 438.997076 156.393312 
L 448.93 156.149245 
L 458.862924 155.905177 
L 468.795848 155.66111 
L 478.728771 155.417042 
L 488.661695 155.172974 
L 498.594619 154.928907 
L 508.527543 154.684839 
L 518.460467 154.440772 
L 528.393391 154.196704 
L 538.326314 153.952636 
L 548.259238 153.708569 
L 558.192162 153.464501 
L 568.125086 153.220434 
L 578.05801 152.976366 
L 587.990934 152.732298 
L 597.923857 152.488231 
L 607.856781 152.244163 
L 617.789705 152.000096 
L 627.722629 151.756028 
L 637.655553 151.51196 
L 647.588477 151.267893 
L 657.5214 151.023825 
L 667.454324 150.779758 
L 677.387248 150.53569 
L 687.320172 150.291622 
L 697.253096 150.047555 
L 707.18602 149.803487 
L 717.118943 149.55942 
L 727.051867 149.315352 
L 736.984791 149.071284 
L 746.917715 148.827217 
L 756.850639 148.583149 
L 766.783563 148.339082 
L 776.716486 148.095014 
L 786.64941 147.850946 
L 796.582334 147.606879 
L 806.515258 147.362811 
L 816.448182 147.118744 
" clip-path="url(#p97f501a173)" style="fill: none; stroke: #f9a353; stroke-width: 1.5; stroke-linecap: square"/>
   </g>
   <g id="line2d_38">
    <path d="M 44.66 156.149245 
L 853.2 156.149245 
" clip-path="url(#p97f501a173)" style="fill: none; stroke-dasharray: 1.5,2.475; stroke-dashoffset: 0; stroke: #808080; stroke-width: 1.5"/>
   </g>
   <g id="patch_3">
    <path d="M 44.66 246.04 
L 44.66 13.12618 
" style="fill: none; stroke: #000000; stroke-width: 0.8; stroke-linejoin: miter; stroke-linecap: square"/>
   </g>
   <g id="patch_4">
    <path d="M 44.66 246.04 
L 853.2 246.04 
" style="fill: none; stroke: #000000; stroke-width: 0.8; stroke-linejoin: miter; stroke-linecap: square"/>
   </g>
   <g id="legend_1">
    <g id="patch_5">
     <path d="M 51.66 50.48243 
L 164.335 50.48243 
Q 166.335 50.48243 166.335 48.48243 
L 166.335 20.12618 
Q 166.335 18.12618 164.335 18.12618 
L 51.66 18.12618 
Q 49.66 18.12618 49.66 20.12618 
L 49.66 48.48243 
Q 49.66 50.48243 51.66 50.48243 
z
" style="fill: #ffffff; opacity: 0.8; stroke: #cccccc; stroke-linejoin: miter"/>
    </g>
    <g id="line2d_39">
     <path d="M 53.66 26.224618 
L 63.66 26.224618 
L 73.66 26.224618 
" style="fill: none; stroke: #f9a353; stroke-width: 1.5; stroke-linecap: square"/>
    </g>
    <g id="text_24">
     <!-- Trend -->
     <g transform="translate(81.66 29.724618) scale(0.1 -0.1)">
      <defs>
       <path id="DejaVuSans-6e" d="M 3513 2113 
L 3513 0 
L 2938 0 
L 2938 2094 
Q 2938 2591 2744 2837 
Q 2550 3084 2163 3084 
Q 1697 3084 1428 2787 
Q 1159 2491 1159 1978 
L 1159 0 
L 581 0 
L 581 3500 
L 1159 3500 
L 1159 2956 
Q 1366 3272 1645 3428 
Q 1925 3584 2291 3584 
Q 2894 3584 3203 3211 
Q 3513 2838 3513 2113 
z
" transform="scale(0.015625)"/>
       <path id="DejaVuSans-64" d="M 2906 2969 
L 2906 4863 
L 3481 4863 
L 3481 0 
L 2906 0 
L 2906 525 
Q 2725 213 2448 61 
Q 2172 -91 1784 -91 
Q 1150 -91 751 415 
Q 353 922 353 1747 
Q 353 2572 751 3078 
Q 1150 3584 1784 3584 
Q 2172 3584 2448 3432 
Q 2725 3281 2906 2969 
z
M 947 1747 
Q 947 1113 1208 752 
Q 1469 391 1925 391 
Q 2381 391 2643 752 
Q 2906 1113 2906 1747 
Q 2906 2381 2643 2742 
Q 2381 3103 1925 3103 
Q 1469 3103 1208 2742 
Q 947 2381 947 1747 
z
" transform="scale(0.015625)"/>
      </defs>
      <use xlink:href="#DejaVuSans-54"/>
      <use xlink:href="#DejaVuSans-72" transform="translate(46.333984 0)"/>
      <use xlink:href="#DejaVuSans-65" transform="translate(85.197266 0)"/>
      <use xlink:href="#DejaVuSans-6e" transform="translate(146.720703 0)"/>
      <use xlink:href="#DejaVuSans-64" transform="translate(210.099609 0)"/>
     </g>
    </g>
    <g id="line2d_40">
     <path d="M 53.66 40.902743 
L 63.66 40.902743 
L 73.66 40.902743 
" style="fill: none; stroke-dasharray: 1.5,2.475; stroke-dashoffset: 0; stroke: #808080; stroke-width: 1.5"/>
    </g>
    <g id="text_25">
     <!-- Average (14.96) -->
     <g transform="translate(81.66 44.402743) scale(0.1 -0.1)">
      <defs>
       <path id="DejaVuSans-41" d="M 2188 4044 
L 1331 1722 
L 3047 1722 
L 2188 4044 
z
M 1831 4666 
L 2547 4666 
L 4325 0 
L 3669 0 
L 3244 1197 
L 1141 1197 
L 716 0 
L 50 0 
L 1831 4666 
z
" transform="scale(0.015625)"/>
       <path id="DejaVuSans-76" d="M 191 3500 
L 800 3500 
L 1894 563 
L 2988 3500 
L 3597 3500 
L 2284 0 
L 1503 0 
L 191 3500 
z
" transform="scale(0.015625)"/>
       <path id="DejaVuSans-67" d="M 2906 1791 
Q 2906 2416 2648 2759 
Q 2391 3103 1925 3103 
Q 1463 3103 1205 2759 
Q 947 2416 947 1791 
Q 947 1169 1205 825 
Q 1463 481 1925 481 
Q 2391 481 2648 825 
Q 2906 1169 2906 1791 
z
M 3481 434 
Q 3481 -459 3084 -895 
Q 2688 -1331 1869 -1331 
Q 1566 -1331 1297 -1286 
Q 1028 -1241 775 -1147 
L 775 -588 
Q 1028 -725 1275 -790 
Q 1522 -856 1778 -856 
Q 2344 -856 2625 -561 
Q 2906 -266 2906 331 
L 2906 616 
Q 2728 306 2450 153 
Q 2172 0 1784 0 
Q 1141 0 747 490 
Q 353 981 353 1791 
Q 353 2603 747 3093 
Q 1141 3584 1784 3584 
Q 2172 3584 2450 3431 
Q 2728 3278 2906 2969 
L 2906 3500 
L 3481 3500 
L 3481 434 
z
" transform="scale(0.015625)"/>
       <path id="DejaVuSans-28" d="M 1984 4856 
Q 1566 4138 1362 3434 
Q 1159 2731 1159 2009 
Q 1159 1288 1364 580 
Q 1569 -128 1984 -844 
L 1484 -844 
Q 1016 -109 783 600 
Q 550 1309 550 2009 
Q 550 2706 781 3412 
Q 1013 4119 1484 4856 
L 1984 4856 
z
" transform="scale(0.015625)"/>
       <path id="DejaVuSans-2e" d="M 684 794 
L 1344 794 
L 1344 0 
L 684 0 
L 684 794 
z
" transform="scale(0.015625)"/>
       <path id="DejaVuSans-29" d="M 513 4856 
L 1013 4856 
Q 1481 4119 1714 3412 
Q 1947 2706 1947 2009 
Q 1947 1309 1714 600 
Q 1481 -109 1013 -844 
L 513 -844 
Q 928 -128 1133 580 
Q 1338 1288 1338 2009 
Q 1338 2731 1133 3434 
Q 928 4138 513 4856 
z
" transform="scale(0.015625)"/>
      </defs>
      <use xlink:href="#DejaVuSans-41"/>
      <use xlink:href="#DejaVuSans-76" transform="translate(62.533203 0)"/>
      <use xlink:href="#DejaVuSans-65" transform="translate(121.712891 0)"/>
      <use xlink:href="#DejaVuSans-72" transform="translate(183.236328 0)"/>
      <use xlink:href="#DejaVuSans-61" transform="translate(224.349609 0)"/>
      <use xlink:href="#DejaVuSans-67" transform="translate(285.628906 0)"/>
      <use xlink:href="#DejaVuSans-65" transform="translate(349.105469 0)"/>
      <use xlink:href="#DejaVuSans-20" transform="translate(410.628906 0)"/>
      <use xlink:href="#DejaVuSans-28" transform="translate(442.416016 0)"/>
      <use xlink:href="#DejaVuSans-31" transform="translate(481.429688 0)"/>
      <use xlink:href="#DejaVuSans-34" transform="translate(545.052734 0)"/>
      <use xlink:href="#DejaVuSans-2e" transform="translate(608.675781 0)"/>
      <use xlink:href="#DejaVuSans-39" transform="translate(640.462891 0)"/>
      <use xlink:href="#DejaVuSans-36" transform="translate(704.085938 0)"/>
      <use xlink:href="#DejaVuSans-29" transform="translate(767.708984 0)"/>
     </g>
    </g>
   </g>
  </g>
 </g>
 <defs>
  <clipPath id="p97f501a173">
   <rect x="44.66" y="13.12618" width="808.54" height="232.91382"/>
  </clipPath>
 </defs>
</svg>
