<?xml version="1.0" encoding="utf-8" standalone="no"?>
<!DOCTYPE svg PUBLIC "-//W3C//DTD SVG 1.1//EN"
  "http://www.w3.org/Graphics/SVG/1.1/DTD/svg11.dtd">
<svg xmlns:xlink="http://www.w3.org/1999/xlink" width="864pt" height="288pt" viewBox="0 0 864 288" xmlns="http://www.w3.org/2000/svg" version="1.1">
 <metadata>
  <rdf:RDF xmlns:dc="http://purl.org/dc/elements/1.1/" xmlns:cc="http://creativecommons.org/ns#" xmlns:rdf="http://www.w3.org/1999/02/22-rdf-syntax-ns#">
   <cc:Work>
    <dc:type rdf:resource="http://purl.org/dc/dcmitype/StillImage"/>
    <dc:date>2025-12-03T00:29:39.816786</dc:date>
    <dc:format>image/svg+xml</dc:format>
    <dc:creator>
     <cc:Agent>
      <dc:title>Matplotlib v3.10.0, https://matplotlib.org/</dc:title>
     </cc:Agent>
    </dc:creator>
   </cc:Work>
  </rdf:RDF>
 </metadata>
 <defs>
  <style type="text/css">*{stroke-linejoin: round; stroke-linecap: butt}</style>
 </defs>
 <g id="figure_1">
  <g id="patch_1">
   <path d="M 0 288 
L 864 288 
L 864 0 
L 0 0 
z
" style="fill: #ffffff"/>
  </g>
  <g id="axes_1">
   <g id="patch_2">
    <path d="M 54.2 246.04 
L 853.2 246.04 
L 853.2 11.335143 
L 54.2 11.335143 
z
" style="fill: #ffffff"/>
   </g>
   <g id="PathCollection_1">
    <defs>
     <path id="m0fa3661005" d="M 0 3 
C 0.795609 3 1.55874 2.683901 2.12132 2.12132 
C 2.683901 1.55874 3 0.795609 3 0 
C 3 -0.795609 2.683901 -1.55874 2.12132 -2.12132 
C 1.55874 -2.683901 0.795609 -3 0 -3 
C -0.795609 -3 -1.55874 -2.683901 -2.12132 -2.12132 
C -2.683901 -1.55874 -3 -0.795609 -3 0 
C -3 0.795609 -2.683901 1.55874 -2.12132 2.12132 
C -1.55874 2.683901 -0.795609 3 0 3 
z
" style="stroke: #9fb3b1"/>
    </defs>
    <g clip-path="url(#ped404bfbd8)">
     <use xlink:href="#m0fa3661005" x="90.518182" y="175.320051" style="fill: #9fb3b1; stroke: #9fb3b1"/>
     <use xlink:href="#m0fa3661005" x="100.333907" y="227.570977" style="fill: #9fb3b1; stroke: #9fb3b1"/>
     <use xlink:href="#m0fa3661005" x="110.149631" y="139.223606" style="fill: #9fb3b1; stroke: #9fb3b1"/>
     <use xlink:href="#m0fa3661005" x="119.965356" y="145.317952" style="fill: #9fb3b1; stroke: #9fb3b1"/>
     <use xlink:href="#m0fa3661005" x="129.781081" y="229.710439" style="fill: #9fb3b1; stroke: #9fb3b1"/>
     <use xlink:href="#m0fa3661005" x="139.596806" y="138.335575" style="fill: #9fb3b1; stroke: #9fb3b1"/>
     <use xlink:href="#m0fa3661005" x="149.412531" y="232.213662" style="fill: #9fb3b1; stroke: #9fb3b1"/>
     <use xlink:href="#m0fa3661005" x="159.228256" y="163.083911" style="fill: #9fb3b1; stroke: #9fb3b1"/>
     <use xlink:href="#m0fa3661005" x="169.04398" y="222.353888" style="fill: #9fb3b1; stroke: #9fb3b1"/>
     <use xlink:href="#m0fa3661005" x="178.859705" y="192.000456" style="fill: #9fb3b1; stroke: #9fb3b1"/>
     <use xlink:href="#m0fa3661005" x="188.67543" y="198.397837" style="fill: #9fb3b1; stroke: #9fb3b1"/>
     <use xlink:href="#m0fa3661005" x="198.491155" y="177.831582" style="fill: #9fb3b1; stroke: #9fb3b1"/>
     <use xlink:href="#m0fa3661005" x="208.30688" y="128.795059" style="fill: #9fb3b1; stroke: #9fb3b1"/>
     <use xlink:href="#m0fa3661005" x="218.122604" y="194.325287" style="fill: #9fb3b1; stroke: #9fb3b1"/>
     <use xlink:href="#m0fa3661005" x="227.938329" y="107.201426" style="fill: #9fb3b1; stroke: #9fb3b1"/>
     <use xlink:href="#m0fa3661005" x="237.754054" y="214.520579" style="fill: #9fb3b1; stroke: #9fb3b1"/>
     <use xlink:href="#m0fa3661005" x="247.569779" y="197.482558" style="fill: #9fb3b1; stroke: #9fb3b1"/>
     <use xlink:href="#m0fa3661005" x="257.385504" y="235.371597" style="fill: #9fb3b1; stroke: #9fb3b1"/>
     <use xlink:href="#m0fa3661005" x="267.201229" y="209.295902" style="fill: #9fb3b1; stroke: #9fb3b1"/>
     <use xlink:href="#m0fa3661005" x="277.016953" y="196.407156" style="fill: #9fb3b1; stroke: #9fb3b1"/>
     <use xlink:href="#m0fa3661005" x="286.832678" y="166.948134" style="fill: #9fb3b1; stroke: #9fb3b1"/>
     <use xlink:href="#m0fa3661005" x="296.648403" y="191.676668" style="fill: #9fb3b1; stroke: #9fb3b1"/>
     <use xlink:href="#m0fa3661005" x="306.464128" y="160.301892" style="fill: #9fb3b1; stroke: #9fb3b1"/>
     <use xlink:href="#m0fa3661005" x="316.279853" y="206.503358" style="fill: #9fb3b1; stroke: #9fb3b1"/>
     <use xlink:href="#m0fa3661005" x="326.095577" y="148.199274" style="fill: #9fb3b1; stroke: #9fb3b1"/>
     <use xlink:href="#m0fa3661005" x="335.911302" y="188.389391" style="fill: #9fb3b1; stroke: #9fb3b1"/>
     <use xlink:href="#m0fa3661005" x="345.727027" y="219.470162" style="fill: #9fb3b1; stroke: #9fb3b1"/>
     <use xlink:href="#m0fa3661005" x="355.542752" y="198.955813" style="fill: #9fb3b1; stroke: #9fb3b1"/>
     <use xlink:href="#m0fa3661005" x="365.358477" y="181.380179" style="fill: #9fb3b1; stroke: #9fb3b1"/>
     <use xlink:href="#m0fa3661005" x="375.174201" y="200.092737" style="fill: #9fb3b1; stroke: #9fb3b1"/>
     <use xlink:href="#m0fa3661005" x="384.989926" y="203.692586" style="fill: #9fb3b1; stroke: #9fb3b1"/>
     <use xlink:href="#m0fa3661005" x="394.805651" y="196.230245" style="fill: #9fb3b1; stroke: #9fb3b1"/>
     <use xlink:href="#m0fa3661005" x="404.621376" y="200.672224" style="fill: #9fb3b1; stroke: #9fb3b1"/>
     <use xlink:href="#m0fa3661005" x="414.437101" y="141.270235" style="fill: #9fb3b1; stroke: #9fb3b1"/>
     <use xlink:href="#m0fa3661005" x="424.252826" y="190.875737" style="fill: #9fb3b1; stroke: #9fb3b1"/>
     <use xlink:href="#m0fa3661005" x="434.06855" y="168.616196" style="fill: #9fb3b1; stroke: #9fb3b1"/>
     <use xlink:href="#m0fa3661005" x="443.884275" y="209.295902" style="fill: #9fb3b1; stroke: #9fb3b1"/>
     <use xlink:href="#m0fa3661005" x="453.7" y="200.672224" style="fill: #9fb3b1; stroke: #9fb3b1"/>
     <use xlink:href="#m0fa3661005" x="463.515725" y="86.392835" style="fill: #9fb3b1; stroke: #9fb3b1"/>
     <use xlink:href="#m0fa3661005" x="473.33145" y="174.340572" style="fill: #9fb3b1; stroke: #9fb3b1"/>
     <use xlink:href="#m0fa3661005" x="483.147174" y="149.448001" style="fill: #9fb3b1; stroke: #9fb3b1"/>
     <use xlink:href="#m0fa3661005" x="492.962899" y="132.163732" style="fill: #9fb3b1; stroke: #9fb3b1"/>
     <use xlink:href="#m0fa3661005" x="502.778624" y="166.072991" style="fill: #9fb3b1; stroke: #9fb3b1"/>
     <use xlink:href="#m0fa3661005" x="512.594349" y="183.580332" style="fill: #9fb3b1; stroke: #9fb3b1"/>
     <use xlink:href="#m0fa3661005" x="522.410074" y="221.230778" style="fill: #9fb3b1; stroke: #9fb3b1"/>
     <use xlink:href="#m0fa3661005" x="532.225799" y="22.003546" style="fill: #9fb3b1; stroke: #9fb3b1"/>
     <use xlink:href="#m0fa3661005" x="542.041523" y="112.075581" style="fill: #9fb3b1; stroke: #9fb3b1"/>
     <use xlink:href="#m0fa3661005" x="551.857248" y="170.206785" style="fill: #9fb3b1; stroke: #9fb3b1"/>
     <use xlink:href="#m0fa3661005" x="561.672973" y="184.996642" style="fill: #9fb3b1; stroke: #9fb3b1"/>
     <use xlink:href="#m0fa3661005" x="571.488698" y="232.922908" style="fill: #9fb3b1; stroke: #9fb3b1"/>
     <use xlink:href="#m0fa3661005" x="581.304423" y="43.074127" style="fill: #9fb3b1; stroke: #9fb3b1"/>
     <use xlink:href="#m0fa3661005" x="591.120147" y="172.421459" style="fill: #9fb3b1; stroke: #9fb3b1"/>
     <use xlink:href="#m0fa3661005" x="600.935872" y="149.17904" style="fill: #9fb3b1; stroke: #9fb3b1"/>
     <use xlink:href="#m0fa3661005" x="610.751597" y="144.631949" style="fill: #9fb3b1; stroke: #9fb3b1"/>
     <use xlink:href="#m0fa3661005" x="620.567322" y="168.391678" style="fill: #9fb3b1; stroke: #9fb3b1"/>
     <use xlink:href="#m0fa3661005" x="630.383047" y="125.306609" style="fill: #9fb3b1; stroke: #9fb3b1"/>
     <use xlink:href="#m0fa3661005" x="640.198771" y="232.213662" style="fill: #9fb3b1; stroke: #9fb3b1"/>
     <use xlink:href="#m0fa3661005" x="650.014496" y="205.398446" style="fill: #9fb3b1; stroke: #9fb3b1"/>
     <use xlink:href="#m0fa3661005" x="659.830221" y="211.287341" style="fill: #9fb3b1; stroke: #9fb3b1"/>
     <use xlink:href="#m0fa3661005" x="669.645946" y="168.7287" style="fill: #9fb3b1; stroke: #9fb3b1"/>
     <use xlink:href="#m0fa3661005" x="679.461671" y="111.753639" style="fill: #9fb3b1; stroke: #9fb3b1"/>
     <use xlink:href="#m0fa3661005" x="689.277396" y="145.231946" style="fill: #9fb3b1; stroke: #9fb3b1"/>
     <use xlink:href="#m0fa3661005" x="699.09312" y="198.397837" style="fill: #9fb3b1; stroke: #9fb3b1"/>
     <use xlink:href="#m0fa3661005" x="708.908845" y="192.000456" style="fill: #9fb3b1; stroke: #9fb3b1"/>
     <use xlink:href="#m0fa3661005" x="718.72457" y="223.536752" style="fill: #9fb3b1; stroke: #9fb3b1"/>
     <use xlink:href="#m0fa3661005" x="728.540295" y="212.329089" style="fill: #9fb3b1; stroke: #9fb3b1"/>
     <use xlink:href="#m0fa3661005" x="738.35602" y="231.54284" style="fill: #9fb3b1; stroke: #9fb3b1"/>
     <use xlink:href="#m0fa3661005" x="748.171744" y="173.976764" style="fill: #9fb3b1; stroke: #9fb3b1"/>
     <use xlink:href="#m0fa3661005" x="757.987469" y="219.470162" style="fill: #9fb3b1; stroke: #9fb3b1"/>
     <use xlink:href="#m0fa3661005" x="767.803194" y="229.710439" style="fill: #9fb3b1; stroke: #9fb3b1"/>
     <use xlink:href="#m0fa3661005" x="777.618919" y="182.608161" style="fill: #9fb3b1; stroke: #9fb3b1"/>
     <use xlink:href="#m0fa3661005" x="787.434644" y="179.91096" style="fill: #9fb3b1; stroke: #9fb3b1"/>
     <use xlink:href="#m0fa3661005" x="797.250369" y="168.7287" style="fill: #9fb3b1; stroke: #9fb3b1"/>
     <use xlink:href="#m0fa3661005" x="807.066093" y="183.580332" style="fill: #9fb3b1; stroke: #9fb3b1"/>
     <use xlink:href="#m0fa3661005" x="816.881818" y="179.91096" style="fill: #9fb3b1; stroke: #9fb3b1"/>
    </g>
   </g>
   <g id="matplotlib.axis_1">
    <g id="xtick_1">
     <g id="line2d_1">
      <path d="M 90.518182 246.04 
L 90.518182 11.335143 
" clip-path="url(#ped404bfbd8)" style="fill: none; stroke: #b0b0b0; stroke-width: 0.8; stroke-linecap: square"/>
     </g>
     <g id="line2d_2">
      <defs>
       <path id="maad9955fa1" d="M 0 0 
L 0 3.5 
" style="stroke: #000000; stroke-width: 0.8"/>
      </defs>
      <g>
       <use xlink:href="#maad9955fa1" x="90.518182" y="246.04" style="stroke: #000000; stroke-width: 0.8"/>
      </g>
     </g>
     <g id="text_1">
      <!-- 1950 -->
      <g transform="translate(77.793182 260.638438) scale(0.1 -0.1)">
       <defs>
        <path id="DejaVuSans-31" d="M 794 531 
L 1825 531 
L 1825 4091 
L 703 3866 
L 703 4441 
L 1819 4666 
L 2450 4666 
L 2450 531 
L 3481 531 
L 3481 0 
L 794 0 
L 794 531 
z
" transform="scale(0.015625)"/>
        <path id="DejaVuSans-39" d="M 703 97 
L 703 672 
Q 941 559 1184 500 
Q 1428 441 1663 441 
Q 2288 441 2617 861 
Q 2947 1281 2994 2138 
Q 2813 1869 2534 1725 
Q 2256 1581 1919 1581 
Q 1219 1581 811 2004 
Q 403 2428 403 3163 
Q 403 3881 828 4315 
Q 1253 4750 1959 4750 
Q 2769 4750 3195 4129 
Q 3622 3509 3622 2328 
Q 3622 1225 3098 567 
Q 2575 -91 1691 -91 
Q 1453 -91 1209 -44 
Q 966 3 703 97 
z
M 1959 2075 
Q 2384 2075 2632 2365 
Q 2881 2656 2881 3163 
Q 2881 3666 2632 3958 
Q 2384 4250 1959 4250 
Q 1534 4250 1286 3958 
Q 1038 3666 1038 3163 
Q 1038 2656 1286 2365 
Q 1534 2075 1959 2075 
z
" transform="scale(0.015625)"/>
        <path id="DejaVuSans-35" d="M 691 4666 
L 3169 4666 
L 3169 4134 
L 1269 4134 
L 1269 2991 
Q 1406 3038 1543 3061 
Q 1681 3084 1819 3084 
Q 2600 3084 3056 2656 
Q 3513 2228 3513 1497 
Q 3513 744 3044 326 
Q 2575 -91 1722 -91 
Q 1428 -91 1123 -41 
Q 819 9 494 109 
L 494 744 
Q 775 591 1075 516 
Q 1375 441 1709 441 
Q 2250 441 2565 725 
Q 2881 1009 2881 1497 
Q 2881 1984 2565 2268 
Q 2250 2553 1709 2553 
Q 1456 2553 1204 2497 
Q 953 2441 691 2322 
L 691 4666 
z
" transform="scale(0.015625)"/>
        <path id="DejaVuSans-30" d="M 2034 4250 
Q 1547 4250 1301 3770 
Q 1056 3291 1056 2328 
Q 1056 1369 1301 889 
Q 1547 409 2034 409 
Q 2525 409 2770 889 
Q 3016 1369 3016 2328 
Q 3016 3291 2770 3770 
Q 2525 4250 2034 4250 
z
M 2034 4750 
Q 2819 4750 3233 4129 
Q 3647 3509 3647 2328 
Q 3647 1150 3233 529 
Q 2819 -91 2034 -91 
Q 1250 -91 836 529 
Q 422 1150 422 2328 
Q 422 3509 836 4129 
Q 1250 4750 2034 4750 
z
" transform="scale(0.015625)"/>
       </defs>
       <use xlink:href="#DejaVuSans-31"/>
       <use xlink:href="#DejaVuSans-39" transform="translate(63.623047 0)"/>
       <use xlink:href="#DejaVuSans-35" transform="translate(127.246094 0)"/>
       <use xlink:href="#DejaVuSans-30" transform="translate(190.869141 0)"/>
      </g>
     </g>
    </g>
    <g id="xtick_2">
     <g id="line2d_3">
      <path d="M 139.596806 246.04 
L 139.596806 11.335143 
" clip-path="url(#ped404bfbd8)" style="fill: none; stroke: #b0b0b0; stroke-width: 0.8; stroke-linecap: square"/>
     </g>
     <g id="line2d_4">
      <g>
       <use xlink:href="#maad9955fa1" x="139.596806" y="246.04" style="stroke: #000000; stroke-width: 0.8"/>
      </g>
     </g>
     <g id="text_2">
      <!-- 1955 -->
      <g transform="translate(126.871806 260.638438) scale(0.1 -0.1)">
       <use xlink:href="#DejaVuSans-31"/>
       <use xlink:href="#DejaVuSans-39" transform="translate(63.623047 0)"/>
       <use xlink:href="#DejaVuSans-35" transform="translate(127.246094 0)"/>
       <use xlink:href="#DejaVuSans-35" transform="translate(190.869141 0)"/>
      </g>
     </g>
    </g>
    <g id="xtick_3">
     <g id="line2d_5">
      <path d="M 188.67543 246.04 
L 188.67543 11.335143 
" clip-path="url(#ped404bfbd8)" style="fill: none; stroke: #b0b0b0; stroke-width: 0.8; stroke-linecap: square"/>
     </g>
     <g id="line2d_6">
      <g>
       <use xlink:href="#maad9955fa1" x="188.67543" y="246.04" style="stroke: #000000; stroke-width: 0.8"/>
      </g>
     </g>
     <g id="text_3">
      <!-- 1960 -->
      <g transform="translate(175.95043 260.638438) scale(0.1 -0.1)">
       <defs>
        <path id="DejaVuSans-36" d="M 2113 2584 
Q 1688 2584 1439 2293 
Q 1191 2003 1191 1497 
Q 1191 994 1439 701 
Q 1688 409 2113 409 
Q 2538 409 2786 701 
Q 3034 994 3034 1497 
Q 3034 2003 2786 2293 
Q 2538 2584 2113 2584 
z
M 3366 4563 
L 3366 3988 
Q 3128 4100 2886 4159 
Q 2644 4219 2406 4219 
Q 1781 4219 1451 3797 
Q 1122 3375 1075 2522 
Q 1259 2794 1537 2939 
Q 1816 3084 2150 3084 
Q 2853 3084 3261 2657 
Q 3669 2231 3669 1497 
Q 3669 778 3244 343 
Q 2819 -91 2113 -91 
Q 1303 -91 875 529 
Q 447 1150 447 2328 
Q 447 3434 972 4092 
Q 1497 4750 2381 4750 
Q 2619 4750 2861 4703 
Q 3103 4656 3366 4563 
z
" transform="scale(0.015625)"/>
       </defs>
       <use xlink:href="#DejaVuSans-31"/>
       <use xlink:href="#DejaVuSans-39" transform="translate(63.623047 0)"/>
       <use xlink:href="#DejaVuSans-36" transform="translate(127.246094 0)"/>
       <use xlink:href="#DejaVuSans-30" transform="translate(190.869141 0)"/>
      </g>
     </g>
    </g>
    <g id="xtick_4">
     <g id="line2d_7">
      <path d="M 237.754054 246.04 
L 237.754054 11.335143 
" clip-path="url(#ped404bfbd8)" style="fill: none; stroke: #b0b0b0; stroke-width: 0.8; stroke-linecap: square"/>
     </g>
     <g id="line2d_8">
      <g>
       <use xlink:href="#maad9955fa1" x="237.754054" y="246.04" style="stroke: #000000; stroke-width: 0.8"/>
      </g>
     </g>
     <g id="text_4">
      <!-- 1965 -->
      <g transform="translate(225.029054 260.638438) scale(0.1 -0.1)">
       <use xlink:href="#DejaVuSans-31"/>
       <use xlink:href="#DejaVuSans-39" transform="translate(63.623047 0)"/>
       <use xlink:href="#DejaVuSans-36" transform="translate(127.246094 0)"/>
       <use xlink:href="#DejaVuSans-35" transform="translate(190.869141 0)"/>
      </g>
     </g>
    </g>
    <g id="xtick_5">
     <g id="line2d_9">
      <path d="M 286.832678 246.04 
L 286.832678 11.335143 
" clip-path="url(#ped404bfbd8)" style="fill: none; stroke: #b0b0b0; stroke-width: 0.8; stroke-linecap: square"/>
     </g>
     <g id="line2d_10">
      <g>
       <use xlink:href="#maad9955fa1" x="286.832678" y="246.04" style="stroke: #000000; stroke-width: 0.8"/>
      </g>
     </g>
     <g id="text_5">
      <!-- 1970 -->
      <g transform="translate(274.107678 260.638438) scale(0.1 -0.1)">
       <defs>
        <path id="DejaVuSans-37" d="M 525 4666 
L 3525 4666 
L 3525 4397 
L 1831 0 
L 1172 0 
L 2766 4134 
L 525 4134 
L 525 4666 
z
" transform="scale(0.015625)"/>
       </defs>
       <use xlink:href="#DejaVuSans-31"/>
       <use xlink:href="#DejaVuSans-39" transform="translate(63.623047 0)"/>
       <use xlink:href="#DejaVuSans-37" transform="translate(127.246094 0)"/>
       <use xlink:href="#DejaVuSans-30" transform="translate(190.869141 0)"/>
      </g>
     </g>
    </g>
    <g id="xtick_6">
     <g id="line2d_11">
      <path d="M 335.911302 246.04 
L 335.911302 11.335143 
" clip-path="url(#ped404bfbd8)" style="fill: none; stroke: #b0b0b0; stroke-width: 0.8; stroke-linecap: square"/>
     </g>
     <g id="line2d_12">
      <g>
       <use xlink:href="#maad9955fa1" x="335.911302" y="246.04" style="stroke: #000000; stroke-width: 0.8"/>
      </g>
     </g>
     <g id="text_6">
      <!-- 1975 -->
      <g transform="translate(323.186302 260.638438) scale(0.1 -0.1)">
       <use xlink:href="#DejaVuSans-31"/>
       <use xlink:href="#DejaVuSans-39" transform="translate(63.623047 0)"/>
       <use xlink:href="#DejaVuSans-37" transform="translate(127.246094 0)"/>
       <use xlink:href="#DejaVuSans-35" transform="translate(190.869141 0)"/>
      </g>
     </g>
    </g>
    <g id="xtick_7">
     <g id="line2d_13">
      <path d="M 384.989926 246.04 
L 384.989926 11.335143 
" clip-path="url(#ped404bfbd8)" style="fill: none; stroke: #b0b0b0; stroke-width: 0.8; stroke-linecap: square"/>
     </g>
     <g id="line2d_14">
      <g>
       <use xlink:href="#maad9955fa1" x="384.989926" y="246.04" style="stroke: #000000; stroke-width: 0.8"/>
      </g>
     </g>
     <g id="text_7">
      <!-- 1980 -->
      <g transform="translate(372.264926 260.638438) scale(0.1 -0.1)">
       <defs>
        <path id="DejaVuSans-38" d="M 2034 2216 
Q 1584 2216 1326 1975 
Q 1069 1734 1069 1313 
Q 1069 891 1326 650 
Q 1584 409 2034 409 
Q 2484 409 2743 651 
Q 3003 894 3003 1313 
Q 3003 1734 2745 1975 
Q 2488 2216 2034 2216 
z
M 1403 2484 
Q 997 2584 770 2862 
Q 544 3141 544 3541 
Q 544 4100 942 4425 
Q 1341 4750 2034 4750 
Q 2731 4750 3128 4425 
Q 3525 4100 3525 3541 
Q 3525 3141 3298 2862 
Q 3072 2584 2669 2484 
Q 3125 2378 3379 2068 
Q 3634 1759 3634 1313 
Q 3634 634 3220 271 
Q 2806 -91 2034 -91 
Q 1263 -91 848 271 
Q 434 634 434 1313 
Q 434 1759 690 2068 
Q 947 2378 1403 2484 
z
M 1172 3481 
Q 1172 3119 1398 2916 
Q 1625 2713 2034 2713 
Q 2441 2713 2670 2916 
Q 2900 3119 2900 3481 
Q 2900 3844 2670 4047 
Q 2441 4250 2034 4250 
Q 1625 4250 1398 4047 
Q 1172 3844 1172 3481 
z
" transform="scale(0.015625)"/>
       </defs>
       <use xlink:href="#DejaVuSans-31"/>
       <use xlink:href="#DejaVuSans-39" transform="translate(63.623047 0)"/>
       <use xlink:href="#DejaVuSans-38" transform="translate(127.246094 0)"/>
       <use xlink:href="#DejaVuSans-30" transform="translate(190.869141 0)"/>
      </g>
     </g>
    </g>
    <g id="xtick_8">
     <g id="line2d_15">
      <path d="M 434.06855 246.04 
L 434.06855 11.335143 
" clip-path="url(#ped404bfbd8)" style="fill: none; stroke: #b0b0b0; stroke-width: 0.8; stroke-linecap: square"/>
     </g>
     <g id="line2d_16">
      <g>
       <use xlink:href="#maad9955fa1" x="434.06855" y="246.04" style="stroke: #000000; stroke-width: 0.8"/>
      </g>
     </g>
     <g id="text_8">
      <!-- 1985 -->
      <g transform="translate(421.34355 260.638438) scale(0.1 -0.1)">
       <use xlink:href="#DejaVuSans-31"/>
       <use xlink:href="#DejaVuSans-39" transform="translate(63.623047 0)"/>
       <use xlink:href="#DejaVuSans-38" transform="translate(127.246094 0)"/>
       <use xlink:href="#DejaVuSans-35" transform="translate(190.869141 0)"/>
      </g>
     </g>
    </g>
    <g id="xtick_9">
     <g id="line2d_17">
      <path d="M 483.147174 246.04 
L 483.147174 11.335143 
" clip-path="url(#ped404bfbd8)" style="fill: none; stroke: #b0b0b0; stroke-width: 0.8; stroke-linecap: square"/>
     </g>
     <g id="line2d_18">
      <g>
       <use xlink:href="#maad9955fa1" x="483.147174" y="246.04" style="stroke: #000000; stroke-width: 0.8"/>
      </g>
     </g>
     <g id="text_9">
      <!-- 1990 -->
      <g transform="translate(470.422174 260.638438) scale(0.1 -0.1)">
       <use xlink:href="#DejaVuSans-31"/>
       <use xlink:href="#DejaVuSans-39" transform="translate(63.623047 0)"/>
       <use xlink:href="#DejaVuSans-39" transform="translate(127.246094 0)"/>
       <use xlink:href="#DejaVuSans-30" transform="translate(190.869141 0)"/>
      </g>
     </g>
    </g>
    <g id="xtick_10">
     <g id="line2d_19">
      <path d="M 532.225799 246.04 
L 532.225799 11.335143 
" clip-path="url(#ped404bfbd8)" style="fill: none; stroke: #b0b0b0; stroke-width: 0.8; stroke-linecap: square"/>
     </g>
     <g id="line2d_20">
      <g>
       <use xlink:href="#maad9955fa1" x="532.225799" y="246.04" style="stroke: #000000; stroke-width: 0.8"/>
      </g>
     </g>
     <g id="text_10">
      <!-- 1995 -->
      <g transform="translate(519.500799 260.638438) scale(0.1 -0.1)">
       <use xlink:href="#DejaVuSans-31"/>
       <use xlink:href="#DejaVuSans-39" transform="translate(63.623047 0)"/>
       <use xlink:href="#DejaVuSans-39" transform="translate(127.246094 0)"/>
       <use xlink:href="#DejaVuSans-35" transform="translate(190.869141 0)"/>
      </g>
     </g>
    </g>
    <g id="xtick_11">
     <g id="line2d_21">
      <path d="M 581.304423 246.04 
L 581.304423 11.335143 
" clip-path="url(#ped404bfbd8)" style="fill: none; stroke: #b0b0b0; stroke-width: 0.8; stroke-linecap: square"/>
     </g>
     <g id="line2d_22">
      <g>
       <use xlink:href="#maad9955fa1" x="581.304423" y="246.04" style="stroke: #000000; stroke-width: 0.8"/>
      </g>
     </g>
     <g id="text_11">
      <!-- 2000 -->
      <g transform="translate(568.579423 260.638438) scale(0.1 -0.1)">
       <defs>
        <path id="DejaVuSans-32" d="M 1228 531 
L 3431 531 
L 3431 0 
L 469 0 
L 469 531 
Q 828 903 1448 1529 
Q 2069 2156 2228 2338 
Q 2531 2678 2651 2914 
Q 2772 3150 2772 3378 
Q 2772 3750 2511 3984 
Q 2250 4219 1831 4219 
Q 1534 4219 1204 4116 
Q 875 4013 500 3803 
L 500 4441 
Q 881 4594 1212 4672 
Q 1544 4750 1819 4750 
Q 2544 4750 2975 4387 
Q 3406 4025 3406 3419 
Q 3406 3131 3298 2873 
Q 3191 2616 2906 2266 
Q 2828 2175 2409 1742 
Q 1991 1309 1228 531 
z
" transform="scale(0.015625)"/>
       </defs>
       <use xlink:href="#DejaVuSans-32"/>
       <use xlink:href="#DejaVuSans-30" transform="translate(63.623047 0)"/>
       <use xlink:href="#DejaVuSans-30" transform="translate(127.246094 0)"/>
       <use xlink:href="#DejaVuSans-30" transform="translate(190.869141 0)"/>
      </g>
     </g>
    </g>
    <g id="xtick_12">
     <g id="line2d_23">
      <path d="M 630.383047 246.04 
L 630.383047 11.335143 
" clip-path="url(#ped404bfbd8)" style="fill: none; stroke: #b0b0b0; stroke-width: 0.8; stroke-linecap: square"/>
     </g>
     <g id="line2d_24">
      <g>
       <use xlink:href="#maad9955fa1" x="630.383047" y="246.04" style="stroke: #000000; stroke-width: 0.8"/>
      </g>
     </g>
     <g id="text_12">
      <!-- 2005 -->
      <g transform="translate(617.658047 260.638438) scale(0.1 -0.1)">
       <use xlink:href="#DejaVuSans-32"/>
       <use xlink:href="#DejaVuSans-30" transform="translate(63.623047 0)"/>
       <use xlink:href="#DejaVuSans-30" transform="translate(127.246094 0)"/>
       <use xlink:href="#DejaVuSans-35" transform="translate(190.869141 0)"/>
      </g>
     </g>
    </g>
    <g id="xtick_13">
     <g id="line2d_25">
      <path d="M 679.461671 246.04 
L 679.461671 11.335143 
" clip-path="url(#ped404bfbd8)" style="fill: none; stroke: #b0b0b0; stroke-width: 0.8; stroke-linecap: square"/>
     </g>
     <g id="line2d_26">
      <g>
       <use xlink:href="#maad9955fa1" x="679.461671" y="246.04" style="stroke: #000000; stroke-width: 0.8"/>
      </g>
     </g>
     <g id="text_13">
      <!-- 2010 -->
      <g transform="translate(666.736671 260.638438) scale(0.1 -0.1)">
       <use xlink:href="#DejaVuSans-32"/>
       <use xlink:href="#DejaVuSans-30" transform="translate(63.623047 0)"/>
       <use xlink:href="#DejaVuSans-31" transform="translate(127.246094 0)"/>
       <use xlink:href="#DejaVuSans-30" transform="translate(190.869141 0)"/>
      </g>
     </g>
    </g>
    <g id="xtick_14">
     <g id="line2d_27">
      <path d="M 728.540295 246.04 
L 728.540295 11.335143 
" clip-path="url(#ped404bfbd8)" style="fill: none; stroke: #b0b0b0; stroke-width: 0.8; stroke-linecap: square"/>
     </g>
     <g id="line2d_28">
      <g>
       <use xlink:href="#maad9955fa1" x="728.540295" y="246.04" style="stroke: #000000; stroke-width: 0.8"/>
      </g>
     </g>
     <g id="text_14">
      <!-- 2015 -->
      <g transform="translate(715.815295 260.638438) scale(0.1 -0.1)">
       <use xlink:href="#DejaVuSans-32"/>
       <use xlink:href="#DejaVuSans-30" transform="translate(63.623047 0)"/>
       <use xlink:href="#DejaVuSans-31" transform="translate(127.246094 0)"/>
       <use xlink:href="#DejaVuSans-35" transform="translate(190.869141 0)"/>
      </g>
     </g>
    </g>
    <g id="xtick_15">
     <g id="line2d_29">
      <path d="M 777.618919 246.04 
L 777.618919 11.335143 
" clip-path="url(#ped404bfbd8)" style="fill: none; stroke: #b0b0b0; stroke-width: 0.8; stroke-linecap: square"/>
     </g>
     <g id="line2d_30">
      <g>
       <use xlink:href="#maad9955fa1" x="777.618919" y="246.04" style="stroke: #000000; stroke-width: 0.8"/>
      </g>
     </g>
     <g id="text_15">
      <!-- 2020 -->
      <g transform="translate(764.893919 260.638438) scale(0.1 -0.1)">
       <use xlink:href="#DejaVuSans-32"/>
       <use xlink:href="#DejaVuSans-30" transform="translate(63.623047 0)"/>
       <use xlink:href="#DejaVuSans-32" transform="translate(127.246094 0)"/>
       <use xlink:href="#DejaVuSans-30" transform="translate(190.869141 0)"/>
      </g>
     </g>
    </g>
    <g id="text_16">
     <!-- Year -->
     <g transform="translate(443.1125 274.316562) scale(0.1 -0.1)">
      <defs>
       <path id="DejaVuSans-59" d="M -13 4666 
L 666 4666 
L 1959 2747 
L 3244 4666 
L 3922 4666 
L 2272 2222 
L 2272 0 
L 1638 0 
L 1638 2222 
L -13 4666 
z
" transform="scale(0.015625)"/>
       <path id="DejaVuSans-65" d="M 3597 1894 
L 3597 1613 
L 953 1613 
Q 991 1019 1311 708 
Q 1631 397 2203 397 
Q 2534 397 2845 478 
Q 3156 559 3463 722 
L 3463 178 
Q 3153 47 2828 -22 
Q 2503 -91 2169 -91 
Q 1331 -91 842 396 
Q 353 884 353 1716 
Q 353 2575 817 3079 
Q 1281 3584 2069 3584 
Q 2775 3584 3186 3129 
Q 3597 2675 3597 1894 
z
M 3022 2063 
Q 3016 2534 2758 2815 
Q 2500 3097 2075 3097 
Q 1594 3097 1305 2825 
Q 1016 2553 972 2059 
L 3022 2063 
z
" transform="scale(0.015625)"/>
       <path id="DejaVuSans-61" d="M 2194 1759 
Q 1497 1759 1228 1600 
Q 959 1441 959 1056 
Q 959 750 1161 570 
Q 1363 391 1709 391 
Q 2188 391 2477 730 
Q 2766 1069 2766 1631 
L 2766 1759 
L 2194 1759 
z
M 3341 1997 
L 3341 0 
L 2766 0 
L 2766 531 
Q 2569 213 2275 61 
Q 1981 -91 1556 -91 
Q 1019 -91 701 211 
Q 384 513 384 1019 
Q 384 1609 779 1909 
Q 1175 2209 1959 2209 
L 2766 2209 
L 2766 2266 
Q 2766 2663 2505 2880 
Q 2244 3097 1772 3097 
Q 1472 3097 1187 3025 
Q 903 2953 641 2809 
L 641 3341 
Q 956 3463 1253 3523 
Q 1550 3584 1831 3584 
Q 2591 3584 2966 3190 
Q 3341 2797 3341 1997 
z
" transform="scale(0.015625)"/>
       <path id="DejaVuSans-72" d="M 2631 2963 
Q 2534 3019 2420 3045 
Q 2306 3072 2169 3072 
Q 1681 3072 1420 2755 
Q 1159 2438 1159 1844 
L 1159 0 
L 581 0 
L 581 3500 
L 1159 3500 
L 1159 2956 
Q 1341 3275 1631 3429 
Q 1922 3584 2338 3584 
Q 2397 3584 2469 3576 
Q 2541 3569 2628 3553 
L 2631 2963 
z
" transform="scale(0.015625)"/>
      </defs>
      <use xlink:href="#DejaVuSans-59"/>
      <use xlink:href="#DejaVuSans-65" transform="translate(47.833984 0)"/>
      <use xlink:href="#DejaVuSans-61" transform="translate(109.357422 0)"/>
      <use xlink:href="#DejaVuSans-72" transform="translate(170.636719 0)"/>
     </g>
    </g>
   </g>
   <g id="matplotlib.axis_2">
    <g id="ytick_1">
     <g id="line2d_31">
      <defs>
       <path id="mbe7ee6f59d" d="M 0 0 
L -3.5 0 
" style="stroke: #000000; stroke-width: 0.8"/>
      </defs>
      <g>
       <use xlink:href="#mbe7ee6f59d" x="54.2" y="244.615038" style="stroke: #000000; stroke-width: 0.8"/>
      </g>
     </g>
     <g id="text_17">
      <!-- 0.0 -->
      <g transform="translate(31.296875 248.414257) scale(0.1 -0.1)">
       <defs>
        <path id="DejaVuSans-2e" d="M 684 794 
L 1344 794 
L 1344 0 
L 684 0 
L 684 794 
z
" transform="scale(0.015625)"/>
       </defs>
       <use xlink:href="#DejaVuSans-30"/>
       <use xlink:href="#DejaVuSans-2e" transform="translate(63.623047 0)"/>
       <use xlink:href="#DejaVuSans-30" transform="translate(95.410156 0)"/>
      </g>
     </g>
    </g>
    <g id="ytick_2">
     <g id="line2d_32">
      <g>
       <use xlink:href="#mbe7ee6f59d" x="54.2" y="215.908148" style="stroke: #000000; stroke-width: 0.8"/>
      </g>
     </g>
     <g id="text_18">
      <!-- 2.5 -->
      <g transform="translate(31.296875 219.707367) scale(0.1 -0.1)">
       <use xlink:href="#DejaVuSans-32"/>
       <use xlink:href="#DejaVuSans-2e" transform="translate(63.623047 0)"/>
       <use xlink:href="#DejaVuSans-35" transform="translate(95.410156 0)"/>
      </g>
     </g>
    </g>
    <g id="ytick_3">
     <g id="line2d_33">
      <g>
       <use xlink:href="#mbe7ee6f59d" x="54.2" y="187.201258" style="stroke: #000000; stroke-width: 0.8"/>
      </g>
     </g>
     <g id="text_19">
      <!-- 5.0 -->
      <g transform="translate(31.296875 191.000477) scale(0.1 -0.1)">
       <use xlink:href="#DejaVuSans-35"/>
       <use xlink:href="#DejaVuSans-2e" transform="translate(63.623047 0)"/>
       <use xlink:href="#DejaVuSans-30" transform="translate(95.410156 0)"/>
      </g>
     </g>
    </g>
    <g id="ytick_4">
     <g id="line2d_34">
      <g>
       <use xlink:href="#mbe7ee6f59d" x="54.2" y="158.494369" style="stroke: #000000; stroke-width: 0.8"/>
      </g>
     </g>
     <g id="text_20">
      <!-- 7.5 -->
      <g transform="translate(31.296875 162.293587) scale(0.1 -0.1)">
       <use xlink:href="#DejaVuSans-37"/>
       <use xlink:href="#DejaVuSans-2e" transform="translate(63.623047 0)"/>
       <use xlink:href="#DejaVuSans-35" transform="translate(95.410156 0)"/>
      </g>
     </g>
    </g>
    <g id="ytick_5">
     <g id="line2d_35">
      <g>
       <use xlink:href="#mbe7ee6f59d" x="54.2" y="129.787479" style="stroke: #000000; stroke-width: 0.8"/>
      </g>
     </g>
     <g id="text_21">
      <!-- 10.0 -->
      <g transform="translate(24.934375 133.586698) scale(0.1 -0.1)">
       <use xlink:href="#DejaVuSans-31"/>
       <use xlink:href="#DejaVuSans-30" transform="translate(63.623047 0)"/>
       <use xlink:href="#DejaVuSans-2e" transform="translate(127.246094 0)"/>
       <use xlink:href="#DejaVuSans-30" transform="translate(159.033203 0)"/>
      </g>
     </g>
    </g>
    <g id="ytick_6">
     <g id="line2d_36">
      <g>
       <use xlink:href="#mbe7ee6f59d" x="54.2" y="101.080589" style="stroke: #000000; stroke-width: 0.8"/>
      </g>
     </g>
     <g id="text_22">
      <!-- 12.5 -->
      <g transform="translate(24.934375 104.879808) scale(0.1 -0.1)">
       <use xlink:href="#DejaVuSans-31"/>
       <use xlink:href="#DejaVuSans-32" transform="translate(63.623047 0)"/>
       <use xlink:href="#DejaVuSans-2e" transform="translate(127.246094 0)"/>
       <use xlink:href="#DejaVuSans-35" transform="translate(159.033203 0)"/>
      </g>
     </g>
    </g>
    <g id="ytick_7">
     <g id="line2d_37">
      <g>
       <use xlink:href="#mbe7ee6f59d" x="54.2" y="72.3737" style="stroke: #000000; stroke-width: 0.8"/>
      </g>
     </g>
     <g id="text_23">
      <!-- 15.0 -->
      <g transform="translate(24.934375 76.172918) scale(0.1 -0.1)">
       <use xlink:href="#DejaVuSans-31"/>
       <use xlink:href="#DejaVuSans-35" transform="translate(63.623047 0)"/>
       <use xlink:href="#DejaVuSans-2e" transform="translate(127.246094 0)"/>
       <use xlink:href="#DejaVuSans-30" transform="translate(159.033203 0)"/>
      </g>
     </g>
    </g>
    <g id="ytick_8">
     <g id="line2d_38">
      <g>
       <use xlink:href="#mbe7ee6f59d" x="54.2" y="43.66681" style="stroke: #000000; stroke-width: 0.8"/>
      </g>
     </g>
     <g id="text_24">
      <!-- 17.5 -->
      <g transform="translate(24.934375 47.466029) scale(0.1 -0.1)">
       <use xlink:href="#DejaVuSans-31"/>
       <use xlink:href="#DejaVuSans-37" transform="translate(63.623047 0)"/>
       <use xlink:href="#DejaVuSans-2e" transform="translate(127.246094 0)"/>
       <use xlink:href="#DejaVuSans-35" transform="translate(159.033203 0)"/>
      </g>
     </g>
    </g>
    <g id="ytick_9">
     <g id="line2d_39">
      <g>
       <use xlink:href="#mbe7ee6f59d" x="54.2" y="14.95992" style="stroke: #000000; stroke-width: 0.8"/>
      </g>
     </g>
     <g id="text_25">
      <!-- 20.0 -->
      <g transform="translate(24.934375 18.759139) scale(0.1 -0.1)">
       <use xlink:href="#DejaVuSans-32"/>
       <use xlink:href="#DejaVuSans-30" transform="translate(63.623047 0)"/>
       <use xlink:href="#DejaVuSans-2e" transform="translate(127.246094 0)"/>
       <use xlink:href="#DejaVuSans-30" transform="translate(159.033203 0)"/>
      </g>
     </g>
    </g>
    <g id="text_26">
     <!-- Wind speed 10m -->
     <g transform="translate(18.854688 170.76804) rotate(-90) scale(0.1 -0.1)">
      <defs>
       <path id="DejaVuSans-57" d="M 213 4666 
L 850 4666 
L 1831 722 
L 2809 4666 
L 3519 4666 
L 4500 722 
L 5478 4666 
L 6119 4666 
L 4947 0 
L 4153 0 
L 3169 4050 
L 2175 0 
L 1381 0 
L 213 4666 
z
" transform="scale(0.015625)"/>
       <path id="DejaVuSans-69" d="M 603 3500 
L 1178 3500 
L 1178 0 
L 603 0 
L 603 3500 
z
M 603 4863 
L 1178 4863 
L 1178 4134 
L 603 4134 
L 603 4863 
z
" transform="scale(0.015625)"/>
       <path id="DejaVuSans-6e" d="M 3513 2113 
L 3513 0 
L 2938 0 
L 2938 2094 
Q 2938 2591 2744 2837 
Q 2550 3084 2163 3084 
Q 1697 3084 1428 2787 
Q 1159 2491 1159 1978 
L 1159 0 
L 581 0 
L 581 3500 
L 1159 3500 
L 1159 2956 
Q 1366 3272 1645 3428 
Q 1925 3584 2291 3584 
Q 2894 3584 3203 3211 
Q 3513 2838 3513 2113 
z
" transform="scale(0.015625)"/>
       <path id="DejaVuSans-64" d="M 2906 2969 
L 2906 4863 
L 3481 4863 
L 3481 0 
L 2906 0 
L 2906 525 
Q 2725 213 2448 61 
Q 2172 -91 1784 -91 
Q 1150 -91 751 415 
Q 353 922 353 1747 
Q 353 2572 751 3078 
Q 1150 3584 1784 3584 
Q 2172 3584 2448 3432 
Q 2725 3281 2906 2969 
z
M 947 1747 
Q 947 1113 1208 752 
Q 1469 391 1925 391 
Q 2381 391 2643 752 
Q 2906 1113 2906 1747 
Q 2906 2381 2643 2742 
Q 2381 3103 1925 3103 
Q 1469 3103 1208 2742 
Q 947 2381 947 1747 
z
" transform="scale(0.015625)"/>
       <path id="DejaVuSans-20" transform="scale(0.015625)"/>
       <path id="DejaVuSans-73" d="M 2834 3397 
L 2834 2853 
Q 2591 2978 2328 3040 
Q 2066 3103 1784 3103 
Q 1356 3103 1142 2972 
Q 928 2841 928 2578 
Q 928 2378 1081 2264 
Q 1234 2150 1697 2047 
L 1894 2003 
Q 2506 1872 2764 1633 
Q 3022 1394 3022 966 
Q 3022 478 2636 193 
Q 2250 -91 1575 -91 
Q 1294 -91 989 -36 
Q 684 19 347 128 
L 347 722 
Q 666 556 975 473 
Q 1284 391 1588 391 
Q 1994 391 2212 530 
Q 2431 669 2431 922 
Q 2431 1156 2273 1281 
Q 2116 1406 1581 1522 
L 1381 1569 
Q 847 1681 609 1914 
Q 372 2147 372 2553 
Q 372 3047 722 3315 
Q 1072 3584 1716 3584 
Q 2034 3584 2315 3537 
Q 2597 3491 2834 3397 
z
" transform="scale(0.015625)"/>
       <path id="DejaVuSans-70" d="M 1159 525 
L 1159 -1331 
L 581 -1331 
L 581 3500 
L 1159 3500 
L 1159 2969 
Q 1341 3281 1617 3432 
Q 1894 3584 2278 3584 
Q 2916 3584 3314 3078 
Q 3713 2572 3713 1747 
Q 3713 922 3314 415 
Q 2916 -91 2278 -91 
Q 1894 -91 1617 61 
Q 1341 213 1159 525 
z
M 3116 1747 
Q 3116 2381 2855 2742 
Q 2594 3103 2138 3103 
Q 1681 3103 1420 2742 
Q 1159 2381 1159 1747 
Q 1159 1113 1420 752 
Q 1681 391 2138 391 
Q 2594 391 2855 752 
Q 3116 1113 3116 1747 
z
" transform="scale(0.015625)"/>
       <path id="DejaVuSans-6d" d="M 3328 2828 
Q 3544 3216 3844 3400 
Q 4144 3584 4550 3584 
Q 5097 3584 5394 3201 
Q 5691 2819 5691 2113 
L 5691 0 
L 5113 0 
L 5113 2094 
Q 5113 2597 4934 2840 
Q 4756 3084 4391 3084 
Q 3944 3084 3684 2787 
Q 3425 2491 3425 1978 
L 3425 0 
L 2847 0 
L 2847 2094 
Q 2847 2600 2669 2842 
Q 2491 3084 2119 3084 
Q 1678 3084 1418 2786 
Q 1159 2488 1159 1978 
L 1159 0 
L 581 0 
L 581 3500 
L 1159 3500 
L 1159 2956 
Q 1356 3278 1631 3431 
Q 1906 3584 2284 3584 
Q 2666 3584 2933 3390 
Q 3200 3197 3328 2828 
z
" transform="scale(0.015625)"/>
      </defs>
      <use xlink:href="#DejaVuSans-57"/>
      <use xlink:href="#DejaVuSans-69" transform="translate(96.626953 0)"/>
      <use xlink:href="#DejaVuSans-6e" transform="translate(124.410156 0)"/>
      <use xlink:href="#DejaVuSans-64" transform="translate(187.789062 0)"/>
      <use xlink:href="#DejaVuSans-20" transform="translate(251.265625 0)"/>
      <use xlink:href="#DejaVuSans-73" transform="translate(283.052734 0)"/>
      <use xlink:href="#DejaVuSans-70" transform="translate(335.152344 0)"/>
      <use xlink:href="#DejaVuSans-65" transform="translate(398.628906 0)"/>
      <use xlink:href="#DejaVuSans-65" transform="translate(460.152344 0)"/>
      <use xlink:href="#DejaVuSans-64" transform="translate(521.675781 0)"/>
      <use xlink:href="#DejaVuSans-20" transform="translate(585.152344 0)"/>
      <use xlink:href="#DejaVuSans-31" transform="translate(616.939453 0)"/>
      <use xlink:href="#DejaVuSans-30" transform="translate(680.5625 0)"/>
      <use xlink:href="#DejaVuSans-6d" transform="translate(744.185547 0)"/>
     </g>
    </g>
   </g>
   <g id="line2d_40">
    <path d="M 90.518182 181.472691 
L 100.333907 181.392081 
L 110.149631 181.311471 
L 119.965356 181.230861 
L 129.781081 181.150251 
L 139.596806 181.069641 
L 149.412531 180.989031 
L 159.228256 180.908421 
L 169.04398 180.827811 
L 178.859705 180.747202 
L 188.67543 180.666592 
L 198.491155 180.585982 
L 208.30688 180.505372 
L 218.122604 180.424762 
L 227.938329 180.344152 
L 237.754054 180.263542 
L 247.569779 180.182932 
L 257.385504 180.102322 
L 267.201229 180.021712 
L 277.016953 179.941102 
L 286.832678 179.860492 
L 296.648403 179.779882 
L 306.464128 179.699272 
L 316.279853 179.618662 
L 326.095577 179.538052 
L 335.911302 179.457442 
L 345.727027 179.376832 
L 355.542752 179.296222 
L 365.358477 179.215612 
L 375.174201 179.135002 
L 384.989926 179.054392 
L 394.805651 178.973782 
L 404.621376 178.893173 
L 414.437101 178.812563 
L 424.252826 178.731953 
L 434.06855 178.651343 
L 443.884275 178.570733 
L 453.7 178.490123 
L 463.515725 178.409513 
L 473.33145 178.328903 
L 483.147174 178.248293 
L 492.962899 178.167683 
L 502.778624 178.087073 
L 512.594349 178.006463 
L 522.410074 177.925853 
L 532.225799 177.845243 
L 542.041523 177.764633 
L 551.857248 177.684023 
L 561.672973 177.603413 
L 571.488698 177.522803 
L 581.304423 177.442193 
L 591.120147 177.361583 
L 600.935872 177.280973 
L 610.751597 177.200363 
L 620.567322 177.119754 
L 630.383047 177.039144 
L 640.198771 176.958534 
L 650.014496 176.877924 
L 659.830221 176.797314 
L 669.645946 176.716704 
L 679.461671 176.636094 
L 689.277396 176.555484 
L 699.09312 176.474874 
L 708.908845 176.394264 
L 718.72457 176.313654 
L 728.540295 176.233044 
L 738.35602 176.152434 
L 748.171744 176.071824 
L 757.987469 175.991214 
L 767.803194 175.910604 
L 777.618919 175.829994 
L 787.434644 175.749384 
L 797.250369 175.668774 
L 807.066093 175.588164 
L 816.881818 175.507554 
" clip-path="url(#ped404bfbd8)" style="fill: none; stroke: #b6ccca; stroke-width: 1.5; stroke-linecap: square"/>
   </g>
   <g id="line2d_41">
    <path d="M 54.2 178.490123 
L 853.2 178.490123 
" clip-path="url(#ped404bfbd8)" style="fill: none; stroke-dasharray: 1.5,2.475; stroke-dashoffset: 0; stroke: #808080; stroke-width: 1.5"/>
   </g>
   <g id="patch_3">
    <path d="M 54.2 246.04 
L 54.2 11.335143 
" style="fill: none; stroke: #000000; stroke-width: 0.8; stroke-linejoin: miter; stroke-linecap: square"/>
   </g>
   <g id="patch_4">
    <path d="M 54.2 246.04 
L 853.2 246.04 
" style="fill: none; stroke: #000000; stroke-width: 0.8; stroke-linejoin: miter; stroke-linecap: square"/>
   </g>
   <g id="legend_1">
    <g id="patch_5">
     <path d="M 739.8875 48.691393 
L 846.2 48.691393 
Q 848.2 48.691393 848.2 46.691393 
L 848.2 18.335143 
Q 848.2 16.335143 846.2 16.335143 
L 739.8875 16.335143 
Q 737.8875 16.335143 737.8875 18.335143 
L 737.8875 46.691393 
Q 737.8875 48.691393 739.8875 48.691393 
z
" style="fill: #ffffff; opacity: 0.8; stroke: #cccccc; stroke-linejoin: miter"/>
    </g>
    <g id="line2d_42">
     <path d="M 741.8875 24.433581 
L 751.8875 24.433581 
L 761.8875 24.433581 
" style="fill: none; stroke: #b6ccca; stroke-width: 1.5; stroke-linecap: square"/>
    </g>
    <g id="text_27">
     <!-- Trend -->
     <g transform="translate(769.8875 27.933581) scale(0.1 -0.1)">
      <defs>
       <path id="DejaVuSans-54" d="M -19 4666 
L 3928 4666 
L 3928 4134 
L 2272 4134 
L 2272 0 
L 1638 0 
L 1638 4134 
L -19 4134 
L -19 4666 
z
" transform="scale(0.015625)"/>
      </defs>
      <use xlink:href="#DejaVuSans-54"/>
      <use xlink:href="#DejaVuSans-72" transform="translate(46.333984 0)"/>
      <use xlink:href="#DejaVuSans-65" transform="translate(85.197266 0)"/>
      <use xlink:href="#DejaVuSans-6e" transform="translate(146.720703 0)"/>
      <use xlink:href="#DejaVuSans-64" transform="translate(210.099609 0)"/>
     </g>
    </g>
    <g id="line2d_43">
     <path d="M 741.8875 39.111706 
L 751.8875 39.111706 
L 761.8875 39.111706 
" style="fill: none; stroke-dasharray: 1.5,2.475; stroke-dashoffset: 0; stroke: #808080; stroke-width: 1.5"/>
    </g>
    <g id="text_28">
     <!-- Average (5.76) -->
     <g transform="translate(769.8875 42.611706) scale(0.1 -0.1)">
      <defs>
       <path id="DejaVuSans-41" d="M 2188 4044 
L 1331 1722 
L 3047 1722 
L 2188 4044 
z
M 1831 4666 
L 2547 4666 
L 4325 0 
L 3669 0 
L 3244 1197 
L 1141 1197 
L 716 0 
L 50 0 
L 1831 4666 
z
" transform="scale(0.015625)"/>
       <path id="DejaVuSans-76" d="M 191 3500 
L 800 3500 
L 1894 563 
L 2988 3500 
L 3597 3500 
L 2284 0 
L 1503 0 
L 191 3500 
z
" transform="scale(0.015625)"/>
       <path id="DejaVuSans-67" d="M 2906 1791 
Q 2906 2416 2648 2759 
Q 2391 3103 1925 3103 
Q 1463 3103 1205 2759 
Q 947 2416 947 1791 
Q 947 1169 1205 825 
Q 1463 481 1925 481 
Q 2391 481 2648 825 
Q 2906 1169 2906 1791 
z
M 3481 434 
Q 3481 -459 3084 -895 
Q 2688 -1331 1869 -1331 
Q 1566 -1331 1297 -1286 
Q 1028 -1241 775 -1147 
L 775 -588 
Q 1028 -725 1275 -790 
Q 1522 -856 1778 -856 
Q 2344 -856 2625 -561 
Q 2906 -266 2906 331 
L 2906 616 
Q 2728 306 2450 153 
Q 2172 0 1784 0 
Q 1141 0 747 490 
Q 353 981 353 1791 
Q 353 2603 747 3093 
Q 1141 3584 1784 3584 
Q 2172 3584 2450 3431 
Q 2728 3278 2906 2969 
L 2906 3500 
L 3481 3500 
L 3481 434 
z
" transform="scale(0.015625)"/>
       <path id="DejaVuSans-28" d="M 1984 4856 
Q 1566 4138 1362 3434 
Q 1159 2731 1159 2009 
Q 1159 1288 1364 580 
Q 1569 -128 1984 -844 
L 1484 -844 
Q 1016 -109 783 600 
Q 550 1309 550 2009 
Q 550 2706 781 3412 
Q 1013 4119 1484 4856 
L 1984 4856 
z
" transform="scale(0.015625)"/>
       <path id="DejaVuSans-29" d="M 513 4856 
L 1013 4856 
Q 1481 4119 1714 3412 
Q 1947 2706 1947 2009 
Q 1947 1309 1714 600 
Q 1481 -109 1013 -844 
L 513 -844 
Q 928 -128 1133 580 
Q 1338 1288 1338 2009 
Q 1338 2731 1133 3434 
Q 928 4138 513 4856 
z
" transform="scale(0.015625)"/>
      </defs>
      <use xlink:href="#DejaVuSans-41"/>
      <use xlink:href="#DejaVuSans-76" transform="translate(62.533203 0)"/>
      <use xlink:href="#DejaVuSans-65" transform="translate(121.712891 0)"/>
      <use xlink:href="#DejaVuSans-72" transform="translate(183.236328 0)"/>
      <use xlink:href="#DejaVuSans-61" transform="translate(224.349609 0)"/>
      <use xlink:href="#DejaVuSans-67" transform="translate(285.628906 0)"/>
      <use xlink:href="#DejaVuSans-65" transform="translate(349.105469 0)"/>
      <use xlink:href="#DejaVuSans-20" transform="translate(410.628906 0)"/>
      <use xlink:href="#DejaVuSans-28" transform="translate(442.416016 0)"/>
      <use xlink:href="#DejaVuSans-35" transform="translate(481.429688 0)"/>
      <use xlink:href="#DejaVuSans-2e" transform="translate(545.052734 0)"/>
      <use xlink:href="#DejaVuSans-37" transform="translate(576.839844 0)"/>
      <use xlink:href="#DejaVuSans-36" transform="translate(640.462891 0)"/>
      <use xlink:href="#DejaVuSans-29" transform="translate(704.085938 0)"/>
     </g>
    </g>
   </g>
  </g>
 </g>
 <defs>
  <clipPath id="ped404bfbd8">
   <rect x="54.2" y="11.335143" width="799" height="234.704857"/>
  </clipPath>
 </defs>
</svg>
