<?xml version="1.0" encoding="utf-8" standalone="no"?>
<!DOCTYPE svg PUBLIC "-//W3C//DTD SVG 1.1//EN"
  "http://www.w3.org/Graphics/SVG/1.1/DTD/svg11.dtd">
<svg xmlns:xlink="http://www.w3.org/1999/xlink" width="864pt" height="288pt" viewBox="0 0 864 288" xmlns="http://www.w3.org/2000/svg" version="1.1">
 <metadata>
  <rdf:RDF xmlns:dc="http://purl.org/dc/elements/1.1/" xmlns:cc="http://creativecommons.org/ns#" xmlns:rdf="http://www.w3.org/1999/02/22-rdf-syntax-ns#">
   <cc:Work>
    <dc:type rdf:resource="http://purl.org/dc/dcmitype/StillImage"/>
    <dc:date>2025-12-03T00:29:38.968416</dc:date>
    <dc:format>image/svg+xml</dc:format>
    <dc:creator>
     <cc:Agent>
      <dc:title>Matplotlib v3.10.0, https://matplotlib.org/</dc:title>
     </cc:Agent>
    </dc:creator>
   </cc:Work>
  </rdf:RDF>
 </metadata>
 <defs>
  <style type="text/css">*{stroke-linejoin: round; stroke-linecap: butt}</style>
 </defs>
 <g id="figure_1">
  <g id="patch_1">
   <path d="M 0 288 
L 864 288 
L 864 0 
L 0 0 
z
" style="fill: #ffffff"/>
  </g>
  <g id="axes_1">
   <g id="patch_2">
    <path d="M 47.81 246.04 
L 853.2 246.04 
L 853.2 10.8 
L 47.81 10.8 
z
" style="fill: #ffffff"/>
   </g>
   <g id="PathCollection_1">
    <defs>
     <path id="m95f9a69f6e" d="M 0 3 
C 0.795609 3 1.55874 2.683901 2.12132 2.12132 
C 2.683901 1.55874 3 0.795609 3 0 
C 3 -0.795609 2.683901 -1.55874 2.12132 -2.12132 
C 1.55874 -2.683901 0.795609 -3 0 -3 
C -0.795609 -3 -1.55874 -2.683901 -2.12132 -2.12132 
C -2.683901 -1.55874 -3 -0.795609 -3 0 
C -3 0.795609 -2.683901 1.55874 -2.12132 2.12132 
C -1.55874 2.683901 -0.795609 3 0 3 
z
" style="stroke: #4888c4"/>
    </defs>
    <g clip-path="url(#p2b9eb85123)">
     <use xlink:href="#m95f9a69f6e" x="84.418636" y="209.684727" style="fill: #4888c4; stroke: #4888c4"/>
     <use xlink:href="#m95f9a69f6e" x="94.312862" y="235.347273" style="fill: #4888c4; stroke: #4888c4"/>
     <use xlink:href="#m95f9a69f6e" x="104.207088" y="149.805455" style="fill: #4888c4; stroke: #4888c4"/>
     <use xlink:href="#m95f9a69f6e" x="114.101314" y="218.238909" style="fill: #4888c4; stroke: #4888c4"/>
     <use xlink:href="#m95f9a69f6e" x="123.995541" y="209.684727" style="fill: #4888c4; stroke: #4888c4"/>
     <use xlink:href="#m95f9a69f6e" x="133.889767" y="235.347273" style="fill: #4888c4; stroke: #4888c4"/>
     <use xlink:href="#m95f9a69f6e" x="143.783993" y="235.347273" style="fill: #4888c4; stroke: #4888c4"/>
     <use xlink:href="#m95f9a69f6e" x="153.678219" y="235.347273" style="fill: #4888c4; stroke: #4888c4"/>
     <use xlink:href="#m95f9a69f6e" x="163.572445" y="235.347273" style="fill: #4888c4; stroke: #4888c4"/>
     <use xlink:href="#m95f9a69f6e" x="173.466671" y="235.347273" style="fill: #4888c4; stroke: #4888c4"/>
     <use xlink:href="#m95f9a69f6e" x="183.360897" y="235.347273" style="fill: #4888c4; stroke: #4888c4"/>
     <use xlink:href="#m95f9a69f6e" x="193.255123" y="235.347273" style="fill: #4888c4; stroke: #4888c4"/>
     <use xlink:href="#m95f9a69f6e" x="203.149349" y="235.347273" style="fill: #4888c4; stroke: #4888c4"/>
     <use xlink:href="#m95f9a69f6e" x="213.043575" y="226.793091" style="fill: #4888c4; stroke: #4888c4"/>
     <use xlink:href="#m95f9a69f6e" x="222.937801" y="235.347273" style="fill: #4888c4; stroke: #4888c4"/>
     <use xlink:href="#m95f9a69f6e" x="232.832027" y="235.347273" style="fill: #4888c4; stroke: #4888c4"/>
     <use xlink:href="#m95f9a69f6e" x="242.726253" y="235.347273" style="fill: #4888c4; stroke: #4888c4"/>
     <use xlink:href="#m95f9a69f6e" x="252.620479" y="235.347273" style="fill: #4888c4; stroke: #4888c4"/>
     <use xlink:href="#m95f9a69f6e" x="262.514705" y="226.793091" style="fill: #4888c4; stroke: #4888c4"/>
     <use xlink:href="#m95f9a69f6e" x="272.408931" y="226.793091" style="fill: #4888c4; stroke: #4888c4"/>
     <use xlink:href="#m95f9a69f6e" x="282.303157" y="235.347273" style="fill: #4888c4; stroke: #4888c4"/>
     <use xlink:href="#m95f9a69f6e" x="292.197383" y="235.347273" style="fill: #4888c4; stroke: #4888c4"/>
     <use xlink:href="#m95f9a69f6e" x="302.091609" y="235.347273" style="fill: #4888c4; stroke: #4888c4"/>
     <use xlink:href="#m95f9a69f6e" x="311.985835" y="192.576364" style="fill: #4888c4; stroke: #4888c4"/>
     <use xlink:href="#m95f9a69f6e" x="321.880061" y="235.347273" style="fill: #4888c4; stroke: #4888c4"/>
     <use xlink:href="#m95f9a69f6e" x="331.774287" y="235.347273" style="fill: #4888c4; stroke: #4888c4"/>
     <use xlink:href="#m95f9a69f6e" x="341.668514" y="235.347273" style="fill: #4888c4; stroke: #4888c4"/>
     <use xlink:href="#m95f9a69f6e" x="351.56274" y="235.347273" style="fill: #4888c4; stroke: #4888c4"/>
     <use xlink:href="#m95f9a69f6e" x="361.456966" y="226.793091" style="fill: #4888c4; stroke: #4888c4"/>
     <use xlink:href="#m95f9a69f6e" x="371.351192" y="235.347273" style="fill: #4888c4; stroke: #4888c4"/>
     <use xlink:href="#m95f9a69f6e" x="381.245418" y="235.347273" style="fill: #4888c4; stroke: #4888c4"/>
     <use xlink:href="#m95f9a69f6e" x="391.139644" y="235.347273" style="fill: #4888c4; stroke: #4888c4"/>
     <use xlink:href="#m95f9a69f6e" x="401.03387" y="235.347273" style="fill: #4888c4; stroke: #4888c4"/>
     <use xlink:href="#m95f9a69f6e" x="410.928096" y="149.805455" style="fill: #4888c4; stroke: #4888c4"/>
     <use xlink:href="#m95f9a69f6e" x="420.822322" y="235.347273" style="fill: #4888c4; stroke: #4888c4"/>
     <use xlink:href="#m95f9a69f6e" x="430.716548" y="235.347273" style="fill: #4888c4; stroke: #4888c4"/>
     <use xlink:href="#m95f9a69f6e" x="440.610774" y="235.347273" style="fill: #4888c4; stroke: #4888c4"/>
     <use xlink:href="#m95f9a69f6e" x="450.505" y="235.347273" style="fill: #4888c4; stroke: #4888c4"/>
     <use xlink:href="#m95f9a69f6e" x="460.399226" y="235.347273" style="fill: #4888c4; stroke: #4888c4"/>
     <use xlink:href="#m95f9a69f6e" x="470.293452" y="235.347273" style="fill: #4888c4; stroke: #4888c4"/>
     <use xlink:href="#m95f9a69f6e" x="480.187678" y="235.347273" style="fill: #4888c4; stroke: #4888c4"/>
     <use xlink:href="#m95f9a69f6e" x="490.081904" y="235.347273" style="fill: #4888c4; stroke: #4888c4"/>
     <use xlink:href="#m95f9a69f6e" x="499.97613" y="235.347273" style="fill: #4888c4; stroke: #4888c4"/>
     <use xlink:href="#m95f9a69f6e" x="509.870356" y="235.347273" style="fill: #4888c4; stroke: #4888c4"/>
     <use xlink:href="#m95f9a69f6e" x="519.764582" y="201.130545" style="fill: #4888c4; stroke: #4888c4"/>
     <use xlink:href="#m95f9a69f6e" x="529.658808" y="235.347273" style="fill: #4888c4; stroke: #4888c4"/>
     <use xlink:href="#m95f9a69f6e" x="539.553034" y="226.793091" style="fill: #4888c4; stroke: #4888c4"/>
     <use xlink:href="#m95f9a69f6e" x="549.44726" y="235.347273" style="fill: #4888c4; stroke: #4888c4"/>
     <use xlink:href="#m95f9a69f6e" x="559.341486" y="235.347273" style="fill: #4888c4; stroke: #4888c4"/>
     <use xlink:href="#m95f9a69f6e" x="569.235713" y="235.347273" style="fill: #4888c4; stroke: #4888c4"/>
     <use xlink:href="#m95f9a69f6e" x="579.129939" y="218.238909" style="fill: #4888c4; stroke: #4888c4"/>
     <use xlink:href="#m95f9a69f6e" x="589.024165" y="235.347273" style="fill: #4888c4; stroke: #4888c4"/>
     <use xlink:href="#m95f9a69f6e" x="598.918391" y="235.347273" style="fill: #4888c4; stroke: #4888c4"/>
     <use xlink:href="#m95f9a69f6e" x="608.812617" y="235.347273" style="fill: #4888c4; stroke: #4888c4"/>
     <use xlink:href="#m95f9a69f6e" x="618.706843" y="235.347273" style="fill: #4888c4; stroke: #4888c4"/>
     <use xlink:href="#m95f9a69f6e" x="628.601069" y="235.347273" style="fill: #4888c4; stroke: #4888c4"/>
     <use xlink:href="#m95f9a69f6e" x="638.495295" y="209.684727" style="fill: #4888c4; stroke: #4888c4"/>
     <use xlink:href="#m95f9a69f6e" x="648.389521" y="235.347273" style="fill: #4888c4; stroke: #4888c4"/>
     <use xlink:href="#m95f9a69f6e" x="658.283747" y="209.684727" style="fill: #4888c4; stroke: #4888c4"/>
     <use xlink:href="#m95f9a69f6e" x="668.177973" y="21.492727" style="fill: #4888c4; stroke: #4888c4"/>
     <use xlink:href="#m95f9a69f6e" x="678.072199" y="235.347273" style="fill: #4888c4; stroke: #4888c4"/>
     <use xlink:href="#m95f9a69f6e" x="687.966425" y="235.347273" style="fill: #4888c4; stroke: #4888c4"/>
     <use xlink:href="#m95f9a69f6e" x="697.860651" y="226.793091" style="fill: #4888c4; stroke: #4888c4"/>
     <use xlink:href="#m95f9a69f6e" x="707.754877" y="235.347273" style="fill: #4888c4; stroke: #4888c4"/>
     <use xlink:href="#m95f9a69f6e" x="717.649103" y="235.347273" style="fill: #4888c4; stroke: #4888c4"/>
     <use xlink:href="#m95f9a69f6e" x="727.543329" y="235.347273" style="fill: #4888c4; stroke: #4888c4"/>
     <use xlink:href="#m95f9a69f6e" x="737.437555" y="235.347273" style="fill: #4888c4; stroke: #4888c4"/>
     <use xlink:href="#m95f9a69f6e" x="747.331781" y="21.492727" style="fill: #4888c4; stroke: #4888c4"/>
     <use xlink:href="#m95f9a69f6e" x="757.226007" y="235.347273" style="fill: #4888c4; stroke: #4888c4"/>
     <use xlink:href="#m95f9a69f6e" x="767.120233" y="158.359636" style="fill: #4888c4; stroke: #4888c4"/>
     <use xlink:href="#m95f9a69f6e" x="777.014459" y="235.347273" style="fill: #4888c4; stroke: #4888c4"/>
     <use xlink:href="#m95f9a69f6e" x="786.908686" y="235.347273" style="fill: #4888c4; stroke: #4888c4"/>
     <use xlink:href="#m95f9a69f6e" x="796.802912" y="235.347273" style="fill: #4888c4; stroke: #4888c4"/>
     <use xlink:href="#m95f9a69f6e" x="806.697138" y="235.347273" style="fill: #4888c4; stroke: #4888c4"/>
     <use xlink:href="#m95f9a69f6e" x="816.591364" y="235.347273" style="fill: #4888c4; stroke: #4888c4"/>
    </g>
   </g>
   <g id="matplotlib.axis_1">
    <g id="xtick_1">
     <g id="line2d_1">
      <path d="M 84.418636 246.04 
L 84.418636 10.8 
" clip-path="url(#p2b9eb85123)" style="fill: none; stroke: #b0b0b0; stroke-width: 0.8; stroke-linecap: square"/>
     </g>
     <g id="line2d_2">
      <defs>
       <path id="mdddbaeb429" d="M 0 0 
L 0 3.5 
" style="stroke: #000000; stroke-width: 0.8"/>
      </defs>
      <g>
       <use xlink:href="#mdddbaeb429" x="84.418636" y="246.04" style="stroke: #000000; stroke-width: 0.8"/>
      </g>
     </g>
     <g id="text_1">
      <!-- 1950 -->
      <g transform="translate(71.693636 260.638438) scale(0.1 -0.1)">
       <defs>
        <path id="DejaVuSans-31" d="M 794 531 
L 1825 531 
L 1825 4091 
L 703 3866 
L 703 4441 
L 1819 4666 
L 2450 4666 
L 2450 531 
L 3481 531 
L 3481 0 
L 794 0 
L 794 531 
z
" transform="scale(0.015625)"/>
        <path id="DejaVuSans-39" d="M 703 97 
L 703 672 
Q 941 559 1184 500 
Q 1428 441 1663 441 
Q 2288 441 2617 861 
Q 2947 1281 2994 2138 
Q 2813 1869 2534 1725 
Q 2256 1581 1919 1581 
Q 1219 1581 811 2004 
Q 403 2428 403 3163 
Q 403 3881 828 4315 
Q 1253 4750 1959 4750 
Q 2769 4750 3195 4129 
Q 3622 3509 3622 2328 
Q 3622 1225 3098 567 
Q 2575 -91 1691 -91 
Q 1453 -91 1209 -44 
Q 966 3 703 97 
z
M 1959 2075 
Q 2384 2075 2632 2365 
Q 2881 2656 2881 3163 
Q 2881 3666 2632 3958 
Q 2384 4250 1959 4250 
Q 1534 4250 1286 3958 
Q 1038 3666 1038 3163 
Q 1038 2656 1286 2365 
Q 1534 2075 1959 2075 
z
" transform="scale(0.015625)"/>
        <path id="DejaVuSans-35" d="M 691 4666 
L 3169 4666 
L 3169 4134 
L 1269 4134 
L 1269 2991 
Q 1406 3038 1543 3061 
Q 1681 3084 1819 3084 
Q 2600 3084 3056 2656 
Q 3513 2228 3513 1497 
Q 3513 744 3044 326 
Q 2575 -91 1722 -91 
Q 1428 -91 1123 -41 
Q 819 9 494 109 
L 494 744 
Q 775 591 1075 516 
Q 1375 441 1709 441 
Q 2250 441 2565 725 
Q 2881 1009 2881 1497 
Q 2881 1984 2565 2268 
Q 2250 2553 1709 2553 
Q 1456 2553 1204 2497 
Q 953 2441 691 2322 
L 691 4666 
z
" transform="scale(0.015625)"/>
        <path id="DejaVuSans-30" d="M 2034 4250 
Q 1547 4250 1301 3770 
Q 1056 3291 1056 2328 
Q 1056 1369 1301 889 
Q 1547 409 2034 409 
Q 2525 409 2770 889 
Q 3016 1369 3016 2328 
Q 3016 3291 2770 3770 
Q 2525 4250 2034 4250 
z
M 2034 4750 
Q 2819 4750 3233 4129 
Q 3647 3509 3647 2328 
Q 3647 1150 3233 529 
Q 2819 -91 2034 -91 
Q 1250 -91 836 529 
Q 422 1150 422 2328 
Q 422 3509 836 4129 
Q 1250 4750 2034 4750 
z
" transform="scale(0.015625)"/>
       </defs>
       <use xlink:href="#DejaVuSans-31"/>
       <use xlink:href="#DejaVuSans-39" transform="translate(63.623047 0)"/>
       <use xlink:href="#DejaVuSans-35" transform="translate(127.246094 0)"/>
       <use xlink:href="#DejaVuSans-30" transform="translate(190.869141 0)"/>
      </g>
     </g>
    </g>
    <g id="xtick_2">
     <g id="line2d_3">
      <path d="M 133.889767 246.04 
L 133.889767 10.8 
" clip-path="url(#p2b9eb85123)" style="fill: none; stroke: #b0b0b0; stroke-width: 0.8; stroke-linecap: square"/>
     </g>
     <g id="line2d_4">
      <g>
       <use xlink:href="#mdddbaeb429" x="133.889767" y="246.04" style="stroke: #000000; stroke-width: 0.8"/>
      </g>
     </g>
     <g id="text_2">
      <!-- 1955 -->
      <g transform="translate(121.164767 260.638438) scale(0.1 -0.1)">
       <use xlink:href="#DejaVuSans-31"/>
       <use xlink:href="#DejaVuSans-39" transform="translate(63.623047 0)"/>
       <use xlink:href="#DejaVuSans-35" transform="translate(127.246094 0)"/>
       <use xlink:href="#DejaVuSans-35" transform="translate(190.869141 0)"/>
      </g>
     </g>
    </g>
    <g id="xtick_3">
     <g id="line2d_5">
      <path d="M 183.360897 246.04 
L 183.360897 10.8 
" clip-path="url(#p2b9eb85123)" style="fill: none; stroke: #b0b0b0; stroke-width: 0.8; stroke-linecap: square"/>
     </g>
     <g id="line2d_6">
      <g>
       <use xlink:href="#mdddbaeb429" x="183.360897" y="246.04" style="stroke: #000000; stroke-width: 0.8"/>
      </g>
     </g>
     <g id="text_3">
      <!-- 1960 -->
      <g transform="translate(170.635897 260.638438) scale(0.1 -0.1)">
       <defs>
        <path id="DejaVuSans-36" d="M 2113 2584 
Q 1688 2584 1439 2293 
Q 1191 2003 1191 1497 
Q 1191 994 1439 701 
Q 1688 409 2113 409 
Q 2538 409 2786 701 
Q 3034 994 3034 1497 
Q 3034 2003 2786 2293 
Q 2538 2584 2113 2584 
z
M 3366 4563 
L 3366 3988 
Q 3128 4100 2886 4159 
Q 2644 4219 2406 4219 
Q 1781 4219 1451 3797 
Q 1122 3375 1075 2522 
Q 1259 2794 1537 2939 
Q 1816 3084 2150 3084 
Q 2853 3084 3261 2657 
Q 3669 2231 3669 1497 
Q 3669 778 3244 343 
Q 2819 -91 2113 -91 
Q 1303 -91 875 529 
Q 447 1150 447 2328 
Q 447 3434 972 4092 
Q 1497 4750 2381 4750 
Q 2619 4750 2861 4703 
Q 3103 4656 3366 4563 
z
" transform="scale(0.015625)"/>
       </defs>
       <use xlink:href="#DejaVuSans-31"/>
       <use xlink:href="#DejaVuSans-39" transform="translate(63.623047 0)"/>
       <use xlink:href="#DejaVuSans-36" transform="translate(127.246094 0)"/>
       <use xlink:href="#DejaVuSans-30" transform="translate(190.869141 0)"/>
      </g>
     </g>
    </g>
    <g id="xtick_4">
     <g id="line2d_7">
      <path d="M 232.832027 246.04 
L 232.832027 10.8 
" clip-path="url(#p2b9eb85123)" style="fill: none; stroke: #b0b0b0; stroke-width: 0.8; stroke-linecap: square"/>
     </g>
     <g id="line2d_8">
      <g>
       <use xlink:href="#mdddbaeb429" x="232.832027" y="246.04" style="stroke: #000000; stroke-width: 0.8"/>
      </g>
     </g>
     <g id="text_4">
      <!-- 1965 -->
      <g transform="translate(220.107027 260.638438) scale(0.1 -0.1)">
       <use xlink:href="#DejaVuSans-31"/>
       <use xlink:href="#DejaVuSans-39" transform="translate(63.623047 0)"/>
       <use xlink:href="#DejaVuSans-36" transform="translate(127.246094 0)"/>
       <use xlink:href="#DejaVuSans-35" transform="translate(190.869141 0)"/>
      </g>
     </g>
    </g>
    <g id="xtick_5">
     <g id="line2d_9">
      <path d="M 282.303157 246.04 
L 282.303157 10.8 
" clip-path="url(#p2b9eb85123)" style="fill: none; stroke: #b0b0b0; stroke-width: 0.8; stroke-linecap: square"/>
     </g>
     <g id="line2d_10">
      <g>
       <use xlink:href="#mdddbaeb429" x="282.303157" y="246.04" style="stroke: #000000; stroke-width: 0.8"/>
      </g>
     </g>
     <g id="text_5">
      <!-- 1970 -->
      <g transform="translate(269.578157 260.638438) scale(0.1 -0.1)">
       <defs>
        <path id="DejaVuSans-37" d="M 525 4666 
L 3525 4666 
L 3525 4397 
L 1831 0 
L 1172 0 
L 2766 4134 
L 525 4134 
L 525 4666 
z
" transform="scale(0.015625)"/>
       </defs>
       <use xlink:href="#DejaVuSans-31"/>
       <use xlink:href="#DejaVuSans-39" transform="translate(63.623047 0)"/>
       <use xlink:href="#DejaVuSans-37" transform="translate(127.246094 0)"/>
       <use xlink:href="#DejaVuSans-30" transform="translate(190.869141 0)"/>
      </g>
     </g>
    </g>
    <g id="xtick_6">
     <g id="line2d_11">
      <path d="M 331.774287 246.04 
L 331.774287 10.8 
" clip-path="url(#p2b9eb85123)" style="fill: none; stroke: #b0b0b0; stroke-width: 0.8; stroke-linecap: square"/>
     </g>
     <g id="line2d_12">
      <g>
       <use xlink:href="#mdddbaeb429" x="331.774287" y="246.04" style="stroke: #000000; stroke-width: 0.8"/>
      </g>
     </g>
     <g id="text_6">
      <!-- 1975 -->
      <g transform="translate(319.049287 260.638438) scale(0.1 -0.1)">
       <use xlink:href="#DejaVuSans-31"/>
       <use xlink:href="#DejaVuSans-39" transform="translate(63.623047 0)"/>
       <use xlink:href="#DejaVuSans-37" transform="translate(127.246094 0)"/>
       <use xlink:href="#DejaVuSans-35" transform="translate(190.869141 0)"/>
      </g>
     </g>
    </g>
    <g id="xtick_7">
     <g id="line2d_13">
      <path d="M 381.245418 246.04 
L 381.245418 10.8 
" clip-path="url(#p2b9eb85123)" style="fill: none; stroke: #b0b0b0; stroke-width: 0.8; stroke-linecap: square"/>
     </g>
     <g id="line2d_14">
      <g>
       <use xlink:href="#mdddbaeb429" x="381.245418" y="246.04" style="stroke: #000000; stroke-width: 0.8"/>
      </g>
     </g>
     <g id="text_7">
      <!-- 1980 -->
      <g transform="translate(368.520418 260.638438) scale(0.1 -0.1)">
       <defs>
        <path id="DejaVuSans-38" d="M 2034 2216 
Q 1584 2216 1326 1975 
Q 1069 1734 1069 1313 
Q 1069 891 1326 650 
Q 1584 409 2034 409 
Q 2484 409 2743 651 
Q 3003 894 3003 1313 
Q 3003 1734 2745 1975 
Q 2488 2216 2034 2216 
z
M 1403 2484 
Q 997 2584 770 2862 
Q 544 3141 544 3541 
Q 544 4100 942 4425 
Q 1341 4750 2034 4750 
Q 2731 4750 3128 4425 
Q 3525 4100 3525 3541 
Q 3525 3141 3298 2862 
Q 3072 2584 2669 2484 
Q 3125 2378 3379 2068 
Q 3634 1759 3634 1313 
Q 3634 634 3220 271 
Q 2806 -91 2034 -91 
Q 1263 -91 848 271 
Q 434 634 434 1313 
Q 434 1759 690 2068 
Q 947 2378 1403 2484 
z
M 1172 3481 
Q 1172 3119 1398 2916 
Q 1625 2713 2034 2713 
Q 2441 2713 2670 2916 
Q 2900 3119 2900 3481 
Q 2900 3844 2670 4047 
Q 2441 4250 2034 4250 
Q 1625 4250 1398 4047 
Q 1172 3844 1172 3481 
z
" transform="scale(0.015625)"/>
       </defs>
       <use xlink:href="#DejaVuSans-31"/>
       <use xlink:href="#DejaVuSans-39" transform="translate(63.623047 0)"/>
       <use xlink:href="#DejaVuSans-38" transform="translate(127.246094 0)"/>
       <use xlink:href="#DejaVuSans-30" transform="translate(190.869141 0)"/>
      </g>
     </g>
    </g>
    <g id="xtick_8">
     <g id="line2d_15">
      <path d="M 430.716548 246.04 
L 430.716548 10.8 
" clip-path="url(#p2b9eb85123)" style="fill: none; stroke: #b0b0b0; stroke-width: 0.8; stroke-linecap: square"/>
     </g>
     <g id="line2d_16">
      <g>
       <use xlink:href="#mdddbaeb429" x="430.716548" y="246.04" style="stroke: #000000; stroke-width: 0.8"/>
      </g>
     </g>
     <g id="text_8">
      <!-- 1985 -->
      <g transform="translate(417.991548 260.638438) scale(0.1 -0.1)">
       <use xlink:href="#DejaVuSans-31"/>
       <use xlink:href="#DejaVuSans-39" transform="translate(63.623047 0)"/>
       <use xlink:href="#DejaVuSans-38" transform="translate(127.246094 0)"/>
       <use xlink:href="#DejaVuSans-35" transform="translate(190.869141 0)"/>
      </g>
     </g>
    </g>
    <g id="xtick_9">
     <g id="line2d_17">
      <path d="M 480.187678 246.04 
L 480.187678 10.8 
" clip-path="url(#p2b9eb85123)" style="fill: none; stroke: #b0b0b0; stroke-width: 0.8; stroke-linecap: square"/>
     </g>
     <g id="line2d_18">
      <g>
       <use xlink:href="#mdddbaeb429" x="480.187678" y="246.04" style="stroke: #000000; stroke-width: 0.8"/>
      </g>
     </g>
     <g id="text_9">
      <!-- 1990 -->
      <g transform="translate(467.462678 260.638438) scale(0.1 -0.1)">
       <use xlink:href="#DejaVuSans-31"/>
       <use xlink:href="#DejaVuSans-39" transform="translate(63.623047 0)"/>
       <use xlink:href="#DejaVuSans-39" transform="translate(127.246094 0)"/>
       <use xlink:href="#DejaVuSans-30" transform="translate(190.869141 0)"/>
      </g>
     </g>
    </g>
    <g id="xtick_10">
     <g id="line2d_19">
      <path d="M 529.658808 246.04 
L 529.658808 10.8 
" clip-path="url(#p2b9eb85123)" style="fill: none; stroke: #b0b0b0; stroke-width: 0.8; stroke-linecap: square"/>
     </g>
     <g id="line2d_20">
      <g>
       <use xlink:href="#mdddbaeb429" x="529.658808" y="246.04" style="stroke: #000000; stroke-width: 0.8"/>
      </g>
     </g>
     <g id="text_10">
      <!-- 1995 -->
      <g transform="translate(516.933808 260.638438) scale(0.1 -0.1)">
       <use xlink:href="#DejaVuSans-31"/>
       <use xlink:href="#DejaVuSans-39" transform="translate(63.623047 0)"/>
       <use xlink:href="#DejaVuSans-39" transform="translate(127.246094 0)"/>
       <use xlink:href="#DejaVuSans-35" transform="translate(190.869141 0)"/>
      </g>
     </g>
    </g>
    <g id="xtick_11">
     <g id="line2d_21">
      <path d="M 579.129939 246.04 
L 579.129939 10.8 
" clip-path="url(#p2b9eb85123)" style="fill: none; stroke: #b0b0b0; stroke-width: 0.8; stroke-linecap: square"/>
     </g>
     <g id="line2d_22">
      <g>
       <use xlink:href="#mdddbaeb429" x="579.129939" y="246.04" style="stroke: #000000; stroke-width: 0.8"/>
      </g>
     </g>
     <g id="text_11">
      <!-- 2000 -->
      <g transform="translate(566.404939 260.638438) scale(0.1 -0.1)">
       <defs>
        <path id="DejaVuSans-32" d="M 1228 531 
L 3431 531 
L 3431 0 
L 469 0 
L 469 531 
Q 828 903 1448 1529 
Q 2069 2156 2228 2338 
Q 2531 2678 2651 2914 
Q 2772 3150 2772 3378 
Q 2772 3750 2511 3984 
Q 2250 4219 1831 4219 
Q 1534 4219 1204 4116 
Q 875 4013 500 3803 
L 500 4441 
Q 881 4594 1212 4672 
Q 1544 4750 1819 4750 
Q 2544 4750 2975 4387 
Q 3406 4025 3406 3419 
Q 3406 3131 3298 2873 
Q 3191 2616 2906 2266 
Q 2828 2175 2409 1742 
Q 1991 1309 1228 531 
z
" transform="scale(0.015625)"/>
       </defs>
       <use xlink:href="#DejaVuSans-32"/>
       <use xlink:href="#DejaVuSans-30" transform="translate(63.623047 0)"/>
       <use xlink:href="#DejaVuSans-30" transform="translate(127.246094 0)"/>
       <use xlink:href="#DejaVuSans-30" transform="translate(190.869141 0)"/>
      </g>
     </g>
    </g>
    <g id="xtick_12">
     <g id="line2d_23">
      <path d="M 628.601069 246.04 
L 628.601069 10.8 
" clip-path="url(#p2b9eb85123)" style="fill: none; stroke: #b0b0b0; stroke-width: 0.8; stroke-linecap: square"/>
     </g>
     <g id="line2d_24">
      <g>
       <use xlink:href="#mdddbaeb429" x="628.601069" y="246.04" style="stroke: #000000; stroke-width: 0.8"/>
      </g>
     </g>
     <g id="text_12">
      <!-- 2005 -->
      <g transform="translate(615.876069 260.638438) scale(0.1 -0.1)">
       <use xlink:href="#DejaVuSans-32"/>
       <use xlink:href="#DejaVuSans-30" transform="translate(63.623047 0)"/>
       <use xlink:href="#DejaVuSans-30" transform="translate(127.246094 0)"/>
       <use xlink:href="#DejaVuSans-35" transform="translate(190.869141 0)"/>
      </g>
     </g>
    </g>
    <g id="xtick_13">
     <g id="line2d_25">
      <path d="M 678.072199 246.04 
L 678.072199 10.8 
" clip-path="url(#p2b9eb85123)" style="fill: none; stroke: #b0b0b0; stroke-width: 0.8; stroke-linecap: square"/>
     </g>
     <g id="line2d_26">
      <g>
       <use xlink:href="#mdddbaeb429" x="678.072199" y="246.04" style="stroke: #000000; stroke-width: 0.8"/>
      </g>
     </g>
     <g id="text_13">
      <!-- 2010 -->
      <g transform="translate(665.347199 260.638438) scale(0.1 -0.1)">
       <use xlink:href="#DejaVuSans-32"/>
       <use xlink:href="#DejaVuSans-30" transform="translate(63.623047 0)"/>
       <use xlink:href="#DejaVuSans-31" transform="translate(127.246094 0)"/>
       <use xlink:href="#DejaVuSans-30" transform="translate(190.869141 0)"/>
      </g>
     </g>
    </g>
    <g id="xtick_14">
     <g id="line2d_27">
      <path d="M 727.543329 246.04 
L 727.543329 10.8 
" clip-path="url(#p2b9eb85123)" style="fill: none; stroke: #b0b0b0; stroke-width: 0.8; stroke-linecap: square"/>
     </g>
     <g id="line2d_28">
      <g>
       <use xlink:href="#mdddbaeb429" x="727.543329" y="246.04" style="stroke: #000000; stroke-width: 0.8"/>
      </g>
     </g>
     <g id="text_14">
      <!-- 2015 -->
      <g transform="translate(714.818329 260.638438) scale(0.1 -0.1)">
       <use xlink:href="#DejaVuSans-32"/>
       <use xlink:href="#DejaVuSans-30" transform="translate(63.623047 0)"/>
       <use xlink:href="#DejaVuSans-31" transform="translate(127.246094 0)"/>
       <use xlink:href="#DejaVuSans-35" transform="translate(190.869141 0)"/>
      </g>
     </g>
    </g>
    <g id="xtick_15">
     <g id="line2d_29">
      <path d="M 777.014459 246.04 
L 777.014459 10.8 
" clip-path="url(#p2b9eb85123)" style="fill: none; stroke: #b0b0b0; stroke-width: 0.8; stroke-linecap: square"/>
     </g>
     <g id="line2d_30">
      <g>
       <use xlink:href="#mdddbaeb429" x="777.014459" y="246.04" style="stroke: #000000; stroke-width: 0.8"/>
      </g>
     </g>
     <g id="text_15">
      <!-- 2020 -->
      <g transform="translate(764.289459 260.638438) scale(0.1 -0.1)">
       <use xlink:href="#DejaVuSans-32"/>
       <use xlink:href="#DejaVuSans-30" transform="translate(63.623047 0)"/>
       <use xlink:href="#DejaVuSans-32" transform="translate(127.246094 0)"/>
       <use xlink:href="#DejaVuSans-30" transform="translate(190.869141 0)"/>
      </g>
     </g>
    </g>
    <g id="text_16">
     <!-- Year -->
     <g transform="translate(439.9175 274.316562) scale(0.1 -0.1)">
      <defs>
       <path id="DejaVuSans-59" d="M -13 4666 
L 666 4666 
L 1959 2747 
L 3244 4666 
L 3922 4666 
L 2272 2222 
L 2272 0 
L 1638 0 
L 1638 2222 
L -13 4666 
z
" transform="scale(0.015625)"/>
       <path id="DejaVuSans-65" d="M 3597 1894 
L 3597 1613 
L 953 1613 
Q 991 1019 1311 708 
Q 1631 397 2203 397 
Q 2534 397 2845 478 
Q 3156 559 3463 722 
L 3463 178 
Q 3153 47 2828 -22 
Q 2503 -91 2169 -91 
Q 1331 -91 842 396 
Q 353 884 353 1716 
Q 353 2575 817 3079 
Q 1281 3584 2069 3584 
Q 2775 3584 3186 3129 
Q 3597 2675 3597 1894 
z
M 3022 2063 
Q 3016 2534 2758 2815 
Q 2500 3097 2075 3097 
Q 1594 3097 1305 2825 
Q 1016 2553 972 2059 
L 3022 2063 
z
" transform="scale(0.015625)"/>
       <path id="DejaVuSans-61" d="M 2194 1759 
Q 1497 1759 1228 1600 
Q 959 1441 959 1056 
Q 959 750 1161 570 
Q 1363 391 1709 391 
Q 2188 391 2477 730 
Q 2766 1069 2766 1631 
L 2766 1759 
L 2194 1759 
z
M 3341 1997 
L 3341 0 
L 2766 0 
L 2766 531 
Q 2569 213 2275 61 
Q 1981 -91 1556 -91 
Q 1019 -91 701 211 
Q 384 513 384 1019 
Q 384 1609 779 1909 
Q 1175 2209 1959 2209 
L 2766 2209 
L 2766 2266 
Q 2766 2663 2505 2880 
Q 2244 3097 1772 3097 
Q 1472 3097 1187 3025 
Q 903 2953 641 2809 
L 641 3341 
Q 956 3463 1253 3523 
Q 1550 3584 1831 3584 
Q 2591 3584 2966 3190 
Q 3341 2797 3341 1997 
z
" transform="scale(0.015625)"/>
       <path id="DejaVuSans-72" d="M 2631 2963 
Q 2534 3019 2420 3045 
Q 2306 3072 2169 3072 
Q 1681 3072 1420 2755 
Q 1159 2438 1159 1844 
L 1159 0 
L 581 0 
L 581 3500 
L 1159 3500 
L 1159 2956 
Q 1341 3275 1631 3429 
Q 1922 3584 2338 3584 
Q 2397 3584 2469 3576 
Q 2541 3569 2628 3553 
L 2631 2963 
z
" transform="scale(0.015625)"/>
      </defs>
      <use xlink:href="#DejaVuSans-59"/>
      <use xlink:href="#DejaVuSans-65" transform="translate(47.833984 0)"/>
      <use xlink:href="#DejaVuSans-61" transform="translate(109.357422 0)"/>
      <use xlink:href="#DejaVuSans-72" transform="translate(170.636719 0)"/>
     </g>
    </g>
   </g>
   <g id="matplotlib.axis_2">
    <g id="ytick_1">
     <g id="line2d_31">
      <defs>
       <path id="mca3b4e63ae" d="M 0 0 
L -3.5 0 
" style="stroke: #000000; stroke-width: 0.8"/>
      </defs>
      <g>
       <use xlink:href="#mca3b4e63ae" x="47.81" y="235.347273" style="stroke: #000000; stroke-width: 0.8"/>
      </g>
     </g>
     <g id="text_17">
      <!-- 0.0 -->
      <g transform="translate(24.906875 239.146491) scale(0.1 -0.1)">
       <defs>
        <path id="DejaVuSans-2e" d="M 684 794 
L 1344 794 
L 1344 0 
L 684 0 
L 684 794 
z
" transform="scale(0.015625)"/>
       </defs>
       <use xlink:href="#DejaVuSans-30"/>
       <use xlink:href="#DejaVuSans-2e" transform="translate(63.623047 0)"/>
       <use xlink:href="#DejaVuSans-30" transform="translate(95.410156 0)"/>
      </g>
     </g>
    </g>
    <g id="ytick_2">
     <g id="line2d_32">
      <g>
       <use xlink:href="#mca3b4e63ae" x="47.81" y="192.576364" style="stroke: #000000; stroke-width: 0.8"/>
      </g>
     </g>
     <g id="text_18">
      <!-- 0.5 -->
      <g transform="translate(24.906875 196.375582) scale(0.1 -0.1)">
       <use xlink:href="#DejaVuSans-30"/>
       <use xlink:href="#DejaVuSans-2e" transform="translate(63.623047 0)"/>
       <use xlink:href="#DejaVuSans-35" transform="translate(95.410156 0)"/>
      </g>
     </g>
    </g>
    <g id="ytick_3">
     <g id="line2d_33">
      <g>
       <use xlink:href="#mca3b4e63ae" x="47.81" y="149.805455" style="stroke: #000000; stroke-width: 0.8"/>
      </g>
     </g>
     <g id="text_19">
      <!-- 1.0 -->
      <g transform="translate(24.906875 153.604673) scale(0.1 -0.1)">
       <use xlink:href="#DejaVuSans-31"/>
       <use xlink:href="#DejaVuSans-2e" transform="translate(63.623047 0)"/>
       <use xlink:href="#DejaVuSans-30" transform="translate(95.410156 0)"/>
      </g>
     </g>
    </g>
    <g id="ytick_4">
     <g id="line2d_34">
      <g>
       <use xlink:href="#mca3b4e63ae" x="47.81" y="107.034545" style="stroke: #000000; stroke-width: 0.8"/>
      </g>
     </g>
     <g id="text_20">
      <!-- 1.5 -->
      <g transform="translate(24.906875 110.833764) scale(0.1 -0.1)">
       <use xlink:href="#DejaVuSans-31"/>
       <use xlink:href="#DejaVuSans-2e" transform="translate(63.623047 0)"/>
       <use xlink:href="#DejaVuSans-35" transform="translate(95.410156 0)"/>
      </g>
     </g>
    </g>
    <g id="ytick_5">
     <g id="line2d_35">
      <g>
       <use xlink:href="#mca3b4e63ae" x="47.81" y="64.263636" style="stroke: #000000; stroke-width: 0.8"/>
      </g>
     </g>
     <g id="text_21">
      <!-- 2.0 -->
      <g transform="translate(24.906875 68.062855) scale(0.1 -0.1)">
       <use xlink:href="#DejaVuSans-32"/>
       <use xlink:href="#DejaVuSans-2e" transform="translate(63.623047 0)"/>
       <use xlink:href="#DejaVuSans-30" transform="translate(95.410156 0)"/>
      </g>
     </g>
    </g>
    <g id="ytick_6">
     <g id="line2d_36">
      <g>
       <use xlink:href="#mca3b4e63ae" x="47.81" y="21.492727" style="stroke: #000000; stroke-width: 0.8"/>
      </g>
     </g>
     <g id="text_22">
      <!-- 2.5 -->
      <g transform="translate(24.906875 25.291946) scale(0.1 -0.1)">
       <use xlink:href="#DejaVuSans-32"/>
       <use xlink:href="#DejaVuSans-2e" transform="translate(63.623047 0)"/>
       <use xlink:href="#DejaVuSans-35" transform="translate(95.410156 0)"/>
      </g>
     </g>
    </g>
    <g id="text_23">
     <!-- Precipitation -->
     <g transform="translate(18.827187 159.67) rotate(-90) scale(0.1 -0.1)">
      <defs>
       <path id="DejaVuSans-50" d="M 1259 4147 
L 1259 2394 
L 2053 2394 
Q 2494 2394 2734 2622 
Q 2975 2850 2975 3272 
Q 2975 3691 2734 3919 
Q 2494 4147 2053 4147 
L 1259 4147 
z
M 628 4666 
L 2053 4666 
Q 2838 4666 3239 4311 
Q 3641 3956 3641 3272 
Q 3641 2581 3239 2228 
Q 2838 1875 2053 1875 
L 1259 1875 
L 1259 0 
L 628 0 
L 628 4666 
z
" transform="scale(0.015625)"/>
       <path id="DejaVuSans-63" d="M 3122 3366 
L 3122 2828 
Q 2878 2963 2633 3030 
Q 2388 3097 2138 3097 
Q 1578 3097 1268 2742 
Q 959 2388 959 1747 
Q 959 1106 1268 751 
Q 1578 397 2138 397 
Q 2388 397 2633 464 
Q 2878 531 3122 666 
L 3122 134 
Q 2881 22 2623 -34 
Q 2366 -91 2075 -91 
Q 1284 -91 818 406 
Q 353 903 353 1747 
Q 353 2603 823 3093 
Q 1294 3584 2113 3584 
Q 2378 3584 2631 3529 
Q 2884 3475 3122 3366 
z
" transform="scale(0.015625)"/>
       <path id="DejaVuSans-69" d="M 603 3500 
L 1178 3500 
L 1178 0 
L 603 0 
L 603 3500 
z
M 603 4863 
L 1178 4863 
L 1178 4134 
L 603 4134 
L 603 4863 
z
" transform="scale(0.015625)"/>
       <path id="DejaVuSans-70" d="M 1159 525 
L 1159 -1331 
L 581 -1331 
L 581 3500 
L 1159 3500 
L 1159 2969 
Q 1341 3281 1617 3432 
Q 1894 3584 2278 3584 
Q 2916 3584 3314 3078 
Q 3713 2572 3713 1747 
Q 3713 922 3314 415 
Q 2916 -91 2278 -91 
Q 1894 -91 1617 61 
Q 1341 213 1159 525 
z
M 3116 1747 
Q 3116 2381 2855 2742 
Q 2594 3103 2138 3103 
Q 1681 3103 1420 2742 
Q 1159 2381 1159 1747 
Q 1159 1113 1420 752 
Q 1681 391 2138 391 
Q 2594 391 2855 752 
Q 3116 1113 3116 1747 
z
" transform="scale(0.015625)"/>
       <path id="DejaVuSans-74" d="M 1172 4494 
L 1172 3500 
L 2356 3500 
L 2356 3053 
L 1172 3053 
L 1172 1153 
Q 1172 725 1289 603 
Q 1406 481 1766 481 
L 2356 481 
L 2356 0 
L 1766 0 
Q 1100 0 847 248 
Q 594 497 594 1153 
L 594 3053 
L 172 3053 
L 172 3500 
L 594 3500 
L 594 4494 
L 1172 4494 
z
" transform="scale(0.015625)"/>
       <path id="DejaVuSans-6f" d="M 1959 3097 
Q 1497 3097 1228 2736 
Q 959 2375 959 1747 
Q 959 1119 1226 758 
Q 1494 397 1959 397 
Q 2419 397 2687 759 
Q 2956 1122 2956 1747 
Q 2956 2369 2687 2733 
Q 2419 3097 1959 3097 
z
M 1959 3584 
Q 2709 3584 3137 3096 
Q 3566 2609 3566 1747 
Q 3566 888 3137 398 
Q 2709 -91 1959 -91 
Q 1206 -91 779 398 
Q 353 888 353 1747 
Q 353 2609 779 3096 
Q 1206 3584 1959 3584 
z
" transform="scale(0.015625)"/>
       <path id="DejaVuSans-6e" d="M 3513 2113 
L 3513 0 
L 2938 0 
L 2938 2094 
Q 2938 2591 2744 2837 
Q 2550 3084 2163 3084 
Q 1697 3084 1428 2787 
Q 1159 2491 1159 1978 
L 1159 0 
L 581 0 
L 581 3500 
L 1159 3500 
L 1159 2956 
Q 1366 3272 1645 3428 
Q 1925 3584 2291 3584 
Q 2894 3584 3203 3211 
Q 3513 2838 3513 2113 
z
" transform="scale(0.015625)"/>
      </defs>
      <use xlink:href="#DejaVuSans-50"/>
      <use xlink:href="#DejaVuSans-72" transform="translate(58.552734 0)"/>
      <use xlink:href="#DejaVuSans-65" transform="translate(97.416016 0)"/>
      <use xlink:href="#DejaVuSans-63" transform="translate(158.939453 0)"/>
      <use xlink:href="#DejaVuSans-69" transform="translate(213.919922 0)"/>
      <use xlink:href="#DejaVuSans-70" transform="translate(241.703125 0)"/>
      <use xlink:href="#DejaVuSans-69" transform="translate(305.179688 0)"/>
      <use xlink:href="#DejaVuSans-74" transform="translate(332.962891 0)"/>
      <use xlink:href="#DejaVuSans-61" transform="translate(372.171875 0)"/>
      <use xlink:href="#DejaVuSans-74" transform="translate(433.451172 0)"/>
      <use xlink:href="#DejaVuSans-69" transform="translate(472.660156 0)"/>
      <use xlink:href="#DejaVuSans-6f" transform="translate(500.443359 0)"/>
      <use xlink:href="#DejaVuSans-6e" transform="translate(561.625 0)"/>
     </g>
    </g>
   </g>
   <g id="line2d_37">
    <path d="M 84.418636 231.697488 
L 94.312862 231.457047 
L 104.207088 231.216605 
L 114.101314 230.976163 
L 123.995541 230.735721 
L 133.889767 230.495279 
L 143.783993 230.254837 
L 153.678219 230.014395 
L 163.572445 229.773954 
L 173.466671 229.533512 
L 183.360897 229.29307 
L 193.255123 229.052628 
L 203.149349 228.812186 
L 213.043575 228.571744 
L 222.937801 228.331302 
L 232.832027 228.09086 
L 242.726253 227.850419 
L 252.620479 227.609977 
L 262.514705 227.369535 
L 272.408931 227.129093 
L 282.303157 226.888651 
L 292.197383 226.648209 
L 302.091609 226.407767 
L 311.985835 226.167326 
L 321.880061 225.926884 
L 331.774287 225.686442 
L 341.668514 225.446 
L 351.56274 225.205558 
L 361.456966 224.965116 
L 371.351192 224.724674 
L 381.245418 224.484232 
L 391.139644 224.243791 
L 401.03387 224.003349 
L 410.928096 223.762907 
L 420.822322 223.522465 
L 430.716548 223.282023 
L 440.610774 223.041581 
L 450.505 222.801139 
L 460.399226 222.560698 
L 470.293452 222.320256 
L 480.187678 222.079814 
L 490.081904 221.839372 
L 499.97613 221.59893 
L 509.870356 221.358488 
L 519.764582 221.118046 
L 529.658808 220.877604 
L 539.553034 220.637163 
L 549.44726 220.396721 
L 559.341486 220.156279 
L 569.235713 219.915837 
L 579.129939 219.675395 
L 589.024165 219.434953 
L 598.918391 219.194511 
L 608.812617 218.95407 
L 618.706843 218.713628 
L 628.601069 218.473186 
L 638.495295 218.232744 
L 648.389521 217.992302 
L 658.283747 217.75186 
L 668.177973 217.511418 
L 678.072199 217.270976 
L 687.966425 217.030535 
L 697.860651 216.790093 
L 707.754877 216.549651 
L 717.649103 216.309209 
L 727.543329 216.068767 
L 737.437555 215.828325 
L 747.331781 215.587883 
L 757.226007 215.347442 
L 767.120233 215.107 
L 777.014459 214.866558 
L 786.908686 214.626116 
L 796.802912 214.385674 
L 806.697138 214.145232 
L 816.591364 213.90479 
" clip-path="url(#p2b9eb85123)" style="fill: none; stroke: #69a4db; stroke-width: 1.5; stroke-linecap: square"/>
   </g>
   <g id="line2d_38">
    <path d="M 47.81 222.801139 
L 853.2 222.801139 
" clip-path="url(#p2b9eb85123)" style="fill: none; stroke-dasharray: 1.5,2.475; stroke-dashoffset: 0; stroke: #808080; stroke-width: 1.5"/>
   </g>
   <g id="patch_3">
    <path d="M 47.81 246.04 
L 47.81 10.8 
" style="fill: none; stroke: #000000; stroke-width: 0.8; stroke-linejoin: miter; stroke-linecap: square"/>
   </g>
   <g id="patch_4">
    <path d="M 47.81 246.04 
L 853.2 246.04 
" style="fill: none; stroke: #000000; stroke-width: 0.8; stroke-linejoin: miter; stroke-linecap: square"/>
   </g>
   <g id="legend_1">
    <g id="patch_5">
     <path d="M 54.81 48.15625 
L 161.1225 48.15625 
Q 163.1225 48.15625 163.1225 46.15625 
L 163.1225 17.8 
Q 163.1225 15.8 161.1225 15.8 
L 54.81 15.8 
Q 52.81 15.8 52.81 17.8 
L 52.81 46.15625 
Q 52.81 48.15625 54.81 48.15625 
z
" style="fill: #ffffff; opacity: 0.8; stroke: #cccccc; stroke-linejoin: miter"/>
    </g>
    <g id="line2d_39">
     <path d="M 56.81 23.898438 
L 66.81 23.898438 
L 76.81 23.898438 
" style="fill: none; stroke: #69a4db; stroke-width: 1.5; stroke-linecap: square"/>
    </g>
    <g id="text_24">
     <!-- Trend -->
     <g transform="translate(84.81 27.398438) scale(0.1 -0.1)">
      <defs>
       <path id="DejaVuSans-54" d="M -19 4666 
L 3928 4666 
L 3928 4134 
L 2272 4134 
L 2272 0 
L 1638 0 
L 1638 4134 
L -19 4134 
L -19 4666 
z
" transform="scale(0.015625)"/>
       <path id="DejaVuSans-64" d="M 2906 2969 
L 2906 4863 
L 3481 4863 
L 3481 0 
L 2906 0 
L 2906 525 
Q 2725 213 2448 61 
Q 2172 -91 1784 -91 
Q 1150 -91 751 415 
Q 353 922 353 1747 
Q 353 2572 751 3078 
Q 1150 3584 1784 3584 
Q 2172 3584 2448 3432 
Q 2725 3281 2906 2969 
z
M 947 1747 
Q 947 1113 1208 752 
Q 1469 391 1925 391 
Q 2381 391 2643 752 
Q 2906 1113 2906 1747 
Q 2906 2381 2643 2742 
Q 2381 3103 1925 3103 
Q 1469 3103 1208 2742 
Q 947 2381 947 1747 
z
" transform="scale(0.015625)"/>
      </defs>
      <use xlink:href="#DejaVuSans-54"/>
      <use xlink:href="#DejaVuSans-72" transform="translate(46.333984 0)"/>
      <use xlink:href="#DejaVuSans-65" transform="translate(85.197266 0)"/>
      <use xlink:href="#DejaVuSans-6e" transform="translate(146.720703 0)"/>
      <use xlink:href="#DejaVuSans-64" transform="translate(210.099609 0)"/>
     </g>
    </g>
    <g id="line2d_40">
     <path d="M 56.81 38.576562 
L 66.81 38.576562 
L 76.81 38.576562 
" style="fill: none; stroke-dasharray: 1.5,2.475; stroke-dashoffset: 0; stroke: #808080; stroke-width: 1.5"/>
    </g>
    <g id="text_25">
     <!-- Average (0.15) -->
     <g transform="translate(84.81 42.076562) scale(0.1 -0.1)">
      <defs>
       <path id="DejaVuSans-41" d="M 2188 4044 
L 1331 1722 
L 3047 1722 
L 2188 4044 
z
M 1831 4666 
L 2547 4666 
L 4325 0 
L 3669 0 
L 3244 1197 
L 1141 1197 
L 716 0 
L 50 0 
L 1831 4666 
z
" transform="scale(0.015625)"/>
       <path id="DejaVuSans-76" d="M 191 3500 
L 800 3500 
L 1894 563 
L 2988 3500 
L 3597 3500 
L 2284 0 
L 1503 0 
L 191 3500 
z
" transform="scale(0.015625)"/>
       <path id="DejaVuSans-67" d="M 2906 1791 
Q 2906 2416 2648 2759 
Q 2391 3103 1925 3103 
Q 1463 3103 1205 2759 
Q 947 2416 947 1791 
Q 947 1169 1205 825 
Q 1463 481 1925 481 
Q 2391 481 2648 825 
Q 2906 1169 2906 1791 
z
M 3481 434 
Q 3481 -459 3084 -895 
Q 2688 -1331 1869 -1331 
Q 1566 -1331 1297 -1286 
Q 1028 -1241 775 -1147 
L 775 -588 
Q 1028 -725 1275 -790 
Q 1522 -856 1778 -856 
Q 2344 -856 2625 -561 
Q 2906 -266 2906 331 
L 2906 616 
Q 2728 306 2450 153 
Q 2172 0 1784 0 
Q 1141 0 747 490 
Q 353 981 353 1791 
Q 353 2603 747 3093 
Q 1141 3584 1784 3584 
Q 2172 3584 2450 3431 
Q 2728 3278 2906 2969 
L 2906 3500 
L 3481 3500 
L 3481 434 
z
" transform="scale(0.015625)"/>
       <path id="DejaVuSans-20" transform="scale(0.015625)"/>
       <path id="DejaVuSans-28" d="M 1984 4856 
Q 1566 4138 1362 3434 
Q 1159 2731 1159 2009 
Q 1159 1288 1364 580 
Q 1569 -128 1984 -844 
L 1484 -844 
Q 1016 -109 783 600 
Q 550 1309 550 2009 
Q 550 2706 781 3412 
Q 1013 4119 1484 4856 
L 1984 4856 
z
" transform="scale(0.015625)"/>
       <path id="DejaVuSans-29" d="M 513 4856 
L 1013 4856 
Q 1481 4119 1714 3412 
Q 1947 2706 1947 2009 
Q 1947 1309 1714 600 
Q 1481 -109 1013 -844 
L 513 -844 
Q 928 -128 1133 580 
Q 1338 1288 1338 2009 
Q 1338 2731 1133 3434 
Q 928 4138 513 4856 
z
" transform="scale(0.015625)"/>
      </defs>
      <use xlink:href="#DejaVuSans-41"/>
      <use xlink:href="#DejaVuSans-76" transform="translate(62.533203 0)"/>
      <use xlink:href="#DejaVuSans-65" transform="translate(121.712891 0)"/>
      <use xlink:href="#DejaVuSans-72" transform="translate(183.236328 0)"/>
      <use xlink:href="#DejaVuSans-61" transform="translate(224.349609 0)"/>
      <use xlink:href="#DejaVuSans-67" transform="translate(285.628906 0)"/>
      <use xlink:href="#DejaVuSans-65" transform="translate(349.105469 0)"/>
      <use xlink:href="#DejaVuSans-20" transform="translate(410.628906 0)"/>
      <use xlink:href="#DejaVuSans-28" transform="translate(442.416016 0)"/>
      <use xlink:href="#DejaVuSans-30" transform="translate(481.429688 0)"/>
      <use xlink:href="#DejaVuSans-2e" transform="translate(545.052734 0)"/>
      <use xlink:href="#DejaVuSans-31" transform="translate(576.839844 0)"/>
      <use xlink:href="#DejaVuSans-35" transform="translate(640.462891 0)"/>
      <use xlink:href="#DejaVuSans-29" transform="translate(704.085938 0)"/>
     </g>
    </g>
   </g>
  </g>
 </g>
 <defs>
  <clipPath id="p2b9eb85123">
   <rect x="47.81" y="10.8" width="805.39" height="235.24"/>
  </clipPath>
 </defs>
</svg>
