<?xml version="1.0" encoding="utf-8" standalone="no"?>
<!DOCTYPE svg PUBLIC "-//W3C//DTD SVG 1.1//EN"
  "http://www.w3.org/Graphics/SVG/1.1/DTD/svg11.dtd">
<svg xmlns:xlink="http://www.w3.org/1999/xlink" width="864pt" height="288pt" viewBox="0 0 864 288" xmlns="http://www.w3.org/2000/svg" version="1.1">
 <metadata>
  <rdf:RDF xmlns:dc="http://purl.org/dc/elements/1.1/" xmlns:cc="http://creativecommons.org/ns#" xmlns:rdf="http://www.w3.org/1999/02/22-rdf-syntax-ns#">
   <cc:Work>
    <dc:type rdf:resource="http://purl.org/dc/dcmitype/StillImage"/>
    <dc:date>2025-12-03T00:29:38.520959</dc:date>
    <dc:format>image/svg+xml</dc:format>
    <dc:creator>
     <cc:Agent>
      <dc:title>Matplotlib v3.10.0, https://matplotlib.org/</dc:title>
     </cc:Agent>
    </dc:creator>
   </cc:Work>
  </rdf:RDF>
 </metadata>
 <defs>
  <style type="text/css">*{stroke-linejoin: round; stroke-linecap: butt}</style>
 </defs>
 <g id="figure_1">
  <g id="patch_1">
   <path d="M 0 288 
L 864 288 
L 864 0 
L 0 0 
z
" style="fill: #ffffff"/>
  </g>
  <g id="axes_1">
   <g id="patch_2">
    <path d="M 57.44 246.04 
L 853.2 246.04 
L 853.2 13.526189 
L 57.44 13.526189 
z
" style="fill: #ffffff"/>
   </g>
   <g id="PathCollection_1">
    <defs>
     <path id="mcb7c9efeaa" d="M 0 3 
C 0.795609 3 1.55874 2.683901 2.12132 2.12132 
C 2.683901 1.55874 3 0.795609 3 0 
C 3 -0.795609 2.683901 -1.55874 2.12132 -2.12132 
C 1.55874 -2.683901 0.795609 -3 0 -3 
C -0.795609 -3 -1.55874 -2.683901 -2.12132 -2.12132 
C -2.683901 -1.55874 -3 -0.795609 -3 0 
C -3 0.795609 -2.683901 1.55874 -2.12132 2.12132 
C -1.55874 2.683901 -0.795609 3 0 3 
z
" style="stroke: #3c58b5"/>
    </defs>
    <g clip-path="url(#pa29925c4ae)">
     <use xlink:href="#mcb7c9efeaa" x="93.610909" y="120.263844" style="fill: #3c58b5; stroke: #3c58b5"/>
     <use xlink:href="#mcb7c9efeaa" x="103.38683" y="81.210506" style="fill: #3c58b5; stroke: #3c58b5"/>
     <use xlink:href="#mcb7c9efeaa" x="113.162752" y="52.408669" style="fill: #3c58b5; stroke: #3c58b5"/>
     <use xlink:href="#mcb7c9efeaa" x="122.938673" y="54.361336" style="fill: #3c58b5; stroke: #3c58b5"/>
     <use xlink:href="#mcb7c9efeaa" x="132.714595" y="120.263844" style="fill: #3c58b5; stroke: #3c58b5"/>
     <use xlink:href="#mcb7c9efeaa" x="142.490516" y="38.251834" style="fill: #3c58b5; stroke: #3c58b5"/>
     <use xlink:href="#mcb7c9efeaa" x="152.266437" y="44.598001" style="fill: #3c58b5; stroke: #3c58b5"/>
     <use xlink:href="#mcb7c9efeaa" x="162.042359" y="67.541837" style="fill: #3c58b5; stroke: #3c58b5"/>
     <use xlink:href="#mcb7c9efeaa" x="171.81828" y="110.988676" style="fill: #3c58b5; stroke: #3c58b5"/>
     <use xlink:href="#mcb7c9efeaa" x="181.594201" y="32.393833" style="fill: #3c58b5; stroke: #3c58b5"/>
     <use xlink:href="#mcb7c9efeaa" x="191.370123" y="99.272674" style="fill: #3c58b5; stroke: #3c58b5"/>
     <use xlink:href="#mcb7c9efeaa" x="201.146044" y="66.565504" style="fill: #3c58b5; stroke: #3c58b5"/>
     <use xlink:href="#mcb7c9efeaa" x="210.921966" y="24.094999" style="fill: #3c58b5; stroke: #3c58b5"/>
     <use xlink:href="#mcb7c9efeaa" x="220.697887" y="70.470838" style="fill: #3c58b5; stroke: #3c58b5"/>
     <use xlink:href="#mcb7c9efeaa" x="230.473808" y="85.115839" style="fill: #3c58b5; stroke: #3c58b5"/>
     <use xlink:href="#mcb7c9efeaa" x="240.24973" y="55.825836" style="fill: #3c58b5; stroke: #3c58b5"/>
     <use xlink:href="#mcb7c9efeaa" x="250.025651" y="51.920502" style="fill: #3c58b5; stroke: #3c58b5"/>
     <use xlink:href="#mcb7c9efeaa" x="259.801572" y="50.944169" style="fill: #3c58b5; stroke: #3c58b5"/>
     <use xlink:href="#mcb7c9efeaa" x="269.577494" y="43.133501" style="fill: #3c58b5; stroke: #3c58b5"/>
     <use xlink:href="#mcb7c9efeaa" x="279.353415" y="104.154342" style="fill: #3c58b5; stroke: #3c58b5"/>
     <use xlink:href="#mcb7c9efeaa" x="289.129337" y="48.015168" style="fill: #3c58b5; stroke: #3c58b5"/>
     <use xlink:href="#mcb7c9efeaa" x="298.905258" y="74.864338" style="fill: #3c58b5; stroke: #3c58b5"/>
     <use xlink:href="#mcb7c9efeaa" x="308.681179" y="73.399838" style="fill: #3c58b5; stroke: #3c58b5"/>
     <use xlink:href="#mcb7c9efeaa" x="318.457101" y="28.000333" style="fill: #3c58b5; stroke: #3c58b5"/>
     <use xlink:href="#mcb7c9efeaa" x="328.233022" y="67.053671" style="fill: #3c58b5; stroke: #3c58b5"/>
     <use xlink:href="#mcb7c9efeaa" x="338.008943" y="94.391007" style="fill: #3c58b5; stroke: #3c58b5"/>
     <use xlink:href="#mcb7c9efeaa" x="347.784865" y="120.263844" style="fill: #3c58b5; stroke: #3c58b5"/>
     <use xlink:href="#mcb7c9efeaa" x="357.560786" y="110.500509" style="fill: #3c58b5; stroke: #3c58b5"/>
     <use xlink:href="#mcb7c9efeaa" x="367.336708" y="153.947348" style="fill: #3c58b5; stroke: #3c58b5"/>
     <use xlink:href="#mcb7c9efeaa" x="377.112629" y="28.488499" style="fill: #3c58b5; stroke: #3c58b5"/>
     <use xlink:href="#mcb7c9efeaa" x="386.88855" y="104.642508" style="fill: #3c58b5; stroke: #3c58b5"/>
     <use xlink:href="#mcb7c9efeaa" x="396.664472" y="105.130675" style="fill: #3c58b5; stroke: #3c58b5"/>
     <use xlink:href="#mcb7c9efeaa" x="406.440393" y="59.73117" style="fill: #3c58b5; stroke: #3c58b5"/>
     <use xlink:href="#mcb7c9efeaa" x="416.216314" y="49.967835" style="fill: #3c58b5; stroke: #3c58b5"/>
     <use xlink:href="#mcb7c9efeaa" x="425.992236" y="81.210506" style="fill: #3c58b5; stroke: #3c58b5"/>
     <use xlink:href="#mcb7c9efeaa" x="435.768157" y="67.053671" style="fill: #3c58b5; stroke: #3c58b5"/>
     <use xlink:href="#mcb7c9efeaa" x="445.544079" y="96.343674" style="fill: #3c58b5; stroke: #3c58b5"/>
     <use xlink:href="#mcb7c9efeaa" x="455.32" y="55.337669" style="fill: #3c58b5; stroke: #3c58b5"/>
     <use xlink:href="#mcb7c9efeaa" x="465.095921" y="68.030004" style="fill: #3c58b5; stroke: #3c58b5"/>
     <use xlink:href="#mcb7c9efeaa" x="474.871843" y="69.982671" style="fill: #3c58b5; stroke: #3c58b5"/>
     <use xlink:href="#mcb7c9efeaa" x="484.647764" y="58.26667" style="fill: #3c58b5; stroke: #3c58b5"/>
     <use xlink:href="#mcb7c9efeaa" x="494.423686" y="72.423505" style="fill: #3c58b5; stroke: #3c58b5"/>
     <use xlink:href="#mcb7c9efeaa" x="504.199607" y="68.518171" style="fill: #3c58b5; stroke: #3c58b5"/>
     <use xlink:href="#mcb7c9efeaa" x="513.975528" y="84.139506" style="fill: #3c58b5; stroke: #3c58b5"/>
     <use xlink:href="#mcb7c9efeaa" x="523.75145" y="93.414674" style="fill: #3c58b5; stroke: #3c58b5"/>
     <use xlink:href="#mcb7c9efeaa" x="533.527371" y="114.89401" style="fill: #3c58b5; stroke: #3c58b5"/>
     <use xlink:href="#mcb7c9efeaa" x="543.303292" y="70.470838" style="fill: #3c58b5; stroke: #3c58b5"/>
     <use xlink:href="#mcb7c9efeaa" x="553.079214" y="121.240177" style="fill: #3c58b5; stroke: #3c58b5"/>
     <use xlink:href="#mcb7c9efeaa" x="562.855135" y="81.210506" style="fill: #3c58b5; stroke: #3c58b5"/>
     <use xlink:href="#mcb7c9efeaa" x="572.631057" y="129.539011" style="fill: #3c58b5; stroke: #3c58b5"/>
     <use xlink:href="#mcb7c9efeaa" x="582.406978" y="54.849503" style="fill: #3c58b5; stroke: #3c58b5"/>
     <use xlink:href="#mcb7c9efeaa" x="592.182899" y="58.26667" style="fill: #3c58b5; stroke: #3c58b5"/>
     <use xlink:href="#mcb7c9efeaa" x="601.958821" y="78.769672" style="fill: #3c58b5; stroke: #3c58b5"/>
     <use xlink:href="#mcb7c9efeaa" x="611.734742" y="66.565504" style="fill: #3c58b5; stroke: #3c58b5"/>
     <use xlink:href="#mcb7c9efeaa" x="621.510663" y="71.447171" style="fill: #3c58b5; stroke: #3c58b5"/>
     <use xlink:href="#mcb7c9efeaa" x="631.286585" y="84.139506" style="fill: #3c58b5; stroke: #3c58b5"/>
     <use xlink:href="#mcb7c9efeaa" x="641.062506" y="81.698672" style="fill: #3c58b5; stroke: #3c58b5"/>
     <use xlink:href="#mcb7c9efeaa" x="650.838428" y="52.896836" style="fill: #3c58b5; stroke: #3c58b5"/>
     <use xlink:href="#mcb7c9efeaa" x="660.614349" y="73.399838" style="fill: #3c58b5; stroke: #3c58b5"/>
     <use xlink:href="#mcb7c9efeaa" x="670.39027" y="92.926507" style="fill: #3c58b5; stroke: #3c58b5"/>
     <use xlink:href="#mcb7c9efeaa" x="680.166192" y="98.296341" style="fill: #3c58b5; stroke: #3c58b5"/>
     <use xlink:href="#mcb7c9efeaa" x="689.942113" y="30.441166" style="fill: #3c58b5; stroke: #3c58b5"/>
     <use xlink:href="#mcb7c9efeaa" x="699.718034" y="92.43834" style="fill: #3c58b5; stroke: #3c58b5"/>
     <use xlink:href="#mcb7c9efeaa" x="709.493956" y="235.47119" style="fill: #3c58b5; stroke: #3c58b5"/>
     <use xlink:href="#mcb7c9efeaa" x="719.269877" y="68.518171" style="fill: #3c58b5; stroke: #3c58b5"/>
     <use xlink:href="#mcb7c9efeaa" x="729.045799" y="97.808174" style="fill: #3c58b5; stroke: #3c58b5"/>
     <use xlink:href="#mcb7c9efeaa" x="738.82172" y="56.802169" style="fill: #3c58b5; stroke: #3c58b5"/>
     <use xlink:href="#mcb7c9efeaa" x="748.597641" y="70.470838" style="fill: #3c58b5; stroke: #3c58b5"/>
     <use xlink:href="#mcb7c9efeaa" x="758.373563" y="140.278679" style="fill: #3c58b5; stroke: #3c58b5"/>
     <use xlink:href="#mcb7c9efeaa" x="768.149484" y="105.130675" style="fill: #3c58b5; stroke: #3c58b5"/>
     <use xlink:href="#mcb7c9efeaa" x="777.925405" y="73.888005" style="fill: #3c58b5; stroke: #3c58b5"/>
     <use xlink:href="#mcb7c9efeaa" x="787.701327" y="78.769672" style="fill: #3c58b5; stroke: #3c58b5"/>
     <use xlink:href="#mcb7c9efeaa" x="797.477248" y="70.959004" style="fill: #3c58b5; stroke: #3c58b5"/>
     <use xlink:href="#mcb7c9efeaa" x="807.25317" y="87.068506" style="fill: #3c58b5; stroke: #3c58b5"/>
     <use xlink:href="#mcb7c9efeaa" x="817.029091" y="73.399838" style="fill: #3c58b5; stroke: #3c58b5"/>
    </g>
   </g>
   <g id="matplotlib.axis_1">
    <g id="xtick_1">
     <g id="line2d_1">
      <path d="M 93.610909 246.04 
L 93.610909 13.526189 
" clip-path="url(#pa29925c4ae)" style="fill: none; stroke: #b0b0b0; stroke-width: 0.8; stroke-linecap: square"/>
     </g>
     <g id="line2d_2">
      <defs>
       <path id="m4a6a8663ff" d="M 0 0 
L 0 3.5 
" style="stroke: #000000; stroke-width: 0.8"/>
      </defs>
      <g>
       <use xlink:href="#m4a6a8663ff" x="93.610909" y="246.04" style="stroke: #000000; stroke-width: 0.8"/>
      </g>
     </g>
     <g id="text_1">
      <!-- 1950 -->
      <g transform="translate(80.885909 260.638438) scale(0.1 -0.1)">
       <defs>
        <path id="DejaVuSans-31" d="M 794 531 
L 1825 531 
L 1825 4091 
L 703 3866 
L 703 4441 
L 1819 4666 
L 2450 4666 
L 2450 531 
L 3481 531 
L 3481 0 
L 794 0 
L 794 531 
z
" transform="scale(0.015625)"/>
        <path id="DejaVuSans-39" d="M 703 97 
L 703 672 
Q 941 559 1184 500 
Q 1428 441 1663 441 
Q 2288 441 2617 861 
Q 2947 1281 2994 2138 
Q 2813 1869 2534 1725 
Q 2256 1581 1919 1581 
Q 1219 1581 811 2004 
Q 403 2428 403 3163 
Q 403 3881 828 4315 
Q 1253 4750 1959 4750 
Q 2769 4750 3195 4129 
Q 3622 3509 3622 2328 
Q 3622 1225 3098 567 
Q 2575 -91 1691 -91 
Q 1453 -91 1209 -44 
Q 966 3 703 97 
z
M 1959 2075 
Q 2384 2075 2632 2365 
Q 2881 2656 2881 3163 
Q 2881 3666 2632 3958 
Q 2384 4250 1959 4250 
Q 1534 4250 1286 3958 
Q 1038 3666 1038 3163 
Q 1038 2656 1286 2365 
Q 1534 2075 1959 2075 
z
" transform="scale(0.015625)"/>
        <path id="DejaVuSans-35" d="M 691 4666 
L 3169 4666 
L 3169 4134 
L 1269 4134 
L 1269 2991 
Q 1406 3038 1543 3061 
Q 1681 3084 1819 3084 
Q 2600 3084 3056 2656 
Q 3513 2228 3513 1497 
Q 3513 744 3044 326 
Q 2575 -91 1722 -91 
Q 1428 -91 1123 -41 
Q 819 9 494 109 
L 494 744 
Q 775 591 1075 516 
Q 1375 441 1709 441 
Q 2250 441 2565 725 
Q 2881 1009 2881 1497 
Q 2881 1984 2565 2268 
Q 2250 2553 1709 2553 
Q 1456 2553 1204 2497 
Q 953 2441 691 2322 
L 691 4666 
z
" transform="scale(0.015625)"/>
        <path id="DejaVuSans-30" d="M 2034 4250 
Q 1547 4250 1301 3770 
Q 1056 3291 1056 2328 
Q 1056 1369 1301 889 
Q 1547 409 2034 409 
Q 2525 409 2770 889 
Q 3016 1369 3016 2328 
Q 3016 3291 2770 3770 
Q 2525 4250 2034 4250 
z
M 2034 4750 
Q 2819 4750 3233 4129 
Q 3647 3509 3647 2328 
Q 3647 1150 3233 529 
Q 2819 -91 2034 -91 
Q 1250 -91 836 529 
Q 422 1150 422 2328 
Q 422 3509 836 4129 
Q 1250 4750 2034 4750 
z
" transform="scale(0.015625)"/>
       </defs>
       <use xlink:href="#DejaVuSans-31"/>
       <use xlink:href="#DejaVuSans-39" transform="translate(63.623047 0)"/>
       <use xlink:href="#DejaVuSans-35" transform="translate(127.246094 0)"/>
       <use xlink:href="#DejaVuSans-30" transform="translate(190.869141 0)"/>
      </g>
     </g>
    </g>
    <g id="xtick_2">
     <g id="line2d_3">
      <path d="M 142.490516 246.04 
L 142.490516 13.526189 
" clip-path="url(#pa29925c4ae)" style="fill: none; stroke: #b0b0b0; stroke-width: 0.8; stroke-linecap: square"/>
     </g>
     <g id="line2d_4">
      <g>
       <use xlink:href="#m4a6a8663ff" x="142.490516" y="246.04" style="stroke: #000000; stroke-width: 0.8"/>
      </g>
     </g>
     <g id="text_2">
      <!-- 1955 -->
      <g transform="translate(129.765516 260.638438) scale(0.1 -0.1)">
       <use xlink:href="#DejaVuSans-31"/>
       <use xlink:href="#DejaVuSans-39" transform="translate(63.623047 0)"/>
       <use xlink:href="#DejaVuSans-35" transform="translate(127.246094 0)"/>
       <use xlink:href="#DejaVuSans-35" transform="translate(190.869141 0)"/>
      </g>
     </g>
    </g>
    <g id="xtick_3">
     <g id="line2d_5">
      <path d="M 191.370123 246.04 
L 191.370123 13.526189 
" clip-path="url(#pa29925c4ae)" style="fill: none; stroke: #b0b0b0; stroke-width: 0.8; stroke-linecap: square"/>
     </g>
     <g id="line2d_6">
      <g>
       <use xlink:href="#m4a6a8663ff" x="191.370123" y="246.04" style="stroke: #000000; stroke-width: 0.8"/>
      </g>
     </g>
     <g id="text_3">
      <!-- 1960 -->
      <g transform="translate(178.645123 260.638438) scale(0.1 -0.1)">
       <defs>
        <path id="DejaVuSans-36" d="M 2113 2584 
Q 1688 2584 1439 2293 
Q 1191 2003 1191 1497 
Q 1191 994 1439 701 
Q 1688 409 2113 409 
Q 2538 409 2786 701 
Q 3034 994 3034 1497 
Q 3034 2003 2786 2293 
Q 2538 2584 2113 2584 
z
M 3366 4563 
L 3366 3988 
Q 3128 4100 2886 4159 
Q 2644 4219 2406 4219 
Q 1781 4219 1451 3797 
Q 1122 3375 1075 2522 
Q 1259 2794 1537 2939 
Q 1816 3084 2150 3084 
Q 2853 3084 3261 2657 
Q 3669 2231 3669 1497 
Q 3669 778 3244 343 
Q 2819 -91 2113 -91 
Q 1303 -91 875 529 
Q 447 1150 447 2328 
Q 447 3434 972 4092 
Q 1497 4750 2381 4750 
Q 2619 4750 2861 4703 
Q 3103 4656 3366 4563 
z
" transform="scale(0.015625)"/>
       </defs>
       <use xlink:href="#DejaVuSans-31"/>
       <use xlink:href="#DejaVuSans-39" transform="translate(63.623047 0)"/>
       <use xlink:href="#DejaVuSans-36" transform="translate(127.246094 0)"/>
       <use xlink:href="#DejaVuSans-30" transform="translate(190.869141 0)"/>
      </g>
     </g>
    </g>
    <g id="xtick_4">
     <g id="line2d_7">
      <path d="M 240.24973 246.04 
L 240.24973 13.526189 
" clip-path="url(#pa29925c4ae)" style="fill: none; stroke: #b0b0b0; stroke-width: 0.8; stroke-linecap: square"/>
     </g>
     <g id="line2d_8">
      <g>
       <use xlink:href="#m4a6a8663ff" x="240.24973" y="246.04" style="stroke: #000000; stroke-width: 0.8"/>
      </g>
     </g>
     <g id="text_4">
      <!-- 1965 -->
      <g transform="translate(227.52473 260.638438) scale(0.1 -0.1)">
       <use xlink:href="#DejaVuSans-31"/>
       <use xlink:href="#DejaVuSans-39" transform="translate(63.623047 0)"/>
       <use xlink:href="#DejaVuSans-36" transform="translate(127.246094 0)"/>
       <use xlink:href="#DejaVuSans-35" transform="translate(190.869141 0)"/>
      </g>
     </g>
    </g>
    <g id="xtick_5">
     <g id="line2d_9">
      <path d="M 289.129337 246.04 
L 289.129337 13.526189 
" clip-path="url(#pa29925c4ae)" style="fill: none; stroke: #b0b0b0; stroke-width: 0.8; stroke-linecap: square"/>
     </g>
     <g id="line2d_10">
      <g>
       <use xlink:href="#m4a6a8663ff" x="289.129337" y="246.04" style="stroke: #000000; stroke-width: 0.8"/>
      </g>
     </g>
     <g id="text_5">
      <!-- 1970 -->
      <g transform="translate(276.404337 260.638438) scale(0.1 -0.1)">
       <defs>
        <path id="DejaVuSans-37" d="M 525 4666 
L 3525 4666 
L 3525 4397 
L 1831 0 
L 1172 0 
L 2766 4134 
L 525 4134 
L 525 4666 
z
" transform="scale(0.015625)"/>
       </defs>
       <use xlink:href="#DejaVuSans-31"/>
       <use xlink:href="#DejaVuSans-39" transform="translate(63.623047 0)"/>
       <use xlink:href="#DejaVuSans-37" transform="translate(127.246094 0)"/>
       <use xlink:href="#DejaVuSans-30" transform="translate(190.869141 0)"/>
      </g>
     </g>
    </g>
    <g id="xtick_6">
     <g id="line2d_11">
      <path d="M 338.008943 246.04 
L 338.008943 13.526189 
" clip-path="url(#pa29925c4ae)" style="fill: none; stroke: #b0b0b0; stroke-width: 0.8; stroke-linecap: square"/>
     </g>
     <g id="line2d_12">
      <g>
       <use xlink:href="#m4a6a8663ff" x="338.008943" y="246.04" style="stroke: #000000; stroke-width: 0.8"/>
      </g>
     </g>
     <g id="text_6">
      <!-- 1975 -->
      <g transform="translate(325.283943 260.638438) scale(0.1 -0.1)">
       <use xlink:href="#DejaVuSans-31"/>
       <use xlink:href="#DejaVuSans-39" transform="translate(63.623047 0)"/>
       <use xlink:href="#DejaVuSans-37" transform="translate(127.246094 0)"/>
       <use xlink:href="#DejaVuSans-35" transform="translate(190.869141 0)"/>
      </g>
     </g>
    </g>
    <g id="xtick_7">
     <g id="line2d_13">
      <path d="M 386.88855 246.04 
L 386.88855 13.526189 
" clip-path="url(#pa29925c4ae)" style="fill: none; stroke: #b0b0b0; stroke-width: 0.8; stroke-linecap: square"/>
     </g>
     <g id="line2d_14">
      <g>
       <use xlink:href="#m4a6a8663ff" x="386.88855" y="246.04" style="stroke: #000000; stroke-width: 0.8"/>
      </g>
     </g>
     <g id="text_7">
      <!-- 1980 -->
      <g transform="translate(374.16355 260.638438) scale(0.1 -0.1)">
       <defs>
        <path id="DejaVuSans-38" d="M 2034 2216 
Q 1584 2216 1326 1975 
Q 1069 1734 1069 1313 
Q 1069 891 1326 650 
Q 1584 409 2034 409 
Q 2484 409 2743 651 
Q 3003 894 3003 1313 
Q 3003 1734 2745 1975 
Q 2488 2216 2034 2216 
z
M 1403 2484 
Q 997 2584 770 2862 
Q 544 3141 544 3541 
Q 544 4100 942 4425 
Q 1341 4750 2034 4750 
Q 2731 4750 3128 4425 
Q 3525 4100 3525 3541 
Q 3525 3141 3298 2862 
Q 3072 2584 2669 2484 
Q 3125 2378 3379 2068 
Q 3634 1759 3634 1313 
Q 3634 634 3220 271 
Q 2806 -91 2034 -91 
Q 1263 -91 848 271 
Q 434 634 434 1313 
Q 434 1759 690 2068 
Q 947 2378 1403 2484 
z
M 1172 3481 
Q 1172 3119 1398 2916 
Q 1625 2713 2034 2713 
Q 2441 2713 2670 2916 
Q 2900 3119 2900 3481 
Q 2900 3844 2670 4047 
Q 2441 4250 2034 4250 
Q 1625 4250 1398 4047 
Q 1172 3844 1172 3481 
z
" transform="scale(0.015625)"/>
       </defs>
       <use xlink:href="#DejaVuSans-31"/>
       <use xlink:href="#DejaVuSans-39" transform="translate(63.623047 0)"/>
       <use xlink:href="#DejaVuSans-38" transform="translate(127.246094 0)"/>
       <use xlink:href="#DejaVuSans-30" transform="translate(190.869141 0)"/>
      </g>
     </g>
    </g>
    <g id="xtick_8">
     <g id="line2d_15">
      <path d="M 435.768157 246.04 
L 435.768157 13.526189 
" clip-path="url(#pa29925c4ae)" style="fill: none; stroke: #b0b0b0; stroke-width: 0.8; stroke-linecap: square"/>
     </g>
     <g id="line2d_16">
      <g>
       <use xlink:href="#m4a6a8663ff" x="435.768157" y="246.04" style="stroke: #000000; stroke-width: 0.8"/>
      </g>
     </g>
     <g id="text_8">
      <!-- 1985 -->
      <g transform="translate(423.043157 260.638438) scale(0.1 -0.1)">
       <use xlink:href="#DejaVuSans-31"/>
       <use xlink:href="#DejaVuSans-39" transform="translate(63.623047 0)"/>
       <use xlink:href="#DejaVuSans-38" transform="translate(127.246094 0)"/>
       <use xlink:href="#DejaVuSans-35" transform="translate(190.869141 0)"/>
      </g>
     </g>
    </g>
    <g id="xtick_9">
     <g id="line2d_17">
      <path d="M 484.647764 246.04 
L 484.647764 13.526189 
" clip-path="url(#pa29925c4ae)" style="fill: none; stroke: #b0b0b0; stroke-width: 0.8; stroke-linecap: square"/>
     </g>
     <g id="line2d_18">
      <g>
       <use xlink:href="#m4a6a8663ff" x="484.647764" y="246.04" style="stroke: #000000; stroke-width: 0.8"/>
      </g>
     </g>
     <g id="text_9">
      <!-- 1990 -->
      <g transform="translate(471.922764 260.638438) scale(0.1 -0.1)">
       <use xlink:href="#DejaVuSans-31"/>
       <use xlink:href="#DejaVuSans-39" transform="translate(63.623047 0)"/>
       <use xlink:href="#DejaVuSans-39" transform="translate(127.246094 0)"/>
       <use xlink:href="#DejaVuSans-30" transform="translate(190.869141 0)"/>
      </g>
     </g>
    </g>
    <g id="xtick_10">
     <g id="line2d_19">
      <path d="M 533.527371 246.04 
L 533.527371 13.526189 
" clip-path="url(#pa29925c4ae)" style="fill: none; stroke: #b0b0b0; stroke-width: 0.8; stroke-linecap: square"/>
     </g>
     <g id="line2d_20">
      <g>
       <use xlink:href="#m4a6a8663ff" x="533.527371" y="246.04" style="stroke: #000000; stroke-width: 0.8"/>
      </g>
     </g>
     <g id="text_10">
      <!-- 1995 -->
      <g transform="translate(520.802371 260.638438) scale(0.1 -0.1)">
       <use xlink:href="#DejaVuSans-31"/>
       <use xlink:href="#DejaVuSans-39" transform="translate(63.623047 0)"/>
       <use xlink:href="#DejaVuSans-39" transform="translate(127.246094 0)"/>
       <use xlink:href="#DejaVuSans-35" transform="translate(190.869141 0)"/>
      </g>
     </g>
    </g>
    <g id="xtick_11">
     <g id="line2d_21">
      <path d="M 582.406978 246.04 
L 582.406978 13.526189 
" clip-path="url(#pa29925c4ae)" style="fill: none; stroke: #b0b0b0; stroke-width: 0.8; stroke-linecap: square"/>
     </g>
     <g id="line2d_22">
      <g>
       <use xlink:href="#m4a6a8663ff" x="582.406978" y="246.04" style="stroke: #000000; stroke-width: 0.8"/>
      </g>
     </g>
     <g id="text_11">
      <!-- 2000 -->
      <g transform="translate(569.681978 260.638438) scale(0.1 -0.1)">
       <defs>
        <path id="DejaVuSans-32" d="M 1228 531 
L 3431 531 
L 3431 0 
L 469 0 
L 469 531 
Q 828 903 1448 1529 
Q 2069 2156 2228 2338 
Q 2531 2678 2651 2914 
Q 2772 3150 2772 3378 
Q 2772 3750 2511 3984 
Q 2250 4219 1831 4219 
Q 1534 4219 1204 4116 
Q 875 4013 500 3803 
L 500 4441 
Q 881 4594 1212 4672 
Q 1544 4750 1819 4750 
Q 2544 4750 2975 4387 
Q 3406 4025 3406 3419 
Q 3406 3131 3298 2873 
Q 3191 2616 2906 2266 
Q 2828 2175 2409 1742 
Q 1991 1309 1228 531 
z
" transform="scale(0.015625)"/>
       </defs>
       <use xlink:href="#DejaVuSans-32"/>
       <use xlink:href="#DejaVuSans-30" transform="translate(63.623047 0)"/>
       <use xlink:href="#DejaVuSans-30" transform="translate(127.246094 0)"/>
       <use xlink:href="#DejaVuSans-30" transform="translate(190.869141 0)"/>
      </g>
     </g>
    </g>
    <g id="xtick_12">
     <g id="line2d_23">
      <path d="M 631.286585 246.04 
L 631.286585 13.526189 
" clip-path="url(#pa29925c4ae)" style="fill: none; stroke: #b0b0b0; stroke-width: 0.8; stroke-linecap: square"/>
     </g>
     <g id="line2d_24">
      <g>
       <use xlink:href="#m4a6a8663ff" x="631.286585" y="246.04" style="stroke: #000000; stroke-width: 0.8"/>
      </g>
     </g>
     <g id="text_12">
      <!-- 2005 -->
      <g transform="translate(618.561585 260.638438) scale(0.1 -0.1)">
       <use xlink:href="#DejaVuSans-32"/>
       <use xlink:href="#DejaVuSans-30" transform="translate(63.623047 0)"/>
       <use xlink:href="#DejaVuSans-30" transform="translate(127.246094 0)"/>
       <use xlink:href="#DejaVuSans-35" transform="translate(190.869141 0)"/>
      </g>
     </g>
    </g>
    <g id="xtick_13">
     <g id="line2d_25">
      <path d="M 680.166192 246.04 
L 680.166192 13.526189 
" clip-path="url(#pa29925c4ae)" style="fill: none; stroke: #b0b0b0; stroke-width: 0.8; stroke-linecap: square"/>
     </g>
     <g id="line2d_26">
      <g>
       <use xlink:href="#m4a6a8663ff" x="680.166192" y="246.04" style="stroke: #000000; stroke-width: 0.8"/>
      </g>
     </g>
     <g id="text_13">
      <!-- 2010 -->
      <g transform="translate(667.441192 260.638438) scale(0.1 -0.1)">
       <use xlink:href="#DejaVuSans-32"/>
       <use xlink:href="#DejaVuSans-30" transform="translate(63.623047 0)"/>
       <use xlink:href="#DejaVuSans-31" transform="translate(127.246094 0)"/>
       <use xlink:href="#DejaVuSans-30" transform="translate(190.869141 0)"/>
      </g>
     </g>
    </g>
    <g id="xtick_14">
     <g id="line2d_27">
      <path d="M 729.045799 246.04 
L 729.045799 13.526189 
" clip-path="url(#pa29925c4ae)" style="fill: none; stroke: #b0b0b0; stroke-width: 0.8; stroke-linecap: square"/>
     </g>
     <g id="line2d_28">
      <g>
       <use xlink:href="#m4a6a8663ff" x="729.045799" y="246.04" style="stroke: #000000; stroke-width: 0.8"/>
      </g>
     </g>
     <g id="text_14">
      <!-- 2015 -->
      <g transform="translate(716.320799 260.638438) scale(0.1 -0.1)">
       <use xlink:href="#DejaVuSans-32"/>
       <use xlink:href="#DejaVuSans-30" transform="translate(63.623047 0)"/>
       <use xlink:href="#DejaVuSans-31" transform="translate(127.246094 0)"/>
       <use xlink:href="#DejaVuSans-35" transform="translate(190.869141 0)"/>
      </g>
     </g>
    </g>
    <g id="xtick_15">
     <g id="line2d_29">
      <path d="M 777.925405 246.04 
L 777.925405 13.526189 
" clip-path="url(#pa29925c4ae)" style="fill: none; stroke: #b0b0b0; stroke-width: 0.8; stroke-linecap: square"/>
     </g>
     <g id="line2d_30">
      <g>
       <use xlink:href="#m4a6a8663ff" x="777.925405" y="246.04" style="stroke: #000000; stroke-width: 0.8"/>
      </g>
     </g>
     <g id="text_15">
      <!-- 2020 -->
      <g transform="translate(765.200405 260.638438) scale(0.1 -0.1)">
       <use xlink:href="#DejaVuSans-32"/>
       <use xlink:href="#DejaVuSans-30" transform="translate(63.623047 0)"/>
       <use xlink:href="#DejaVuSans-32" transform="translate(127.246094 0)"/>
       <use xlink:href="#DejaVuSans-30" transform="translate(190.869141 0)"/>
      </g>
     </g>
    </g>
    <g id="text_16">
     <!-- Year -->
     <g transform="translate(444.7325 274.316562) scale(0.1 -0.1)">
      <defs>
       <path id="DejaVuSans-59" d="M -13 4666 
L 666 4666 
L 1959 2747 
L 3244 4666 
L 3922 4666 
L 2272 2222 
L 2272 0 
L 1638 0 
L 1638 2222 
L -13 4666 
z
" transform="scale(0.015625)"/>
       <path id="DejaVuSans-65" d="M 3597 1894 
L 3597 1613 
L 953 1613 
Q 991 1019 1311 708 
Q 1631 397 2203 397 
Q 2534 397 2845 478 
Q 3156 559 3463 722 
L 3463 178 
Q 3153 47 2828 -22 
Q 2503 -91 2169 -91 
Q 1331 -91 842 396 
Q 353 884 353 1716 
Q 353 2575 817 3079 
Q 1281 3584 2069 3584 
Q 2775 3584 3186 3129 
Q 3597 2675 3597 1894 
z
M 3022 2063 
Q 3016 2534 2758 2815 
Q 2500 3097 2075 3097 
Q 1594 3097 1305 2825 
Q 1016 2553 972 2059 
L 3022 2063 
z
" transform="scale(0.015625)"/>
       <path id="DejaVuSans-61" d="M 2194 1759 
Q 1497 1759 1228 1600 
Q 959 1441 959 1056 
Q 959 750 1161 570 
Q 1363 391 1709 391 
Q 2188 391 2477 730 
Q 2766 1069 2766 1631 
L 2766 1759 
L 2194 1759 
z
M 3341 1997 
L 3341 0 
L 2766 0 
L 2766 531 
Q 2569 213 2275 61 
Q 1981 -91 1556 -91 
Q 1019 -91 701 211 
Q 384 513 384 1019 
Q 384 1609 779 1909 
Q 1175 2209 1959 2209 
L 2766 2209 
L 2766 2266 
Q 2766 2663 2505 2880 
Q 2244 3097 1772 3097 
Q 1472 3097 1187 3025 
Q 903 2953 641 2809 
L 641 3341 
Q 956 3463 1253 3523 
Q 1550 3584 1831 3584 
Q 2591 3584 2966 3190 
Q 3341 2797 3341 1997 
z
" transform="scale(0.015625)"/>
       <path id="DejaVuSans-72" d="M 2631 2963 
Q 2534 3019 2420 3045 
Q 2306 3072 2169 3072 
Q 1681 3072 1420 2755 
Q 1159 2438 1159 1844 
L 1159 0 
L 581 0 
L 581 3500 
L 1159 3500 
L 1159 2956 
Q 1341 3275 1631 3429 
Q 1922 3584 2338 3584 
Q 2397 3584 2469 3576 
Q 2541 3569 2628 3553 
L 2631 2963 
z
" transform="scale(0.015625)"/>
      </defs>
      <use xlink:href="#DejaVuSans-59"/>
      <use xlink:href="#DejaVuSans-65" transform="translate(47.833984 0)"/>
      <use xlink:href="#DejaVuSans-61" transform="translate(109.357422 0)"/>
      <use xlink:href="#DejaVuSans-72" transform="translate(170.636719 0)"/>
     </g>
    </g>
   </g>
   <g id="matplotlib.axis_2">
    <g id="ytick_1">
     <g id="line2d_31">
      <defs>
       <path id="m1a88f1db26" d="M 0 0 
L -3.5 0 
" style="stroke: #000000; stroke-width: 0.8"/>
      </defs>
      <g>
       <use xlink:href="#m1a88f1db26" x="57.44" y="210.086521" style="stroke: #000000; stroke-width: 0.8"/>
      </g>
     </g>
     <g id="text_17">
      <!-- 990 -->
      <g transform="translate(31.3525 213.88574) scale(0.1 -0.1)">
       <use xlink:href="#DejaVuSans-39"/>
       <use xlink:href="#DejaVuSans-39" transform="translate(63.623047 0)"/>
       <use xlink:href="#DejaVuSans-30" transform="translate(127.246094 0)"/>
      </g>
     </g>
    </g>
    <g id="ytick_2">
     <g id="line2d_32">
      <g>
       <use xlink:href="#m1a88f1db26" x="57.44" y="161.269848" style="stroke: #000000; stroke-width: 0.8"/>
      </g>
     </g>
     <g id="text_18">
      <!-- 1000 -->
      <g transform="translate(24.99 165.069067) scale(0.1 -0.1)">
       <use xlink:href="#DejaVuSans-31"/>
       <use xlink:href="#DejaVuSans-30" transform="translate(63.623047 0)"/>
       <use xlink:href="#DejaVuSans-30" transform="translate(127.246094 0)"/>
       <use xlink:href="#DejaVuSans-30" transform="translate(190.869141 0)"/>
      </g>
     </g>
    </g>
    <g id="ytick_3">
     <g id="line2d_33">
      <g>
       <use xlink:href="#m1a88f1db26" x="57.44" y="112.453176" style="stroke: #000000; stroke-width: 0.8"/>
      </g>
     </g>
     <g id="text_19">
      <!-- 1010 -->
      <g transform="translate(24.99 116.252395) scale(0.1 -0.1)">
       <use xlink:href="#DejaVuSans-31"/>
       <use xlink:href="#DejaVuSans-30" transform="translate(63.623047 0)"/>
       <use xlink:href="#DejaVuSans-31" transform="translate(127.246094 0)"/>
       <use xlink:href="#DejaVuSans-30" transform="translate(190.869141 0)"/>
      </g>
     </g>
    </g>
    <g id="ytick_4">
     <g id="line2d_34">
      <g>
       <use xlink:href="#m1a88f1db26" x="57.44" y="63.636504" style="stroke: #000000; stroke-width: 0.8"/>
      </g>
     </g>
     <g id="text_20">
      <!-- 1020 -->
      <g transform="translate(24.99 67.435722) scale(0.1 -0.1)">
       <use xlink:href="#DejaVuSans-31"/>
       <use xlink:href="#DejaVuSans-30" transform="translate(63.623047 0)"/>
       <use xlink:href="#DejaVuSans-32" transform="translate(127.246094 0)"/>
       <use xlink:href="#DejaVuSans-30" transform="translate(190.869141 0)"/>
      </g>
     </g>
    </g>
    <g id="ytick_5">
     <g id="line2d_35">
      <g>
       <use xlink:href="#m1a88f1db26" x="57.44" y="14.819831" style="stroke: #000000; stroke-width: 0.8"/>
      </g>
     </g>
     <g id="text_21">
      <!-- 1030 -->
      <g transform="translate(24.99 18.61905) scale(0.1 -0.1)">
       <defs>
        <path id="DejaVuSans-33" d="M 2597 2516 
Q 3050 2419 3304 2112 
Q 3559 1806 3559 1356 
Q 3559 666 3084 287 
Q 2609 -91 1734 -91 
Q 1441 -91 1130 -33 
Q 819 25 488 141 
L 488 750 
Q 750 597 1062 519 
Q 1375 441 1716 441 
Q 2309 441 2620 675 
Q 2931 909 2931 1356 
Q 2931 1769 2642 2001 
Q 2353 2234 1838 2234 
L 1294 2234 
L 1294 2753 
L 1863 2753 
Q 2328 2753 2575 2939 
Q 2822 3125 2822 3475 
Q 2822 3834 2567 4026 
Q 2313 4219 1838 4219 
Q 1578 4219 1281 4162 
Q 984 4106 628 3988 
L 628 4550 
Q 988 4650 1302 4700 
Q 1616 4750 1894 4750 
Q 2613 4750 3031 4423 
Q 3450 4097 3450 3541 
Q 3450 3153 3228 2886 
Q 3006 2619 2597 2516 
z
" transform="scale(0.015625)"/>
       </defs>
       <use xlink:href="#DejaVuSans-31"/>
       <use xlink:href="#DejaVuSans-30" transform="translate(63.623047 0)"/>
       <use xlink:href="#DejaVuSans-33" transform="translate(127.246094 0)"/>
       <use xlink:href="#DejaVuSans-30" transform="translate(190.869141 0)"/>
      </g>
     </g>
    </g>
    <g id="text_22">
     <!-- Pressure msl -->
     <g transform="translate(18.910312 161.580751) rotate(-90) scale(0.1 -0.1)">
      <defs>
       <path id="DejaVuSans-50" d="M 1259 4147 
L 1259 2394 
L 2053 2394 
Q 2494 2394 2734 2622 
Q 2975 2850 2975 3272 
Q 2975 3691 2734 3919 
Q 2494 4147 2053 4147 
L 1259 4147 
z
M 628 4666 
L 2053 4666 
Q 2838 4666 3239 4311 
Q 3641 3956 3641 3272 
Q 3641 2581 3239 2228 
Q 2838 1875 2053 1875 
L 1259 1875 
L 1259 0 
L 628 0 
L 628 4666 
z
" transform="scale(0.015625)"/>
       <path id="DejaVuSans-73" d="M 2834 3397 
L 2834 2853 
Q 2591 2978 2328 3040 
Q 2066 3103 1784 3103 
Q 1356 3103 1142 2972 
Q 928 2841 928 2578 
Q 928 2378 1081 2264 
Q 1234 2150 1697 2047 
L 1894 2003 
Q 2506 1872 2764 1633 
Q 3022 1394 3022 966 
Q 3022 478 2636 193 
Q 2250 -91 1575 -91 
Q 1294 -91 989 -36 
Q 684 19 347 128 
L 347 722 
Q 666 556 975 473 
Q 1284 391 1588 391 
Q 1994 391 2212 530 
Q 2431 669 2431 922 
Q 2431 1156 2273 1281 
Q 2116 1406 1581 1522 
L 1381 1569 
Q 847 1681 609 1914 
Q 372 2147 372 2553 
Q 372 3047 722 3315 
Q 1072 3584 1716 3584 
Q 2034 3584 2315 3537 
Q 2597 3491 2834 3397 
z
" transform="scale(0.015625)"/>
       <path id="DejaVuSans-75" d="M 544 1381 
L 544 3500 
L 1119 3500 
L 1119 1403 
Q 1119 906 1312 657 
Q 1506 409 1894 409 
Q 2359 409 2629 706 
Q 2900 1003 2900 1516 
L 2900 3500 
L 3475 3500 
L 3475 0 
L 2900 0 
L 2900 538 
Q 2691 219 2414 64 
Q 2138 -91 1772 -91 
Q 1169 -91 856 284 
Q 544 659 544 1381 
z
M 1991 3584 
L 1991 3584 
z
" transform="scale(0.015625)"/>
       <path id="DejaVuSans-20" transform="scale(0.015625)"/>
       <path id="DejaVuSans-6d" d="M 3328 2828 
Q 3544 3216 3844 3400 
Q 4144 3584 4550 3584 
Q 5097 3584 5394 3201 
Q 5691 2819 5691 2113 
L 5691 0 
L 5113 0 
L 5113 2094 
Q 5113 2597 4934 2840 
Q 4756 3084 4391 3084 
Q 3944 3084 3684 2787 
Q 3425 2491 3425 1978 
L 3425 0 
L 2847 0 
L 2847 2094 
Q 2847 2600 2669 2842 
Q 2491 3084 2119 3084 
Q 1678 3084 1418 2786 
Q 1159 2488 1159 1978 
L 1159 0 
L 581 0 
L 581 3500 
L 1159 3500 
L 1159 2956 
Q 1356 3278 1631 3431 
Q 1906 3584 2284 3584 
Q 2666 3584 2933 3390 
Q 3200 3197 3328 2828 
z
" transform="scale(0.015625)"/>
       <path id="DejaVuSans-6c" d="M 603 4863 
L 1178 4863 
L 1178 0 
L 603 0 
L 603 4863 
z
" transform="scale(0.015625)"/>
      </defs>
      <use xlink:href="#DejaVuSans-50"/>
      <use xlink:href="#DejaVuSans-72" transform="translate(58.552734 0)"/>
      <use xlink:href="#DejaVuSans-65" transform="translate(97.416016 0)"/>
      <use xlink:href="#DejaVuSans-73" transform="translate(158.939453 0)"/>
      <use xlink:href="#DejaVuSans-73" transform="translate(211.039062 0)"/>
      <use xlink:href="#DejaVuSans-75" transform="translate(263.138672 0)"/>
      <use xlink:href="#DejaVuSans-72" transform="translate(326.517578 0)"/>
      <use xlink:href="#DejaVuSans-65" transform="translate(365.380859 0)"/>
      <use xlink:href="#DejaVuSans-20" transform="translate(426.904297 0)"/>
      <use xlink:href="#DejaVuSans-6d" transform="translate(458.691406 0)"/>
      <use xlink:href="#DejaVuSans-73" transform="translate(556.103516 0)"/>
      <use xlink:href="#DejaVuSans-6c" transform="translate(608.203125 0)"/>
     </g>
    </g>
   </g>
   <g id="line2d_36">
    <path d="M 93.610909 67.698736 
L 103.38683 68.001996 
L 113.162752 68.305257 
L 122.938673 68.608518 
L 132.714595 68.911778 
L 142.490516 69.215039 
L 152.266437 69.518299 
L 162.042359 69.82156 
L 171.81828 70.12482 
L 181.594201 70.428081 
L 191.370123 70.731341 
L 201.146044 71.034602 
L 210.921966 71.337863 
L 220.697887 71.641123 
L 230.473808 71.944384 
L 240.24973 72.247644 
L 250.025651 72.550905 
L 259.801572 72.854165 
L 269.577494 73.157426 
L 279.353415 73.460686 
L 289.129337 73.763947 
L 298.905258 74.067208 
L 308.681179 74.370468 
L 318.457101 74.673729 
L 328.233022 74.976989 
L 338.008943 75.28025 
L 347.784865 75.58351 
L 357.560786 75.886771 
L 367.336708 76.190031 
L 377.112629 76.493292 
L 386.88855 76.796553 
L 396.664472 77.099813 
L 406.440393 77.403074 
L 416.216314 77.706334 
L 425.992236 78.009595 
L 435.768157 78.312855 
L 445.544079 78.616116 
L 455.32 78.919376 
L 465.095921 79.222637 
L 474.871843 79.525898 
L 484.647764 79.829158 
L 494.423686 80.132419 
L 504.199607 80.435679 
L 513.975528 80.73894 
L 523.75145 81.0422 
L 533.527371 81.345461 
L 543.303292 81.648722 
L 553.079214 81.951982 
L 562.855135 82.255243 
L 572.631057 82.558503 
L 582.406978 82.861764 
L 592.182899 83.165024 
L 601.958821 83.468285 
L 611.734742 83.771545 
L 621.510663 84.074806 
L 631.286585 84.378067 
L 641.062506 84.681327 
L 650.838428 84.984588 
L 660.614349 85.287848 
L 670.39027 85.591109 
L 680.166192 85.894369 
L 689.942113 86.19763 
L 699.718034 86.50089 
L 709.493956 86.804151 
L 719.269877 87.107412 
L 729.045799 87.410672 
L 738.82172 87.713933 
L 748.597641 88.017193 
L 758.373563 88.320454 
L 768.149484 88.623714 
L 777.925405 88.926975 
L 787.701327 89.230235 
L 797.477248 89.533496 
L 807.25317 89.836757 
L 817.029091 90.140017 
" clip-path="url(#pa29925c4ae)" style="fill: none; stroke: #5279fa; stroke-width: 1.5; stroke-linecap: square"/>
   </g>
   <g id="line2d_37">
    <path d="M 57.44 78.919376 
L 853.2 78.919376 
" clip-path="url(#pa29925c4ae)" style="fill: none; stroke-dasharray: 1.5,2.475; stroke-dashoffset: 0; stroke: #808080; stroke-width: 1.5"/>
   </g>
   <g id="patch_3">
    <path d="M 57.44 246.04 
L 57.44 13.526189 
" style="fill: none; stroke: #000000; stroke-width: 0.8; stroke-linejoin: miter; stroke-linecap: square"/>
   </g>
   <g id="patch_4">
    <path d="M 57.44 246.04 
L 853.2 246.04 
" style="fill: none; stroke: #000000; stroke-width: 0.8; stroke-linejoin: miter; stroke-linecap: square"/>
   </g>
   <g id="legend_1">
    <g id="patch_5">
     <path d="M 720.8 50.882439 
L 846.2 50.882439 
Q 848.2 50.882439 848.2 48.882439 
L 848.2 20.526189 
Q 848.2 18.526189 846.2 18.526189 
L 720.8 18.526189 
Q 718.8 18.526189 718.8 20.526189 
L 718.8 48.882439 
Q 718.8 50.882439 720.8 50.882439 
z
" style="fill: #ffffff; opacity: 0.8; stroke: #cccccc; stroke-linejoin: miter"/>
    </g>
    <g id="line2d_38">
     <path d="M 722.8 26.624627 
L 732.8 26.624627 
L 742.8 26.624627 
" style="fill: none; stroke: #5279fa; stroke-width: 1.5; stroke-linecap: square"/>
    </g>
    <g id="text_23">
     <!-- Trend -->
     <g transform="translate(750.8 30.124627) scale(0.1 -0.1)">
      <defs>
       <path id="DejaVuSans-54" d="M -19 4666 
L 3928 4666 
L 3928 4134 
L 2272 4134 
L 2272 0 
L 1638 0 
L 1638 4134 
L -19 4134 
L -19 4666 
z
" transform="scale(0.015625)"/>
       <path id="DejaVuSans-6e" d="M 3513 2113 
L 3513 0 
L 2938 0 
L 2938 2094 
Q 2938 2591 2744 2837 
Q 2550 3084 2163 3084 
Q 1697 3084 1428 2787 
Q 1159 2491 1159 1978 
L 1159 0 
L 581 0 
L 581 3500 
L 1159 3500 
L 1159 2956 
Q 1366 3272 1645 3428 
Q 1925 3584 2291 3584 
Q 2894 3584 3203 3211 
Q 3513 2838 3513 2113 
z
" transform="scale(0.015625)"/>
       <path id="DejaVuSans-64" d="M 2906 2969 
L 2906 4863 
L 3481 4863 
L 3481 0 
L 2906 0 
L 2906 525 
Q 2725 213 2448 61 
Q 2172 -91 1784 -91 
Q 1150 -91 751 415 
Q 353 922 353 1747 
Q 353 2572 751 3078 
Q 1150 3584 1784 3584 
Q 2172 3584 2448 3432 
Q 2725 3281 2906 2969 
z
M 947 1747 
Q 947 1113 1208 752 
Q 1469 391 1925 391 
Q 2381 391 2643 752 
Q 2906 1113 2906 1747 
Q 2906 2381 2643 2742 
Q 2381 3103 1925 3103 
Q 1469 3103 1208 2742 
Q 947 2381 947 1747 
z
" transform="scale(0.015625)"/>
      </defs>
      <use xlink:href="#DejaVuSans-54"/>
      <use xlink:href="#DejaVuSans-72" transform="translate(46.333984 0)"/>
      <use xlink:href="#DejaVuSans-65" transform="translate(85.197266 0)"/>
      <use xlink:href="#DejaVuSans-6e" transform="translate(146.720703 0)"/>
      <use xlink:href="#DejaVuSans-64" transform="translate(210.099609 0)"/>
     </g>
    </g>
    <g id="line2d_39">
     <path d="M 722.8 41.302752 
L 732.8 41.302752 
L 742.8 41.302752 
" style="fill: none; stroke-dasharray: 1.5,2.475; stroke-dashoffset: 0; stroke: #808080; stroke-width: 1.5"/>
    </g>
    <g id="text_24">
     <!-- Average (1016.87) -->
     <g transform="translate(750.8 44.802752) scale(0.1 -0.1)">
      <defs>
       <path id="DejaVuSans-41" d="M 2188 4044 
L 1331 1722 
L 3047 1722 
L 2188 4044 
z
M 1831 4666 
L 2547 4666 
L 4325 0 
L 3669 0 
L 3244 1197 
L 1141 1197 
L 716 0 
L 50 0 
L 1831 4666 
z
" transform="scale(0.015625)"/>
       <path id="DejaVuSans-76" d="M 191 3500 
L 800 3500 
L 1894 563 
L 2988 3500 
L 3597 3500 
L 2284 0 
L 1503 0 
L 191 3500 
z
" transform="scale(0.015625)"/>
       <path id="DejaVuSans-67" d="M 2906 1791 
Q 2906 2416 2648 2759 
Q 2391 3103 1925 3103 
Q 1463 3103 1205 2759 
Q 947 2416 947 1791 
Q 947 1169 1205 825 
Q 1463 481 1925 481 
Q 2391 481 2648 825 
Q 2906 1169 2906 1791 
z
M 3481 434 
Q 3481 -459 3084 -895 
Q 2688 -1331 1869 -1331 
Q 1566 -1331 1297 -1286 
Q 1028 -1241 775 -1147 
L 775 -588 
Q 1028 -725 1275 -790 
Q 1522 -856 1778 -856 
Q 2344 -856 2625 -561 
Q 2906 -266 2906 331 
L 2906 616 
Q 2728 306 2450 153 
Q 2172 0 1784 0 
Q 1141 0 747 490 
Q 353 981 353 1791 
Q 353 2603 747 3093 
Q 1141 3584 1784 3584 
Q 2172 3584 2450 3431 
Q 2728 3278 2906 2969 
L 2906 3500 
L 3481 3500 
L 3481 434 
z
" transform="scale(0.015625)"/>
       <path id="DejaVuSans-28" d="M 1984 4856 
Q 1566 4138 1362 3434 
Q 1159 2731 1159 2009 
Q 1159 1288 1364 580 
Q 1569 -128 1984 -844 
L 1484 -844 
Q 1016 -109 783 600 
Q 550 1309 550 2009 
Q 550 2706 781 3412 
Q 1013 4119 1484 4856 
L 1984 4856 
z
" transform="scale(0.015625)"/>
       <path id="DejaVuSans-2e" d="M 684 794 
L 1344 794 
L 1344 0 
L 684 0 
L 684 794 
z
" transform="scale(0.015625)"/>
       <path id="DejaVuSans-29" d="M 513 4856 
L 1013 4856 
Q 1481 4119 1714 3412 
Q 1947 2706 1947 2009 
Q 1947 1309 1714 600 
Q 1481 -109 1013 -844 
L 513 -844 
Q 928 -128 1133 580 
Q 1338 1288 1338 2009 
Q 1338 2731 1133 3434 
Q 928 4138 513 4856 
z
" transform="scale(0.015625)"/>
      </defs>
      <use xlink:href="#DejaVuSans-41"/>
      <use xlink:href="#DejaVuSans-76" transform="translate(62.533203 0)"/>
      <use xlink:href="#DejaVuSans-65" transform="translate(121.712891 0)"/>
      <use xlink:href="#DejaVuSans-72" transform="translate(183.236328 0)"/>
      <use xlink:href="#DejaVuSans-61" transform="translate(224.349609 0)"/>
      <use xlink:href="#DejaVuSans-67" transform="translate(285.628906 0)"/>
      <use xlink:href="#DejaVuSans-65" transform="translate(349.105469 0)"/>
      <use xlink:href="#DejaVuSans-20" transform="translate(410.628906 0)"/>
      <use xlink:href="#DejaVuSans-28" transform="translate(442.416016 0)"/>
      <use xlink:href="#DejaVuSans-31" transform="translate(481.429688 0)"/>
      <use xlink:href="#DejaVuSans-30" transform="translate(545.052734 0)"/>
      <use xlink:href="#DejaVuSans-31" transform="translate(608.675781 0)"/>
      <use xlink:href="#DejaVuSans-36" transform="translate(672.298828 0)"/>
      <use xlink:href="#DejaVuSans-2e" transform="translate(735.921875 0)"/>
      <use xlink:href="#DejaVuSans-38" transform="translate(767.708984 0)"/>
      <use xlink:href="#DejaVuSans-37" transform="translate(831.332031 0)"/>
      <use xlink:href="#DejaVuSans-29" transform="translate(894.955078 0)"/>
     </g>
    </g>
   </g>
  </g>
 </g>
 <defs>
  <clipPath id="pa29925c4ae">
   <rect x="57.44" y="13.526189" width="795.76" height="232.513811"/>
  </clipPath>
 </defs>
</svg>
