<?xml version="1.0" encoding="utf-8" standalone="no"?>
<!DOCTYPE svg PUBLIC "-//W3C//DTD SVG 1.1//EN"
  "http://www.w3.org/Graphics/SVG/1.1/DTD/svg11.dtd">
<svg xmlns:xlink="http://www.w3.org/1999/xlink" width="864pt" height="288pt" viewBox="0 0 864 288" xmlns="http://www.w3.org/2000/svg" version="1.1">
 <metadata>
  <rdf:RDF xmlns:dc="http://purl.org/dc/elements/1.1/" xmlns:cc="http://creativecommons.org/ns#" xmlns:rdf="http://www.w3.org/1999/02/22-rdf-syntax-ns#">
   <cc:Work>
    <dc:type rdf:resource="http://purl.org/dc/dcmitype/StillImage"/>
    <dc:date>2025-12-03T00:29:38.300747</dc:date>
    <dc:format>image/svg+xml</dc:format>
    <dc:creator>
     <cc:Agent>
      <dc:title>Matplotlib v3.10.0, https://matplotlib.org/</dc:title>
     </cc:Agent>
    </dc:creator>
   </cc:Work>
  </rdf:RDF>
 </metadata>
 <defs>
  <style type="text/css">*{stroke-linejoin: round; stroke-linecap: butt}</style>
 </defs>
 <g id="figure_1">
  <g id="patch_1">
   <path d="M 0 288 
L 864 288 
L 864 0 
L 0 0 
z
" style="fill: #ffffff"/>
  </g>
  <g id="axes_1">
   <g id="patch_2">
    <path d="M 44.66 246.04 
L 853.2 246.04 
L 853.2 10.8 
L 44.66 10.8 
z
" style="fill: #ffffff"/>
   </g>
   <g id="PathCollection_1">
    <defs>
     <path id="m3cf9e0861a" d="M 0 3 
C 0.795609 3 1.55874 2.683901 2.12132 2.12132 
C 2.683901 1.55874 3 0.795609 3 0 
C 3 -0.795609 2.683901 -1.55874 2.12132 -2.12132 
C 1.55874 -2.683901 0.795609 -3 0 -3 
C -0.795609 -3 -1.55874 -2.683901 -2.12132 -2.12132 
C -2.683901 -1.55874 -3 -0.795609 -3 0 
C -3 0.795609 -2.683901 1.55874 -2.12132 2.12132 
C -1.55874 2.683901 -0.795609 3 0 3 
z
" style="stroke: #9fb3b1"/>
    </defs>
    <g clip-path="url(#p08576bee64)">
     <use xlink:href="#m3cf9e0861a" x="81.411818" y="192.300471" style="fill: #9fb3b1; stroke: #9fb3b1"/>
     <use xlink:href="#m3cf9e0861a" x="91.344742" y="156.132091" style="fill: #9fb3b1; stroke: #9fb3b1"/>
     <use xlink:href="#m3cf9e0861a" x="101.277666" y="206.654396" style="fill: #9fb3b1; stroke: #9fb3b1"/>
     <use xlink:href="#m3cf9e0861a" x="111.21059" y="106.17228" style="fill: #9fb3b1; stroke: #9fb3b1"/>
     <use xlink:href="#m3cf9e0861a" x="121.143514" y="149.584699" style="fill: #9fb3b1; stroke: #9fb3b1"/>
     <use xlink:href="#m3cf9e0861a" x="131.076437" y="166.195149" style="fill: #9fb3b1; stroke: #9fb3b1"/>
     <use xlink:href="#m3cf9e0861a" x="141.009361" y="51.971628" style="fill: #9fb3b1; stroke: #9fb3b1"/>
     <use xlink:href="#m3cf9e0861a" x="150.942285" y="134.615231" style="fill: #9fb3b1; stroke: #9fb3b1"/>
     <use xlink:href="#m3cf9e0861a" x="160.875209" y="121.501789" style="fill: #9fb3b1; stroke: #9fb3b1"/>
     <use xlink:href="#m3cf9e0861a" x="170.808133" y="235.347273" style="fill: #9fb3b1; stroke: #9fb3b1"/>
     <use xlink:href="#m3cf9e0861a" x="180.741057" y="192.300473" style="fill: #9fb3b1; stroke: #9fb3b1"/>
     <use xlink:href="#m3cf9e0861a" x="190.67398" y="145.196477" style="fill: #9fb3b1; stroke: #9fb3b1"/>
     <use xlink:href="#m3cf9e0861a" x="200.606904" y="124.261832" style="fill: #9fb3b1; stroke: #9fb3b1"/>
     <use xlink:href="#m3cf9e0861a" x="210.539828" y="197.587938" style="fill: #9fb3b1; stroke: #9fb3b1"/>
     <use xlink:href="#m3cf9e0861a" x="220.472752" y="174.453688" style="fill: #9fb3b1; stroke: #9fb3b1"/>
     <use xlink:href="#m3cf9e0861a" x="230.405676" y="178.849678" style="fill: #9fb3b1; stroke: #9fb3b1"/>
     <use xlink:href="#m3cf9e0861a" x="240.3386" y="184.073922" style="fill: #9fb3b1; stroke: #9fb3b1"/>
     <use xlink:href="#m3cf9e0861a" x="250.271523" y="205.051086" style="fill: #9fb3b1; stroke: #9fb3b1"/>
     <use xlink:href="#m3cf9e0861a" x="260.204447" y="205.051091" style="fill: #9fb3b1; stroke: #9fb3b1"/>
     <use xlink:href="#m3cf9e0861a" x="270.137371" y="130.434752" style="fill: #9fb3b1; stroke: #9fb3b1"/>
     <use xlink:href="#m3cf9e0861a" x="280.070295" y="111.318118" style="fill: #9fb3b1; stroke: #9fb3b1"/>
     <use xlink:href="#m3cf9e0861a" x="290.003219" y="152.697542" style="fill: #9fb3b1; stroke: #9fb3b1"/>
     <use xlink:href="#m3cf9e0861a" x="299.936143" y="147.705949" style="fill: #9fb3b1; stroke: #9fb3b1"/>
     <use xlink:href="#m3cf9e0861a" x="309.869066" y="153.868029" style="fill: #9fb3b1; stroke: #9fb3b1"/>
     <use xlink:href="#m3cf9e0861a" x="319.80199" y="128.21391" style="fill: #9fb3b1; stroke: #9fb3b1"/>
     <use xlink:href="#m3cf9e0861a" x="329.734914" y="175.74153" style="fill: #9fb3b1; stroke: #9fb3b1"/>
     <use xlink:href="#m3cf9e0861a" x="339.667838" y="171.337706" style="fill: #9fb3b1; stroke: #9fb3b1"/>
     <use xlink:href="#m3cf9e0861a" x="349.600762" y="153.624581" style="fill: #9fb3b1; stroke: #9fb3b1"/>
     <use xlink:href="#m3cf9e0861a" x="359.533686" y="138.758244" style="fill: #9fb3b1; stroke: #9fb3b1"/>
     <use xlink:href="#m3cf9e0861a" x="369.466609" y="88.224326" style="fill: #9fb3b1; stroke: #9fb3b1"/>
     <use xlink:href="#m3cf9e0861a" x="379.399533" y="21.492727" style="fill: #9fb3b1; stroke: #9fb3b1"/>
     <use xlink:href="#m3cf9e0861a" x="389.332457" y="159.929095" style="fill: #9fb3b1; stroke: #9fb3b1"/>
     <use xlink:href="#m3cf9e0861a" x="399.265381" y="148.77486" style="fill: #9fb3b1; stroke: #9fb3b1"/>
     <use xlink:href="#m3cf9e0861a" x="409.198305" y="153.868029" style="fill: #9fb3b1; stroke: #9fb3b1"/>
     <use xlink:href="#m3cf9e0861a" x="419.131229" y="99.326032" style="fill: #9fb3b1; stroke: #9fb3b1"/>
     <use xlink:href="#m3cf9e0861a" x="429.064152" y="191.012468" style="fill: #9fb3b1; stroke: #9fb3b1"/>
     <use xlink:href="#m3cf9e0861a" x="438.997076" y="156.007054" style="fill: #9fb3b1; stroke: #9fb3b1"/>
     <use xlink:href="#m3cf9e0861a" x="448.93" y="157.987635" style="fill: #9fb3b1; stroke: #9fb3b1"/>
     <use xlink:href="#m3cf9e0861a" x="458.862924" y="175.74153" style="fill: #9fb3b1; stroke: #9fb3b1"/>
     <use xlink:href="#m3cf9e0861a" x="468.795848" y="232.878323" style="fill: #9fb3b1; stroke: #9fb3b1"/>
     <use xlink:href="#m3cf9e0861a" x="478.728771" y="84.759063" style="fill: #9fb3b1; stroke: #9fb3b1"/>
     <use xlink:href="#m3cf9e0861a" x="488.661695" y="198.325536" style="fill: #9fb3b1; stroke: #9fb3b1"/>
     <use xlink:href="#m3cf9e0861a" x="498.594619" y="165.8177" style="fill: #9fb3b1; stroke: #9fb3b1"/>
     <use xlink:href="#m3cf9e0861a" x="508.527543" y="138.896917" style="fill: #9fb3b1; stroke: #9fb3b1"/>
     <use xlink:href="#m3cf9e0861a" x="518.460467" y="143.293092" style="fill: #9fb3b1; stroke: #9fb3b1"/>
     <use xlink:href="#m3cf9e0861a" x="528.393391" y="118.427465" style="fill: #9fb3b1; stroke: #9fb3b1"/>
     <use xlink:href="#m3cf9e0861a" x="538.326314" y="178.565905" style="fill: #9fb3b1; stroke: #9fb3b1"/>
     <use xlink:href="#m3cf9e0861a" x="548.259238" y="216.731769" style="fill: #9fb3b1; stroke: #9fb3b1"/>
     <use xlink:href="#m3cf9e0861a" x="558.192162" y="178.396254" style="fill: #9fb3b1; stroke: #9fb3b1"/>
     <use xlink:href="#m3cf9e0861a" x="568.125086" y="142.247483" style="fill: #9fb3b1; stroke: #9fb3b1"/>
     <use xlink:href="#m3cf9e0861a" x="578.05801" y="203.609868" style="fill: #9fb3b1; stroke: #9fb3b1"/>
     <use xlink:href="#m3cf9e0861a" x="587.990934" y="145.864178" style="fill: #9fb3b1; stroke: #9fb3b1"/>
     <use xlink:href="#m3cf9e0861a" x="597.923857" y="124.474499" style="fill: #9fb3b1; stroke: #9fb3b1"/>
     <use xlink:href="#m3cf9e0861a" x="607.856781" y="213.863304" style="fill: #9fb3b1; stroke: #9fb3b1"/>
     <use xlink:href="#m3cf9e0861a" x="617.789705" y="195.991799" style="fill: #9fb3b1; stroke: #9fb3b1"/>
     <use xlink:href="#m3cf9e0861a" x="627.722629" y="136.394967" style="fill: #9fb3b1; stroke: #9fb3b1"/>
     <use xlink:href="#m3cf9e0861a" x="637.655553" y="141.248287" style="fill: #9fb3b1; stroke: #9fb3b1"/>
     <use xlink:href="#m3cf9e0861a" x="647.588477" y="113.134714" style="fill: #9fb3b1; stroke: #9fb3b1"/>
     <use xlink:href="#m3cf9e0861a" x="657.5214" y="186.354067" style="fill: #9fb3b1; stroke: #9fb3b1"/>
     <use xlink:href="#m3cf9e0861a" x="667.454324" y="163.591468" style="fill: #9fb3b1; stroke: #9fb3b1"/>
     <use xlink:href="#m3cf9e0861a" x="677.387248" y="109.607481" style="fill: #9fb3b1; stroke: #9fb3b1"/>
     <use xlink:href="#m3cf9e0861a" x="687.320172" y="221.901624" style="fill: #9fb3b1; stroke: #9fb3b1"/>
     <use xlink:href="#m3cf9e0861a" x="697.253096" y="187.928252" style="fill: #9fb3b1; stroke: #9fb3b1"/>
     <use xlink:href="#m3cf9e0861a" x="707.18602" y="209.098678" style="fill: #9fb3b1; stroke: #9fb3b1"/>
     <use xlink:href="#m3cf9e0861a" x="717.118943" y="154.275296" style="fill: #9fb3b1; stroke: #9fb3b1"/>
     <use xlink:href="#m3cf9e0861a" x="727.051867" y="214.518397" style="fill: #9fb3b1; stroke: #9fb3b1"/>
     <use xlink:href="#m3cf9e0861a" x="736.984791" y="145.603962" style="fill: #9fb3b1; stroke: #9fb3b1"/>
     <use xlink:href="#m3cf9e0861a" x="746.917715" y="160.366846" style="fill: #9fb3b1; stroke: #9fb3b1"/>
     <use xlink:href="#m3cf9e0861a" x="756.850639" y="127.806243" style="fill: #9fb3b1; stroke: #9fb3b1"/>
     <use xlink:href="#m3cf9e0861a" x="766.783563" y="153.868029" style="fill: #9fb3b1; stroke: #9fb3b1"/>
     <use xlink:href="#m3cf9e0861a" x="776.716486" y="195.757199" style="fill: #9fb3b1; stroke: #9fb3b1"/>
     <use xlink:href="#m3cf9e0861a" x="786.64941" y="110.148127" style="fill: #9fb3b1; stroke: #9fb3b1"/>
     <use xlink:href="#m3cf9e0861a" x="796.582334" y="186.354067" style="fill: #9fb3b1; stroke: #9fb3b1"/>
     <use xlink:href="#m3cf9e0861a" x="806.515258" y="113.079275" style="fill: #9fb3b1; stroke: #9fb3b1"/>
     <use xlink:href="#m3cf9e0861a" x="816.448182" y="136.293421" style="fill: #9fb3b1; stroke: #9fb3b1"/>
    </g>
   </g>
   <g id="matplotlib.axis_1">
    <g id="xtick_1">
     <g id="line2d_1">
      <path d="M 81.411818 246.04 
L 81.411818 10.8 
" clip-path="url(#p08576bee64)" style="fill: none; stroke: #b0b0b0; stroke-width: 0.8; stroke-linecap: square"/>
     </g>
     <g id="line2d_2">
      <defs>
       <path id="mb7747de6aa" d="M 0 0 
L 0 3.5 
" style="stroke: #000000; stroke-width: 0.8"/>
      </defs>
      <g>
       <use xlink:href="#mb7747de6aa" x="81.411818" y="246.04" style="stroke: #000000; stroke-width: 0.8"/>
      </g>
     </g>
     <g id="text_1">
      <!-- 1950 -->
      <g transform="translate(68.686818 260.638438) scale(0.1 -0.1)">
       <defs>
        <path id="DejaVuSans-31" d="M 794 531 
L 1825 531 
L 1825 4091 
L 703 3866 
L 703 4441 
L 1819 4666 
L 2450 4666 
L 2450 531 
L 3481 531 
L 3481 0 
L 794 0 
L 794 531 
z
" transform="scale(0.015625)"/>
        <path id="DejaVuSans-39" d="M 703 97 
L 703 672 
Q 941 559 1184 500 
Q 1428 441 1663 441 
Q 2288 441 2617 861 
Q 2947 1281 2994 2138 
Q 2813 1869 2534 1725 
Q 2256 1581 1919 1581 
Q 1219 1581 811 2004 
Q 403 2428 403 3163 
Q 403 3881 828 4315 
Q 1253 4750 1959 4750 
Q 2769 4750 3195 4129 
Q 3622 3509 3622 2328 
Q 3622 1225 3098 567 
Q 2575 -91 1691 -91 
Q 1453 -91 1209 -44 
Q 966 3 703 97 
z
M 1959 2075 
Q 2384 2075 2632 2365 
Q 2881 2656 2881 3163 
Q 2881 3666 2632 3958 
Q 2384 4250 1959 4250 
Q 1534 4250 1286 3958 
Q 1038 3666 1038 3163 
Q 1038 2656 1286 2365 
Q 1534 2075 1959 2075 
z
" transform="scale(0.015625)"/>
        <path id="DejaVuSans-35" d="M 691 4666 
L 3169 4666 
L 3169 4134 
L 1269 4134 
L 1269 2991 
Q 1406 3038 1543 3061 
Q 1681 3084 1819 3084 
Q 2600 3084 3056 2656 
Q 3513 2228 3513 1497 
Q 3513 744 3044 326 
Q 2575 -91 1722 -91 
Q 1428 -91 1123 -41 
Q 819 9 494 109 
L 494 744 
Q 775 591 1075 516 
Q 1375 441 1709 441 
Q 2250 441 2565 725 
Q 2881 1009 2881 1497 
Q 2881 1984 2565 2268 
Q 2250 2553 1709 2553 
Q 1456 2553 1204 2497 
Q 953 2441 691 2322 
L 691 4666 
z
" transform="scale(0.015625)"/>
        <path id="DejaVuSans-30" d="M 2034 4250 
Q 1547 4250 1301 3770 
Q 1056 3291 1056 2328 
Q 1056 1369 1301 889 
Q 1547 409 2034 409 
Q 2525 409 2770 889 
Q 3016 1369 3016 2328 
Q 3016 3291 2770 3770 
Q 2525 4250 2034 4250 
z
M 2034 4750 
Q 2819 4750 3233 4129 
Q 3647 3509 3647 2328 
Q 3647 1150 3233 529 
Q 2819 -91 2034 -91 
Q 1250 -91 836 529 
Q 422 1150 422 2328 
Q 422 3509 836 4129 
Q 1250 4750 2034 4750 
z
" transform="scale(0.015625)"/>
       </defs>
       <use xlink:href="#DejaVuSans-31"/>
       <use xlink:href="#DejaVuSans-39" transform="translate(63.623047 0)"/>
       <use xlink:href="#DejaVuSans-35" transform="translate(127.246094 0)"/>
       <use xlink:href="#DejaVuSans-30" transform="translate(190.869141 0)"/>
      </g>
     </g>
    </g>
    <g id="xtick_2">
     <g id="line2d_3">
      <path d="M 131.076437 246.04 
L 131.076437 10.8 
" clip-path="url(#p08576bee64)" style="fill: none; stroke: #b0b0b0; stroke-width: 0.8; stroke-linecap: square"/>
     </g>
     <g id="line2d_4">
      <g>
       <use xlink:href="#mb7747de6aa" x="131.076437" y="246.04" style="stroke: #000000; stroke-width: 0.8"/>
      </g>
     </g>
     <g id="text_2">
      <!-- 1955 -->
      <g transform="translate(118.351437 260.638438) scale(0.1 -0.1)">
       <use xlink:href="#DejaVuSans-31"/>
       <use xlink:href="#DejaVuSans-39" transform="translate(63.623047 0)"/>
       <use xlink:href="#DejaVuSans-35" transform="translate(127.246094 0)"/>
       <use xlink:href="#DejaVuSans-35" transform="translate(190.869141 0)"/>
      </g>
     </g>
    </g>
    <g id="xtick_3">
     <g id="line2d_5">
      <path d="M 180.741057 246.04 
L 180.741057 10.8 
" clip-path="url(#p08576bee64)" style="fill: none; stroke: #b0b0b0; stroke-width: 0.8; stroke-linecap: square"/>
     </g>
     <g id="line2d_6">
      <g>
       <use xlink:href="#mb7747de6aa" x="180.741057" y="246.04" style="stroke: #000000; stroke-width: 0.8"/>
      </g>
     </g>
     <g id="text_3">
      <!-- 1960 -->
      <g transform="translate(168.016057 260.638438) scale(0.1 -0.1)">
       <defs>
        <path id="DejaVuSans-36" d="M 2113 2584 
Q 1688 2584 1439 2293 
Q 1191 2003 1191 1497 
Q 1191 994 1439 701 
Q 1688 409 2113 409 
Q 2538 409 2786 701 
Q 3034 994 3034 1497 
Q 3034 2003 2786 2293 
Q 2538 2584 2113 2584 
z
M 3366 4563 
L 3366 3988 
Q 3128 4100 2886 4159 
Q 2644 4219 2406 4219 
Q 1781 4219 1451 3797 
Q 1122 3375 1075 2522 
Q 1259 2794 1537 2939 
Q 1816 3084 2150 3084 
Q 2853 3084 3261 2657 
Q 3669 2231 3669 1497 
Q 3669 778 3244 343 
Q 2819 -91 2113 -91 
Q 1303 -91 875 529 
Q 447 1150 447 2328 
Q 447 3434 972 4092 
Q 1497 4750 2381 4750 
Q 2619 4750 2861 4703 
Q 3103 4656 3366 4563 
z
" transform="scale(0.015625)"/>
       </defs>
       <use xlink:href="#DejaVuSans-31"/>
       <use xlink:href="#DejaVuSans-39" transform="translate(63.623047 0)"/>
       <use xlink:href="#DejaVuSans-36" transform="translate(127.246094 0)"/>
       <use xlink:href="#DejaVuSans-30" transform="translate(190.869141 0)"/>
      </g>
     </g>
    </g>
    <g id="xtick_4">
     <g id="line2d_7">
      <path d="M 230.405676 246.04 
L 230.405676 10.8 
" clip-path="url(#p08576bee64)" style="fill: none; stroke: #b0b0b0; stroke-width: 0.8; stroke-linecap: square"/>
     </g>
     <g id="line2d_8">
      <g>
       <use xlink:href="#mb7747de6aa" x="230.405676" y="246.04" style="stroke: #000000; stroke-width: 0.8"/>
      </g>
     </g>
     <g id="text_4">
      <!-- 1965 -->
      <g transform="translate(217.680676 260.638438) scale(0.1 -0.1)">
       <use xlink:href="#DejaVuSans-31"/>
       <use xlink:href="#DejaVuSans-39" transform="translate(63.623047 0)"/>
       <use xlink:href="#DejaVuSans-36" transform="translate(127.246094 0)"/>
       <use xlink:href="#DejaVuSans-35" transform="translate(190.869141 0)"/>
      </g>
     </g>
    </g>
    <g id="xtick_5">
     <g id="line2d_9">
      <path d="M 280.070295 246.04 
L 280.070295 10.8 
" clip-path="url(#p08576bee64)" style="fill: none; stroke: #b0b0b0; stroke-width: 0.8; stroke-linecap: square"/>
     </g>
     <g id="line2d_10">
      <g>
       <use xlink:href="#mb7747de6aa" x="280.070295" y="246.04" style="stroke: #000000; stroke-width: 0.8"/>
      </g>
     </g>
     <g id="text_5">
      <!-- 1970 -->
      <g transform="translate(267.345295 260.638438) scale(0.1 -0.1)">
       <defs>
        <path id="DejaVuSans-37" d="M 525 4666 
L 3525 4666 
L 3525 4397 
L 1831 0 
L 1172 0 
L 2766 4134 
L 525 4134 
L 525 4666 
z
" transform="scale(0.015625)"/>
       </defs>
       <use xlink:href="#DejaVuSans-31"/>
       <use xlink:href="#DejaVuSans-39" transform="translate(63.623047 0)"/>
       <use xlink:href="#DejaVuSans-37" transform="translate(127.246094 0)"/>
       <use xlink:href="#DejaVuSans-30" transform="translate(190.869141 0)"/>
      </g>
     </g>
    </g>
    <g id="xtick_6">
     <g id="line2d_11">
      <path d="M 329.734914 246.04 
L 329.734914 10.8 
" clip-path="url(#p08576bee64)" style="fill: none; stroke: #b0b0b0; stroke-width: 0.8; stroke-linecap: square"/>
     </g>
     <g id="line2d_12">
      <g>
       <use xlink:href="#mb7747de6aa" x="329.734914" y="246.04" style="stroke: #000000; stroke-width: 0.8"/>
      </g>
     </g>
     <g id="text_6">
      <!-- 1975 -->
      <g transform="translate(317.009914 260.638438) scale(0.1 -0.1)">
       <use xlink:href="#DejaVuSans-31"/>
       <use xlink:href="#DejaVuSans-39" transform="translate(63.623047 0)"/>
       <use xlink:href="#DejaVuSans-37" transform="translate(127.246094 0)"/>
       <use xlink:href="#DejaVuSans-35" transform="translate(190.869141 0)"/>
      </g>
     </g>
    </g>
    <g id="xtick_7">
     <g id="line2d_13">
      <path d="M 379.399533 246.04 
L 379.399533 10.8 
" clip-path="url(#p08576bee64)" style="fill: none; stroke: #b0b0b0; stroke-width: 0.8; stroke-linecap: square"/>
     </g>
     <g id="line2d_14">
      <g>
       <use xlink:href="#mb7747de6aa" x="379.399533" y="246.04" style="stroke: #000000; stroke-width: 0.8"/>
      </g>
     </g>
     <g id="text_7">
      <!-- 1980 -->
      <g transform="translate(366.674533 260.638438) scale(0.1 -0.1)">
       <defs>
        <path id="DejaVuSans-38" d="M 2034 2216 
Q 1584 2216 1326 1975 
Q 1069 1734 1069 1313 
Q 1069 891 1326 650 
Q 1584 409 2034 409 
Q 2484 409 2743 651 
Q 3003 894 3003 1313 
Q 3003 1734 2745 1975 
Q 2488 2216 2034 2216 
z
M 1403 2484 
Q 997 2584 770 2862 
Q 544 3141 544 3541 
Q 544 4100 942 4425 
Q 1341 4750 2034 4750 
Q 2731 4750 3128 4425 
Q 3525 4100 3525 3541 
Q 3525 3141 3298 2862 
Q 3072 2584 2669 2484 
Q 3125 2378 3379 2068 
Q 3634 1759 3634 1313 
Q 3634 634 3220 271 
Q 2806 -91 2034 -91 
Q 1263 -91 848 271 
Q 434 634 434 1313 
Q 434 1759 690 2068 
Q 947 2378 1403 2484 
z
M 1172 3481 
Q 1172 3119 1398 2916 
Q 1625 2713 2034 2713 
Q 2441 2713 2670 2916 
Q 2900 3119 2900 3481 
Q 2900 3844 2670 4047 
Q 2441 4250 2034 4250 
Q 1625 4250 1398 4047 
Q 1172 3844 1172 3481 
z
" transform="scale(0.015625)"/>
       </defs>
       <use xlink:href="#DejaVuSans-31"/>
       <use xlink:href="#DejaVuSans-39" transform="translate(63.623047 0)"/>
       <use xlink:href="#DejaVuSans-38" transform="translate(127.246094 0)"/>
       <use xlink:href="#DejaVuSans-30" transform="translate(190.869141 0)"/>
      </g>
     </g>
    </g>
    <g id="xtick_8">
     <g id="line2d_15">
      <path d="M 429.064152 246.04 
L 429.064152 10.8 
" clip-path="url(#p08576bee64)" style="fill: none; stroke: #b0b0b0; stroke-width: 0.8; stroke-linecap: square"/>
     </g>
     <g id="line2d_16">
      <g>
       <use xlink:href="#mb7747de6aa" x="429.064152" y="246.04" style="stroke: #000000; stroke-width: 0.8"/>
      </g>
     </g>
     <g id="text_8">
      <!-- 1985 -->
      <g transform="translate(416.339152 260.638438) scale(0.1 -0.1)">
       <use xlink:href="#DejaVuSans-31"/>
       <use xlink:href="#DejaVuSans-39" transform="translate(63.623047 0)"/>
       <use xlink:href="#DejaVuSans-38" transform="translate(127.246094 0)"/>
       <use xlink:href="#DejaVuSans-35" transform="translate(190.869141 0)"/>
      </g>
     </g>
    </g>
    <g id="xtick_9">
     <g id="line2d_17">
      <path d="M 478.728771 246.04 
L 478.728771 10.8 
" clip-path="url(#p08576bee64)" style="fill: none; stroke: #b0b0b0; stroke-width: 0.8; stroke-linecap: square"/>
     </g>
     <g id="line2d_18">
      <g>
       <use xlink:href="#mb7747de6aa" x="478.728771" y="246.04" style="stroke: #000000; stroke-width: 0.8"/>
      </g>
     </g>
     <g id="text_9">
      <!-- 1990 -->
      <g transform="translate(466.003771 260.638438) scale(0.1 -0.1)">
       <use xlink:href="#DejaVuSans-31"/>
       <use xlink:href="#DejaVuSans-39" transform="translate(63.623047 0)"/>
       <use xlink:href="#DejaVuSans-39" transform="translate(127.246094 0)"/>
       <use xlink:href="#DejaVuSans-30" transform="translate(190.869141 0)"/>
      </g>
     </g>
    </g>
    <g id="xtick_10">
     <g id="line2d_19">
      <path d="M 528.393391 246.04 
L 528.393391 10.8 
" clip-path="url(#p08576bee64)" style="fill: none; stroke: #b0b0b0; stroke-width: 0.8; stroke-linecap: square"/>
     </g>
     <g id="line2d_20">
      <g>
       <use xlink:href="#mb7747de6aa" x="528.393391" y="246.04" style="stroke: #000000; stroke-width: 0.8"/>
      </g>
     </g>
     <g id="text_10">
      <!-- 1995 -->
      <g transform="translate(515.668391 260.638438) scale(0.1 -0.1)">
       <use xlink:href="#DejaVuSans-31"/>
       <use xlink:href="#DejaVuSans-39" transform="translate(63.623047 0)"/>
       <use xlink:href="#DejaVuSans-39" transform="translate(127.246094 0)"/>
       <use xlink:href="#DejaVuSans-35" transform="translate(190.869141 0)"/>
      </g>
     </g>
    </g>
    <g id="xtick_11">
     <g id="line2d_21">
      <path d="M 578.05801 246.04 
L 578.05801 10.8 
" clip-path="url(#p08576bee64)" style="fill: none; stroke: #b0b0b0; stroke-width: 0.8; stroke-linecap: square"/>
     </g>
     <g id="line2d_22">
      <g>
       <use xlink:href="#mb7747de6aa" x="578.05801" y="246.04" style="stroke: #000000; stroke-width: 0.8"/>
      </g>
     </g>
     <g id="text_11">
      <!-- 2000 -->
      <g transform="translate(565.33301 260.638438) scale(0.1 -0.1)">
       <defs>
        <path id="DejaVuSans-32" d="M 1228 531 
L 3431 531 
L 3431 0 
L 469 0 
L 469 531 
Q 828 903 1448 1529 
Q 2069 2156 2228 2338 
Q 2531 2678 2651 2914 
Q 2772 3150 2772 3378 
Q 2772 3750 2511 3984 
Q 2250 4219 1831 4219 
Q 1534 4219 1204 4116 
Q 875 4013 500 3803 
L 500 4441 
Q 881 4594 1212 4672 
Q 1544 4750 1819 4750 
Q 2544 4750 2975 4387 
Q 3406 4025 3406 3419 
Q 3406 3131 3298 2873 
Q 3191 2616 2906 2266 
Q 2828 2175 2409 1742 
Q 1991 1309 1228 531 
z
" transform="scale(0.015625)"/>
       </defs>
       <use xlink:href="#DejaVuSans-32"/>
       <use xlink:href="#DejaVuSans-30" transform="translate(63.623047 0)"/>
       <use xlink:href="#DejaVuSans-30" transform="translate(127.246094 0)"/>
       <use xlink:href="#DejaVuSans-30" transform="translate(190.869141 0)"/>
      </g>
     </g>
    </g>
    <g id="xtick_12">
     <g id="line2d_23">
      <path d="M 627.722629 246.04 
L 627.722629 10.8 
" clip-path="url(#p08576bee64)" style="fill: none; stroke: #b0b0b0; stroke-width: 0.8; stroke-linecap: square"/>
     </g>
     <g id="line2d_24">
      <g>
       <use xlink:href="#mb7747de6aa" x="627.722629" y="246.04" style="stroke: #000000; stroke-width: 0.8"/>
      </g>
     </g>
     <g id="text_12">
      <!-- 2005 -->
      <g transform="translate(614.997629 260.638438) scale(0.1 -0.1)">
       <use xlink:href="#DejaVuSans-32"/>
       <use xlink:href="#DejaVuSans-30" transform="translate(63.623047 0)"/>
       <use xlink:href="#DejaVuSans-30" transform="translate(127.246094 0)"/>
       <use xlink:href="#DejaVuSans-35" transform="translate(190.869141 0)"/>
      </g>
     </g>
    </g>
    <g id="xtick_13">
     <g id="line2d_25">
      <path d="M 677.387248 246.04 
L 677.387248 10.8 
" clip-path="url(#p08576bee64)" style="fill: none; stroke: #b0b0b0; stroke-width: 0.8; stroke-linecap: square"/>
     </g>
     <g id="line2d_26">
      <g>
       <use xlink:href="#mb7747de6aa" x="677.387248" y="246.04" style="stroke: #000000; stroke-width: 0.8"/>
      </g>
     </g>
     <g id="text_13">
      <!-- 2010 -->
      <g transform="translate(664.662248 260.638438) scale(0.1 -0.1)">
       <use xlink:href="#DejaVuSans-32"/>
       <use xlink:href="#DejaVuSans-30" transform="translate(63.623047 0)"/>
       <use xlink:href="#DejaVuSans-31" transform="translate(127.246094 0)"/>
       <use xlink:href="#DejaVuSans-30" transform="translate(190.869141 0)"/>
      </g>
     </g>
    </g>
    <g id="xtick_14">
     <g id="line2d_27">
      <path d="M 727.051867 246.04 
L 727.051867 10.8 
" clip-path="url(#p08576bee64)" style="fill: none; stroke: #b0b0b0; stroke-width: 0.8; stroke-linecap: square"/>
     </g>
     <g id="line2d_28">
      <g>
       <use xlink:href="#mb7747de6aa" x="727.051867" y="246.04" style="stroke: #000000; stroke-width: 0.8"/>
      </g>
     </g>
     <g id="text_14">
      <!-- 2015 -->
      <g transform="translate(714.326867 260.638438) scale(0.1 -0.1)">
       <use xlink:href="#DejaVuSans-32"/>
       <use xlink:href="#DejaVuSans-30" transform="translate(63.623047 0)"/>
       <use xlink:href="#DejaVuSans-31" transform="translate(127.246094 0)"/>
       <use xlink:href="#DejaVuSans-35" transform="translate(190.869141 0)"/>
      </g>
     </g>
    </g>
    <g id="xtick_15">
     <g id="line2d_29">
      <path d="M 776.716486 246.04 
L 776.716486 10.8 
" clip-path="url(#p08576bee64)" style="fill: none; stroke: #b0b0b0; stroke-width: 0.8; stroke-linecap: square"/>
     </g>
     <g id="line2d_30">
      <g>
       <use xlink:href="#mb7747de6aa" x="776.716486" y="246.04" style="stroke: #000000; stroke-width: 0.8"/>
      </g>
     </g>
     <g id="text_15">
      <!-- 2020 -->
      <g transform="translate(763.991486 260.638438) scale(0.1 -0.1)">
       <use xlink:href="#DejaVuSans-32"/>
       <use xlink:href="#DejaVuSans-30" transform="translate(63.623047 0)"/>
       <use xlink:href="#DejaVuSans-32" transform="translate(127.246094 0)"/>
       <use xlink:href="#DejaVuSans-30" transform="translate(190.869141 0)"/>
      </g>
     </g>
    </g>
    <g id="text_16">
     <!-- Year -->
     <g transform="translate(438.3425 274.316562) scale(0.1 -0.1)">
      <defs>
       <path id="DejaVuSans-59" d="M -13 4666 
L 666 4666 
L 1959 2747 
L 3244 4666 
L 3922 4666 
L 2272 2222 
L 2272 0 
L 1638 0 
L 1638 2222 
L -13 4666 
z
" transform="scale(0.015625)"/>
       <path id="DejaVuSans-65" d="M 3597 1894 
L 3597 1613 
L 953 1613 
Q 991 1019 1311 708 
Q 1631 397 2203 397 
Q 2534 397 2845 478 
Q 3156 559 3463 722 
L 3463 178 
Q 3153 47 2828 -22 
Q 2503 -91 2169 -91 
Q 1331 -91 842 396 
Q 353 884 353 1716 
Q 353 2575 817 3079 
Q 1281 3584 2069 3584 
Q 2775 3584 3186 3129 
Q 3597 2675 3597 1894 
z
M 3022 2063 
Q 3016 2534 2758 2815 
Q 2500 3097 2075 3097 
Q 1594 3097 1305 2825 
Q 1016 2553 972 2059 
L 3022 2063 
z
" transform="scale(0.015625)"/>
       <path id="DejaVuSans-61" d="M 2194 1759 
Q 1497 1759 1228 1600 
Q 959 1441 959 1056 
Q 959 750 1161 570 
Q 1363 391 1709 391 
Q 2188 391 2477 730 
Q 2766 1069 2766 1631 
L 2766 1759 
L 2194 1759 
z
M 3341 1997 
L 3341 0 
L 2766 0 
L 2766 531 
Q 2569 213 2275 61 
Q 1981 -91 1556 -91 
Q 1019 -91 701 211 
Q 384 513 384 1019 
Q 384 1609 779 1909 
Q 1175 2209 1959 2209 
L 2766 2209 
L 2766 2266 
Q 2766 2663 2505 2880 
Q 2244 3097 1772 3097 
Q 1472 3097 1187 3025 
Q 903 2953 641 2809 
L 641 3341 
Q 956 3463 1253 3523 
Q 1550 3584 1831 3584 
Q 2591 3584 2966 3190 
Q 3341 2797 3341 1997 
z
" transform="scale(0.015625)"/>
       <path id="DejaVuSans-72" d="M 2631 2963 
Q 2534 3019 2420 3045 
Q 2306 3072 2169 3072 
Q 1681 3072 1420 2755 
Q 1159 2438 1159 1844 
L 1159 0 
L 581 0 
L 581 3500 
L 1159 3500 
L 1159 2956 
Q 1341 3275 1631 3429 
Q 1922 3584 2338 3584 
Q 2397 3584 2469 3576 
Q 2541 3569 2628 3553 
L 2631 2963 
z
" transform="scale(0.015625)"/>
      </defs>
      <use xlink:href="#DejaVuSans-59"/>
      <use xlink:href="#DejaVuSans-65" transform="translate(47.833984 0)"/>
      <use xlink:href="#DejaVuSans-61" transform="translate(109.357422 0)"/>
      <use xlink:href="#DejaVuSans-72" transform="translate(170.636719 0)"/>
     </g>
    </g>
   </g>
   <g id="matplotlib.axis_2">
    <g id="ytick_1">
     <g id="line2d_31">
      <defs>
       <path id="m9f3db73683" d="M 0 0 
L -3.5 0 
" style="stroke: #000000; stroke-width: 0.8"/>
      </defs>
      <g>
       <use xlink:href="#m9f3db73683" x="44.66" y="241.307847" style="stroke: #000000; stroke-width: 0.8"/>
      </g>
     </g>
     <g id="text_17">
      <!-- 0 -->
      <g transform="translate(31.2975 245.107066) scale(0.1 -0.1)">
       <use xlink:href="#DejaVuSans-30"/>
      </g>
     </g>
    </g>
    <g id="ytick_2">
     <g id="line2d_32">
      <g>
       <use xlink:href="#m9f3db73683" x="44.66" y="204.284932" style="stroke: #000000; stroke-width: 0.8"/>
      </g>
     </g>
     <g id="text_18">
      <!-- 5 -->
      <g transform="translate(31.2975 208.084151) scale(0.1 -0.1)">
       <use xlink:href="#DejaVuSans-35"/>
      </g>
     </g>
    </g>
    <g id="ytick_3">
     <g id="line2d_33">
      <g>
       <use xlink:href="#m9f3db73683" x="44.66" y="167.262016" style="stroke: #000000; stroke-width: 0.8"/>
      </g>
     </g>
     <g id="text_19">
      <!-- 10 -->
      <g transform="translate(24.935 171.061235) scale(0.1 -0.1)">
       <use xlink:href="#DejaVuSans-31"/>
       <use xlink:href="#DejaVuSans-30" transform="translate(63.623047 0)"/>
      </g>
     </g>
    </g>
    <g id="ytick_4">
     <g id="line2d_34">
      <g>
       <use xlink:href="#m9f3db73683" x="44.66" y="130.239101" style="stroke: #000000; stroke-width: 0.8"/>
      </g>
     </g>
     <g id="text_20">
      <!-- 15 -->
      <g transform="translate(24.935 134.038319) scale(0.1 -0.1)">
       <use xlink:href="#DejaVuSans-31"/>
       <use xlink:href="#DejaVuSans-35" transform="translate(63.623047 0)"/>
      </g>
     </g>
    </g>
    <g id="ytick_5">
     <g id="line2d_35">
      <g>
       <use xlink:href="#m9f3db73683" x="44.66" y="93.216185" style="stroke: #000000; stroke-width: 0.8"/>
      </g>
     </g>
     <g id="text_21">
      <!-- 20 -->
      <g transform="translate(24.935 97.015404) scale(0.1 -0.1)">
       <use xlink:href="#DejaVuSans-32"/>
       <use xlink:href="#DejaVuSans-30" transform="translate(63.623047 0)"/>
      </g>
     </g>
    </g>
    <g id="ytick_6">
     <g id="line2d_36">
      <g>
       <use xlink:href="#m9f3db73683" x="44.66" y="56.193269" style="stroke: #000000; stroke-width: 0.8"/>
      </g>
     </g>
     <g id="text_22">
      <!-- 25 -->
      <g transform="translate(24.935 59.992488) scale(0.1 -0.1)">
       <use xlink:href="#DejaVuSans-32"/>
       <use xlink:href="#DejaVuSans-35" transform="translate(63.623047 0)"/>
      </g>
     </g>
    </g>
    <g id="ytick_7">
     <g id="line2d_37">
      <g>
       <use xlink:href="#m9f3db73683" x="44.66" y="19.170354" style="stroke: #000000; stroke-width: 0.8"/>
      </g>
     </g>
     <g id="text_23">
      <!-- 30 -->
      <g transform="translate(24.935 22.969573) scale(0.1 -0.1)">
       <defs>
        <path id="DejaVuSans-33" d="M 2597 2516 
Q 3050 2419 3304 2112 
Q 3559 1806 3559 1356 
Q 3559 666 3084 287 
Q 2609 -91 1734 -91 
Q 1441 -91 1130 -33 
Q 819 25 488 141 
L 488 750 
Q 750 597 1062 519 
Q 1375 441 1716 441 
Q 2309 441 2620 675 
Q 2931 909 2931 1356 
Q 2931 1769 2642 2001 
Q 2353 2234 1838 2234 
L 1294 2234 
L 1294 2753 
L 1863 2753 
Q 2328 2753 2575 2939 
Q 2822 3125 2822 3475 
Q 2822 3834 2567 4026 
Q 2313 4219 1838 4219 
Q 1578 4219 1281 4162 
Q 984 4106 628 3988 
L 628 4550 
Q 988 4650 1302 4700 
Q 1616 4750 1894 4750 
Q 2613 4750 3031 4423 
Q 3450 4097 3450 3541 
Q 3450 3153 3228 2886 
Q 3006 2619 2597 2516 
z
" transform="scale(0.015625)"/>
       </defs>
       <use xlink:href="#DejaVuSans-33"/>
       <use xlink:href="#DejaVuSans-30" transform="translate(63.623047 0)"/>
      </g>
     </g>
    </g>
    <g id="text_24">
     <!-- Wind speed 10m -->
     <g transform="translate(18.855313 170.500469) rotate(-90) scale(0.1 -0.1)">
      <defs>
       <path id="DejaVuSans-57" d="M 213 4666 
L 850 4666 
L 1831 722 
L 2809 4666 
L 3519 4666 
L 4500 722 
L 5478 4666 
L 6119 4666 
L 4947 0 
L 4153 0 
L 3169 4050 
L 2175 0 
L 1381 0 
L 213 4666 
z
" transform="scale(0.015625)"/>
       <path id="DejaVuSans-69" d="M 603 3500 
L 1178 3500 
L 1178 0 
L 603 0 
L 603 3500 
z
M 603 4863 
L 1178 4863 
L 1178 4134 
L 603 4134 
L 603 4863 
z
" transform="scale(0.015625)"/>
       <path id="DejaVuSans-6e" d="M 3513 2113 
L 3513 0 
L 2938 0 
L 2938 2094 
Q 2938 2591 2744 2837 
Q 2550 3084 2163 3084 
Q 1697 3084 1428 2787 
Q 1159 2491 1159 1978 
L 1159 0 
L 581 0 
L 581 3500 
L 1159 3500 
L 1159 2956 
Q 1366 3272 1645 3428 
Q 1925 3584 2291 3584 
Q 2894 3584 3203 3211 
Q 3513 2838 3513 2113 
z
" transform="scale(0.015625)"/>
       <path id="DejaVuSans-64" d="M 2906 2969 
L 2906 4863 
L 3481 4863 
L 3481 0 
L 2906 0 
L 2906 525 
Q 2725 213 2448 61 
Q 2172 -91 1784 -91 
Q 1150 -91 751 415 
Q 353 922 353 1747 
Q 353 2572 751 3078 
Q 1150 3584 1784 3584 
Q 2172 3584 2448 3432 
Q 2725 3281 2906 2969 
z
M 947 1747 
Q 947 1113 1208 752 
Q 1469 391 1925 391 
Q 2381 391 2643 752 
Q 2906 1113 2906 1747 
Q 2906 2381 2643 2742 
Q 2381 3103 1925 3103 
Q 1469 3103 1208 2742 
Q 947 2381 947 1747 
z
" transform="scale(0.015625)"/>
       <path id="DejaVuSans-20" transform="scale(0.015625)"/>
       <path id="DejaVuSans-73" d="M 2834 3397 
L 2834 2853 
Q 2591 2978 2328 3040 
Q 2066 3103 1784 3103 
Q 1356 3103 1142 2972 
Q 928 2841 928 2578 
Q 928 2378 1081 2264 
Q 1234 2150 1697 2047 
L 1894 2003 
Q 2506 1872 2764 1633 
Q 3022 1394 3022 966 
Q 3022 478 2636 193 
Q 2250 -91 1575 -91 
Q 1294 -91 989 -36 
Q 684 19 347 128 
L 347 722 
Q 666 556 975 473 
Q 1284 391 1588 391 
Q 1994 391 2212 530 
Q 2431 669 2431 922 
Q 2431 1156 2273 1281 
Q 2116 1406 1581 1522 
L 1381 1569 
Q 847 1681 609 1914 
Q 372 2147 372 2553 
Q 372 3047 722 3315 
Q 1072 3584 1716 3584 
Q 2034 3584 2315 3537 
Q 2597 3491 2834 3397 
z
" transform="scale(0.015625)"/>
       <path id="DejaVuSans-70" d="M 1159 525 
L 1159 -1331 
L 581 -1331 
L 581 3500 
L 1159 3500 
L 1159 2969 
Q 1341 3281 1617 3432 
Q 1894 3584 2278 3584 
Q 2916 3584 3314 3078 
Q 3713 2572 3713 1747 
Q 3713 922 3314 415 
Q 2916 -91 2278 -91 
Q 1894 -91 1617 61 
Q 1341 213 1159 525 
z
M 3116 1747 
Q 3116 2381 2855 2742 
Q 2594 3103 2138 3103 
Q 1681 3103 1420 2742 
Q 1159 2381 1159 1747 
Q 1159 1113 1420 752 
Q 1681 391 2138 391 
Q 2594 391 2855 752 
Q 3116 1113 3116 1747 
z
" transform="scale(0.015625)"/>
       <path id="DejaVuSans-6d" d="M 3328 2828 
Q 3544 3216 3844 3400 
Q 4144 3584 4550 3584 
Q 5097 3584 5394 3201 
Q 5691 2819 5691 2113 
L 5691 0 
L 5113 0 
L 5113 2094 
Q 5113 2597 4934 2840 
Q 4756 3084 4391 3084 
Q 3944 3084 3684 2787 
Q 3425 2491 3425 1978 
L 3425 0 
L 2847 0 
L 2847 2094 
Q 2847 2600 2669 2842 
Q 2491 3084 2119 3084 
Q 1678 3084 1418 2786 
Q 1159 2488 1159 1978 
L 1159 0 
L 581 0 
L 581 3500 
L 1159 3500 
L 1159 2956 
Q 1356 3278 1631 3431 
Q 1906 3584 2284 3584 
Q 2666 3584 2933 3390 
Q 3200 3197 3328 2828 
z
" transform="scale(0.015625)"/>
      </defs>
      <use xlink:href="#DejaVuSans-57"/>
      <use xlink:href="#DejaVuSans-69" transform="translate(96.626953 0)"/>
      <use xlink:href="#DejaVuSans-6e" transform="translate(124.410156 0)"/>
      <use xlink:href="#DejaVuSans-64" transform="translate(187.789062 0)"/>
      <use xlink:href="#DejaVuSans-20" transform="translate(251.265625 0)"/>
      <use xlink:href="#DejaVuSans-73" transform="translate(283.052734 0)"/>
      <use xlink:href="#DejaVuSans-70" transform="translate(335.152344 0)"/>
      <use xlink:href="#DejaVuSans-65" transform="translate(398.628906 0)"/>
      <use xlink:href="#DejaVuSans-65" transform="translate(460.152344 0)"/>
      <use xlink:href="#DejaVuSans-64" transform="translate(521.675781 0)"/>
      <use xlink:href="#DejaVuSans-20" transform="translate(585.152344 0)"/>
      <use xlink:href="#DejaVuSans-31" transform="translate(616.939453 0)"/>
      <use xlink:href="#DejaVuSans-30" transform="translate(680.5625 0)"/>
      <use xlink:href="#DejaVuSans-6d" transform="translate(744.185547 0)"/>
     </g>
    </g>
   </g>
   <g id="line2d_38">
    <path d="M 81.411818 153.920018 
L 91.344742 154.009689 
L 101.277666 154.09936 
L 111.21059 154.189031 
L 121.143514 154.278703 
L 131.076437 154.368374 
L 141.009361 154.458045 
L 150.942285 154.547716 
L 160.875209 154.637387 
L 170.808133 154.727059 
L 180.741057 154.81673 
L 190.67398 154.906401 
L 200.606904 154.996072 
L 210.539828 155.085743 
L 220.472752 155.175414 
L 230.405676 155.265086 
L 240.3386 155.354757 
L 250.271523 155.444428 
L 260.204447 155.534099 
L 270.137371 155.62377 
L 280.070295 155.713442 
L 290.003219 155.803113 
L 299.936143 155.892784 
L 309.869066 155.982455 
L 319.80199 156.072126 
L 329.734914 156.161797 
L 339.667838 156.251469 
L 349.600762 156.34114 
L 359.533686 156.430811 
L 369.466609 156.520482 
L 379.399533 156.610153 
L 389.332457 156.699824 
L 399.265381 156.789496 
L 409.198305 156.879167 
L 419.131229 156.968838 
L 429.064152 157.058509 
L 438.997076 157.14818 
L 448.93 157.237852 
L 458.862924 157.327523 
L 468.795848 157.417194 
L 478.728771 157.506865 
L 488.661695 157.596536 
L 498.594619 157.686207 
L 508.527543 157.775879 
L 518.460467 157.86555 
L 528.393391 157.955221 
L 538.326314 158.044892 
L 548.259238 158.134563 
L 558.192162 158.224235 
L 568.125086 158.313906 
L 578.05801 158.403577 
L 587.990934 158.493248 
L 597.923857 158.582919 
L 607.856781 158.67259 
L 617.789705 158.762262 
L 627.722629 158.851933 
L 637.655553 158.941604 
L 647.588477 159.031275 
L 657.5214 159.120946 
L 667.454324 159.210617 
L 677.387248 159.300289 
L 687.320172 159.38996 
L 697.253096 159.479631 
L 707.18602 159.569302 
L 717.118943 159.658973 
L 727.051867 159.748645 
L 736.984791 159.838316 
L 746.917715 159.927987 
L 756.850639 160.017658 
L 766.783563 160.107329 
L 776.716486 160.197 
L 786.64941 160.286672 
L 796.582334 160.376343 
L 806.515258 160.466014 
L 816.448182 160.555685 
" clip-path="url(#p08576bee64)" style="fill: none; stroke: #b6ccca; stroke-width: 1.5; stroke-linecap: square"/>
   </g>
   <g id="line2d_39">
    <path d="M 44.66 157.237852 
L 853.2 157.237852 
" clip-path="url(#p08576bee64)" style="fill: none; stroke-dasharray: 1.5,2.475; stroke-dashoffset: 0; stroke: #808080; stroke-width: 1.5"/>
   </g>
   <g id="patch_3">
    <path d="M 44.66 246.04 
L 44.66 10.8 
" style="fill: none; stroke: #000000; stroke-width: 0.8; stroke-linejoin: miter; stroke-linecap: square"/>
   </g>
   <g id="patch_4">
    <path d="M 44.66 246.04 
L 853.2 246.04 
" style="fill: none; stroke: #000000; stroke-width: 0.8; stroke-linejoin: miter; stroke-linecap: square"/>
   </g>
   <g id="legend_1">
    <g id="patch_5">
     <path d="M 733.525 48.15625 
L 846.2 48.15625 
Q 848.2 48.15625 848.2 46.15625 
L 848.2 17.8 
Q 848.2 15.8 846.2 15.8 
L 733.525 15.8 
Q 731.525 15.8 731.525 17.8 
L 731.525 46.15625 
Q 731.525 48.15625 733.525 48.15625 
z
" style="fill: #ffffff; opacity: 0.8; stroke: #cccccc; stroke-linejoin: miter"/>
    </g>
    <g id="line2d_40">
     <path d="M 735.525 23.898438 
L 745.525 23.898438 
L 755.525 23.898438 
" style="fill: none; stroke: #b6ccca; stroke-width: 1.5; stroke-linecap: square"/>
    </g>
    <g id="text_25">
     <!-- Trend -->
     <g transform="translate(763.525 27.398438) scale(0.1 -0.1)">
      <defs>
       <path id="DejaVuSans-54" d="M -19 4666 
L 3928 4666 
L 3928 4134 
L 2272 4134 
L 2272 0 
L 1638 0 
L 1638 4134 
L -19 4134 
L -19 4666 
z
" transform="scale(0.015625)"/>
      </defs>
      <use xlink:href="#DejaVuSans-54"/>
      <use xlink:href="#DejaVuSans-72" transform="translate(46.333984 0)"/>
      <use xlink:href="#DejaVuSans-65" transform="translate(85.197266 0)"/>
      <use xlink:href="#DejaVuSans-6e" transform="translate(146.720703 0)"/>
      <use xlink:href="#DejaVuSans-64" transform="translate(210.099609 0)"/>
     </g>
    </g>
    <g id="line2d_41">
     <path d="M 735.525 38.576562 
L 745.525 38.576562 
L 755.525 38.576562 
" style="fill: none; stroke-dasharray: 1.5,2.475; stroke-dashoffset: 0; stroke: #808080; stroke-width: 1.5"/>
    </g>
    <g id="text_26">
     <!-- Average (11.35) -->
     <g transform="translate(763.525 42.076562) scale(0.1 -0.1)">
      <defs>
       <path id="DejaVuSans-41" d="M 2188 4044 
L 1331 1722 
L 3047 1722 
L 2188 4044 
z
M 1831 4666 
L 2547 4666 
L 4325 0 
L 3669 0 
L 3244 1197 
L 1141 1197 
L 716 0 
L 50 0 
L 1831 4666 
z
" transform="scale(0.015625)"/>
       <path id="DejaVuSans-76" d="M 191 3500 
L 800 3500 
L 1894 563 
L 2988 3500 
L 3597 3500 
L 2284 0 
L 1503 0 
L 191 3500 
z
" transform="scale(0.015625)"/>
       <path id="DejaVuSans-67" d="M 2906 1791 
Q 2906 2416 2648 2759 
Q 2391 3103 1925 3103 
Q 1463 3103 1205 2759 
Q 947 2416 947 1791 
Q 947 1169 1205 825 
Q 1463 481 1925 481 
Q 2391 481 2648 825 
Q 2906 1169 2906 1791 
z
M 3481 434 
Q 3481 -459 3084 -895 
Q 2688 -1331 1869 -1331 
Q 1566 -1331 1297 -1286 
Q 1028 -1241 775 -1147 
L 775 -588 
Q 1028 -725 1275 -790 
Q 1522 -856 1778 -856 
Q 2344 -856 2625 -561 
Q 2906 -266 2906 331 
L 2906 616 
Q 2728 306 2450 153 
Q 2172 0 1784 0 
Q 1141 0 747 490 
Q 353 981 353 1791 
Q 353 2603 747 3093 
Q 1141 3584 1784 3584 
Q 2172 3584 2450 3431 
Q 2728 3278 2906 2969 
L 2906 3500 
L 3481 3500 
L 3481 434 
z
" transform="scale(0.015625)"/>
       <path id="DejaVuSans-28" d="M 1984 4856 
Q 1566 4138 1362 3434 
Q 1159 2731 1159 2009 
Q 1159 1288 1364 580 
Q 1569 -128 1984 -844 
L 1484 -844 
Q 1016 -109 783 600 
Q 550 1309 550 2009 
Q 550 2706 781 3412 
Q 1013 4119 1484 4856 
L 1984 4856 
z
" transform="scale(0.015625)"/>
       <path id="DejaVuSans-2e" d="M 684 794 
L 1344 794 
L 1344 0 
L 684 0 
L 684 794 
z
" transform="scale(0.015625)"/>
       <path id="DejaVuSans-29" d="M 513 4856 
L 1013 4856 
Q 1481 4119 1714 3412 
Q 1947 2706 1947 2009 
Q 1947 1309 1714 600 
Q 1481 -109 1013 -844 
L 513 -844 
Q 928 -128 1133 580 
Q 1338 1288 1338 2009 
Q 1338 2731 1133 3434 
Q 928 4138 513 4856 
z
" transform="scale(0.015625)"/>
      </defs>
      <use xlink:href="#DejaVuSans-41"/>
      <use xlink:href="#DejaVuSans-76" transform="translate(62.533203 0)"/>
      <use xlink:href="#DejaVuSans-65" transform="translate(121.712891 0)"/>
      <use xlink:href="#DejaVuSans-72" transform="translate(183.236328 0)"/>
      <use xlink:href="#DejaVuSans-61" transform="translate(224.349609 0)"/>
      <use xlink:href="#DejaVuSans-67" transform="translate(285.628906 0)"/>
      <use xlink:href="#DejaVuSans-65" transform="translate(349.105469 0)"/>
      <use xlink:href="#DejaVuSans-20" transform="translate(410.628906 0)"/>
      <use xlink:href="#DejaVuSans-28" transform="translate(442.416016 0)"/>
      <use xlink:href="#DejaVuSans-31" transform="translate(481.429688 0)"/>
      <use xlink:href="#DejaVuSans-31" transform="translate(545.052734 0)"/>
      <use xlink:href="#DejaVuSans-2e" transform="translate(608.675781 0)"/>
      <use xlink:href="#DejaVuSans-33" transform="translate(640.462891 0)"/>
      <use xlink:href="#DejaVuSans-35" transform="translate(704.085938 0)"/>
      <use xlink:href="#DejaVuSans-29" transform="translate(767.708984 0)"/>
     </g>
    </g>
   </g>
  </g>
 </g>
 <defs>
  <clipPath id="p08576bee64">
   <rect x="44.66" y="10.8" width="808.54" height="235.24"/>
  </clipPath>
 </defs>
</svg>
